<svg width="30" height="29" viewBox="0 0 30 29" fill="none" xmlns="http://www.w3.org/2000/svg">
<g clip-path="url(#clip0_97_25062)">
<path d="M21.659 14.44C21.54 13.7835 21.9662 13.1614 22.6231 13.027C23.2679 12.9339 23.8861 13.3665 24.0051 14.0093C24.0051 14.0095 24.0052 14.0097 24.0052 14.0099L24.4917 16.7561L24.5267 16.9536L24.7241 16.918L28.6302 16.2142L29.0591 18.5684L2.07111 23.4346L1.65414 21.0808L5.56042 20.377L5.75667 20.3416L5.72189 20.1453L5.23515 17.3976L5.23489 17.3962C5.11612 16.753 5.54337 16.1312 6.20055 16.0114L6.20119 16.0113C6.84098 15.8924 7.46117 16.3197 7.58101 16.9797C7.58103 16.9798 7.58106 16.9799 7.58108 16.98L8.06771 19.7131L8.10281 19.9103L8.29992 19.8749L21.9843 17.4202L22.1807 17.3849L22.1459 17.1884L21.6592 14.4408L21.659 14.44ZM20.5477 27.972H10.1109L12.7587 23.3313L17.4229 22.4941L20.5477 27.972Z" fill="#484039" stroke="white" stroke-width="0.4"/>
</g>
<defs>
<clipPath id="clip0_97_25062">
<rect width="28.584" height="27.79" fill="white" transform="translate(0.707825 0.382019)"/>
</clipPath>
</defs>
</svg>
