<svg width="33" height="28" viewBox="0 0 33 28" fill="none" xmlns="http://www.w3.org/2000/svg">
<g clip-path="url(#clip0_97_25090)">
<path d="M20.7106 19.2342C20.9744 19.2342 21.2274 19.1421 21.414 18.9782C21.6005 18.8142 21.7053 18.5918 21.7053 18.3599C21.7053 18.1281 21.6005 17.9057 21.414 17.7417C21.2274 17.5778 20.9744 17.4857 20.7106 17.4857C20.4467 17.4857 20.1937 17.5778 20.0072 17.7417C19.8206 17.9057 19.7158 18.1281 19.7158 18.3599C19.7158 18.5918 19.8206 18.8142 20.0072 18.9782C20.1937 19.1421 20.4467 19.2342 20.7106 19.2342ZM20.7106 23.6056C20.9744 23.6056 21.2274 23.5135 21.414 23.3496C21.6005 23.1856 21.7053 22.9632 21.7053 22.7314C21.7053 22.4995 21.6005 22.2771 21.414 22.1131C21.2274 21.9492 20.9744 21.8571 20.7106 21.8571C20.4467 21.8571 20.1937 21.9492 20.0072 22.1131C19.8206 22.2771 19.7158 22.4995 19.7158 22.7314C19.7158 22.9632 19.8206 23.1856 20.0072 23.3496C20.1937 23.5135 20.4467 23.6056 20.7106 23.6056ZM9.27066 19.2342C9.13874 19.2342 9.01223 19.2803 8.91895 19.3623C8.82567 19.4442 8.77327 19.5554 8.77327 19.6714C8.77327 19.7873 8.82567 19.8985 8.91895 19.9805C9.01223 20.0624 9.13874 20.1085 9.27066 20.1085H14.2445C14.3765 20.1085 14.503 20.0624 14.5962 19.9805C14.6895 19.8985 14.7419 19.7873 14.7419 19.6714C14.7419 19.5554 14.6895 19.4442 14.5962 19.3623C14.503 19.2803 14.3765 19.2342 14.2445 19.2342H9.27066ZM8.77327 21.4199C8.77327 21.304 8.82567 21.1928 8.91895 21.1108C9.01223 21.0288 9.13874 20.9828 9.27066 20.9828H14.2445C14.3765 20.9828 14.503 21.0288 14.5962 21.1108C14.6895 21.1928 14.7419 21.304 14.7419 21.4199C14.7419 21.5359 14.6895 21.6471 14.5962 21.729C14.503 21.811 14.3765 21.8571 14.2445 21.8571H9.27066C9.13874 21.8571 9.01223 21.811 8.91895 21.729C8.82567 21.6471 8.77327 21.5359 8.77327 21.4199ZM8.77327 23.1685C8.77327 23.0526 8.82567 22.9414 8.91895 22.8594C9.01223 22.7774 9.13874 22.7314 9.27066 22.7314H14.2445C14.3765 22.7314 14.503 22.7774 14.5962 22.8594C14.6895 22.9414 14.7419 23.0526 14.7419 23.1685C14.7419 23.2844 14.6895 23.3956 14.5962 23.4776C14.503 23.5596 14.3765 23.6056 14.2445 23.6056H9.27066C9.13874 23.6056 9.01223 23.5596 8.91895 23.4776C8.82567 23.3956 8.77327 23.2844 8.77327 23.1685Z" fill="#484039"/>
<mask id="path-2-inside-1_97_25090" fill="white">
<path d="M24.5046 7.31687C25.6257 8.12572 26.3715 9.26691 26.6016 10.5255C26.7383 11.2589 26.6949 12.0095 26.4743 12.7269C26.2576 13.4401 25.8711 14.1046 25.3403 14.6766C25.0629 14.9766 24.7486 15.2487 24.4032 15.4879C24.5862 15.8289 24.6897 16.2092 24.6897 16.6114V18.3599H25.6844V17.5888C25.6845 17.4265 25.7361 17.2674 25.8332 17.1294C25.9304 16.9913 26.0693 16.8798 26.2346 16.8072L29.2189 15.4958C29.3705 15.4292 29.539 15.3978 29.7083 15.4045C29.8776 15.4112 30.0422 15.4558 30.1864 15.5341C30.3306 15.6124 30.4497 15.7218 30.5322 15.8519C30.6148 15.9819 30.6582 16.1284 30.6583 16.2774V24.9372C30.6583 25.0801 30.6184 25.2208 30.5421 25.347C30.4659 25.4732 30.3556 25.5811 30.2209 25.6611C30.0862 25.7412 29.9312 25.791 29.7696 25.8063C29.6079 25.8215 29.4444 25.8017 29.2935 25.7485L26.3092 24.6994C26.1248 24.6344 25.9667 24.5224 25.8554 24.3778C25.744 24.2332 25.6845 24.0626 25.6844 23.888V22.7313H24.6897V24.4799C24.6897 25.1755 24.3753 25.8427 23.8156 26.3345C23.2559 26.8264 22.4968 27.1028 21.7053 27.1028H8.77327C7.98177 27.1028 7.2227 26.8264 6.66303 26.3345C6.10336 25.8427 5.78894 25.1755 5.78894 24.4799V16.9611C5.01951 16.6146 4.35365 16.1138 3.84515 15.4993C3.05732 14.5473 2.6961 13.3736 2.83048 12.2024C2.90599 11.5232 3.14614 10.8662 3.53478 10.2754C3.9241 9.68034 4.45475 9.16595 5.09061 8.7673C6.17722 8.08097 7.51321 7.77008 8.8439 7.8939C9.61982 7.96384 10.346 8.17716 10.9906 8.50152C11.6773 8.8455 12.2703 9.3169 12.7285 9.88289C13.5026 10.833 13.855 11.999 13.7193 13.1614C13.6873 13.4412 13.6274 13.718 13.5402 13.9885H15.5407L15.5288 13.971C15.1754 13.4281 14.9358 12.8337 14.8215 12.2163C14.6827 11.4821 14.7244 10.7303 14.9439 10.0114C15.1626 9.28787 15.5562 8.61426 16.0978 8.0364C17.0228 7.04363 18.3312 6.3848 19.7735 6.18555C20.5917 6.06985 21.4284 6.10619 22.2296 6.29221C23.0637 6.48433 23.8401 6.83401 24.5046 7.31687ZM18.8772 13.9885H20.6678L20.5325 13.5453C20.508 13.4644 20.4597 13.3906 20.3924 13.3314C20.3251 13.2721 20.2413 13.2295 20.1493 13.2078C20.0573 13.1861 19.9605 13.1861 19.8685 13.2077C19.7765 13.2293 19.6926 13.2719 19.6253 13.3311L18.8772 13.9885ZM23.7665 14.7142C23.8803 14.6338 23.9898 14.5489 24.0948 14.4598L24.2241 14.3461C24.5226 14.0742 24.7782 13.7691 24.9851 13.4403C24.9764 13.3421 24.9332 13.2487 24.8613 13.173C24.7895 13.0973 24.6927 13.0432 24.5842 13.0181L22.7688 12.5905C22.6768 12.5688 22.5798 12.5687 22.4878 12.5903C22.3957 12.6119 22.3118 12.6545 22.2444 12.7137C22.177 12.7729 22.1286 12.8467 22.104 12.9276C22.0794 13.0085 22.0795 13.0937 22.1043 13.1746L22.3728 14.0541C22.8963 14.1597 23.3775 14.3878 23.7655 14.7142M7.40446 14.2797C7.32839 14.2044 7.22508 14.1544 7.11198 14.1384C6.99888 14.1223 6.88293 14.141 6.78372 14.1914L5.29155 14.9485C5.20245 14.9934 5.13142 15.0615 5.08829 15.1434C5.04516 15.2253 5.03206 15.317 5.05082 15.4057C5.29653 15.6295 5.57208 15.828 5.87151 15.9959C5.97238 15.6299 6.16155 15.2873 6.4262 14.9912C6.69085 14.6951 7.02381 14.4525 7.40446 14.2797ZM22.7001 16.6114C22.7001 16.3795 22.5953 16.1571 22.4088 15.9932C22.2222 15.8292 21.9692 15.7371 21.7053 15.7371H8.77327C8.50944 15.7371 8.25641 15.8292 8.06985 15.9932C7.8833 16.1571 7.77849 16.3795 7.77849 16.6114V24.4799C7.77849 24.7118 7.8833 24.9342 8.06985 25.0981C8.25641 25.2621 8.50944 25.3542 8.77327 25.3542H21.7053C21.9692 25.3542 22.2222 25.2621 22.4088 25.0981C22.5953 24.9342 22.7001 24.7118 22.7001 24.4799V16.6114ZM19.3169 9.55591L18.8295 7.96122C18.8008 7.86579 18.7391 7.78058 18.6528 7.71743C18.5665 7.65428 18.4599 7.61634 18.348 7.60888C17.97 7.79248 17.6268 8.01717 17.3234 8.27334L17.199 8.38262C16.9006 8.6554 16.6439 8.9614 16.436 9.29187C16.4449 9.38997 16.4883 9.48321 16.5601 9.55871C16.6319 9.6342 16.7286 9.68822 16.8369 9.71328L18.6524 10.1408C18.7444 10.1626 18.8413 10.1627 18.9334 10.1411C19.0254 10.1194 19.1094 10.0769 19.1768 10.0176C19.2441 9.95843 19.2926 9.88464 19.3172 9.80374C19.3418 9.72283 19.3417 9.63677 19.3169 9.55591ZM20.6191 7.07469C20.5263 7.13032 20.4555 7.20997 20.4167 7.30258C20.3778 7.39519 20.3727 7.49614 20.4022 7.59139L20.8886 9.18696C20.9132 9.26783 20.9615 9.3416 21.0288 9.40084C21.096 9.46008 21.1799 9.5027 21.2718 9.52441C21.3638 9.54613 21.4607 9.54617 21.5527 9.52453C21.6447 9.50289 21.7285 9.46034 21.7959 9.40116L23.1249 8.23312C23.2046 8.16376 23.2578 8.0743 23.2771 7.97716C23.2963 7.88003 23.2807 7.78003 23.2323 7.69106C22.8639 7.49625 22.4679 7.34486 22.0545 7.24081L21.8854 7.20059C21.4714 7.10987 21.0456 7.06754 20.6191 7.07469ZM16.5275 13.582C16.6287 13.6246 16.7424 13.6385 16.8529 13.6217C16.9634 13.6049 17.0653 13.5584 17.1443 13.4884L18.4743 12.3204C18.5417 12.2612 18.5901 12.1875 18.6147 12.1066C18.6393 12.0258 18.6393 11.9407 18.6146 11.8598C18.5899 11.779 18.5414 11.7053 18.474 11.6462C18.4065 11.5871 18.3226 11.5446 18.2306 11.523L16.4151 11.0955C16.3069 11.0698 16.1922 11.0744 16.0871 11.1085C15.9819 11.1427 15.8914 11.2047 15.8282 11.2861C15.8109 12.094 16.0533 12.8898 16.5275 13.582ZM24.8936 9.15112C24.7925 9.10851 24.6788 9.09462 24.5682 9.11138C24.4577 9.12815 24.3559 9.17473 24.2768 9.24466L22.9468 10.4127C22.8795 10.4719 22.8311 10.5456 22.8065 10.6265C22.7818 10.7073 22.7819 10.7924 22.8066 10.8733C22.8313 10.9541 22.8798 11.0278 22.9472 11.0869C23.0146 11.146 23.0985 11.1885 23.1905 11.2101L25.006 11.6376C25.2448 11.6935 25.4706 11.6026 25.5929 11.447C25.6103 10.6391 25.3679 9.84331 24.8936 9.15112ZM21.4775 10.6925C21.3768 10.604 21.2573 10.5337 21.1257 10.4858C20.9941 10.4379 20.853 10.4133 20.7106 10.4133C20.5681 10.4133 20.4271 10.4379 20.2955 10.4858C20.1639 10.5337 20.0443 10.604 19.9436 10.6925C19.8429 10.781 19.763 10.8861 19.7085 11.0017C19.654 11.1174 19.6259 11.2414 19.6259 11.3665C19.6259 11.4917 19.654 11.6157 19.7085 11.7314C19.763 11.847 19.8429 11.9521 19.9436 12.0406C20.147 12.2194 20.4229 12.3198 20.7106 12.3198C20.9982 12.3198 21.2741 12.2194 21.4775 12.0406C21.681 11.8618 21.7952 11.6194 21.7952 11.3665C21.7952 11.1137 21.681 10.8713 21.4775 10.6925ZM6.78372 11.1628C6.85933 11.2012 6.9451 11.2214 7.03241 11.2214C7.11971 11.2214 7.20549 11.2012 7.2811 11.1628C7.35671 11.1245 7.4195 11.0693 7.46315 11.0028C7.50681 10.9364 7.5298 10.861 7.5298 10.7843V9.27002C7.53024 9.1795 7.49857 9.09112 7.4392 9.01716C7.37983 8.9432 7.29571 8.88734 7.19854 8.85736C6.81854 8.94006 6.45262 9.06646 6.11025 9.2333L5.97098 9.30324C5.63342 9.48195 5.32404 9.69888 5.05082 9.94846C5.03206 10.0372 5.04516 10.1289 5.08829 10.2108C5.13142 10.2927 5.20245 10.3608 5.29155 10.4057L6.78372 11.1628ZM9.02196 9.27002V10.7843C9.02196 10.861 9.04495 10.9364 9.0886 11.0028C9.13226 11.0693 9.19505 11.1245 9.27066 11.1628C9.34627 11.2012 9.43204 11.2214 9.51935 11.2214C9.60666 11.2214 9.69243 11.2012 9.76804 11.1628L11.2602 10.4057C11.3493 10.3608 11.4203 10.2927 11.4635 10.2108C11.5066 10.1289 11.5197 10.0372 11.5009 9.94846C11.2274 9.69883 10.9177 9.4819 10.5798 9.30324L10.4405 9.2333C10.0985 9.06648 9.73289 8.94007 9.35322 8.85736C9.25605 8.88734 9.17193 8.9432 9.11256 9.01716C9.05319 9.09112 9.02152 9.1795 9.02196 9.27002ZM4.54547 13.8128L6.03763 13.0557C6.11324 13.0173 6.17602 12.9621 6.21968 12.8957C6.26333 12.8292 6.28631 12.7538 6.28631 12.6771C6.28631 12.6004 6.26333 12.525 6.21968 12.4585C6.17602 12.3921 6.11324 12.3369 6.03763 12.2985L4.54547 11.5414C4.45647 11.4959 4.35356 11.476 4.25105 11.4843C4.14854 11.4926 4.05152 11.5287 3.97348 11.5877C3.74022 12.2995 3.74022 13.0547 3.97348 13.7665C4.12468 13.8801 4.3495 13.9125 4.54547 13.8128ZM12.7524 12.6771C12.7524 12.2994 12.6917 11.934 12.5783 11.5877C12.5002 11.5287 12.4032 11.4926 12.3007 11.4843C12.1982 11.476 12.0953 11.4959 12.0063 11.5414L10.5141 12.2985C10.4385 12.3369 10.3757 12.3921 10.3321 12.4585C10.2884 12.525 10.2655 12.6004 10.2655 12.6771C10.2655 12.7538 10.2884 12.8292 10.3321 12.8957C10.3757 12.9621 10.4385 13.0173 10.5141 13.0557L12.0063 13.8128C12.0953 13.8583 12.1982 13.8782 12.3007 13.8699C12.4032 13.8616 12.5002 13.8255 12.5783 13.7665C12.6941 13.4123 12.7527 13.0456 12.7524 12.6771ZM8.77327 13.4342C8.88731 13.3772 8.98741 13.301 9.06779 13.2099C9.14817 13.1187 9.20724 13.0145 9.24162 12.9033C9.27599 12.792 9.28498 12.6758 9.26807 12.5615C9.25116 12.4472 9.20868 12.3369 9.14309 12.237C9.07749 12.1372 8.99007 12.0497 8.88585 11.9797C8.78164 11.9097 8.66269 11.8584 8.53586 11.829C8.40903 11.7995 8.27681 11.7924 8.14683 11.808C8.01685 11.8236 7.89167 11.8617 7.77849 11.92C7.55187 12.0367 7.38701 12.2275 7.31986 12.4507C7.25272 12.6739 7.28875 12.9114 7.4201 13.1113C7.55145 13.3113 7.76744 13.4574 8.02095 13.5179C8.27446 13.5784 8.54491 13.5483 8.77327 13.4342Z"/>
</mask>
<path d="M24.5046 7.31687C25.6257 8.12572 26.3715 9.26691 26.6016 10.5255C26.7383 11.2589 26.6949 12.0095 26.4743 12.7269C26.2576 13.4401 25.8711 14.1046 25.3403 14.6766C25.0629 14.9766 24.7486 15.2487 24.4032 15.4879C24.5862 15.8289 24.6897 16.2092 24.6897 16.6114V18.3599H25.6844V17.5888C25.6845 17.4265 25.7361 17.2674 25.8332 17.1294C25.9304 16.9913 26.0693 16.8798 26.2346 16.8072L29.2189 15.4958C29.3705 15.4292 29.539 15.3978 29.7083 15.4045C29.8776 15.4112 30.0422 15.4558 30.1864 15.5341C30.3306 15.6124 30.4497 15.7218 30.5322 15.8519C30.6148 15.9819 30.6582 16.1284 30.6583 16.2774V24.9372C30.6583 25.0801 30.6184 25.2208 30.5421 25.347C30.4659 25.4732 30.3556 25.5811 30.2209 25.6611C30.0862 25.7412 29.9312 25.791 29.7696 25.8063C29.6079 25.8215 29.4444 25.8017 29.2935 25.7485L26.3092 24.6994C26.1248 24.6344 25.9667 24.5224 25.8554 24.3778C25.744 24.2332 25.6845 24.0626 25.6844 23.888V22.7313H24.6897V24.4799C24.6897 25.1755 24.3753 25.8427 23.8156 26.3345C23.2559 26.8264 22.4968 27.1028 21.7053 27.1028H8.77327C7.98177 27.1028 7.2227 26.8264 6.66303 26.3345C6.10336 25.8427 5.78894 25.1755 5.78894 24.4799V16.9611C5.01951 16.6146 4.35365 16.1138 3.84515 15.4993C3.05732 14.5473 2.6961 13.3736 2.83048 12.2024C2.90599 11.5232 3.14614 10.8662 3.53478 10.2754C3.9241 9.68034 4.45475 9.16595 5.09061 8.7673C6.17722 8.08097 7.51321 7.77008 8.8439 7.8939C9.61982 7.96384 10.346 8.17716 10.9906 8.50152C11.6773 8.8455 12.2703 9.3169 12.7285 9.88289C13.5026 10.833 13.855 11.999 13.7193 13.1614C13.6873 13.4412 13.6274 13.718 13.5402 13.9885H15.5407L15.5288 13.971C15.1754 13.4281 14.9358 12.8337 14.8215 12.2163C14.6827 11.4821 14.7244 10.7303 14.9439 10.0114C15.1626 9.28787 15.5562 8.61426 16.0978 8.0364C17.0228 7.04363 18.3312 6.3848 19.7735 6.18555C20.5917 6.06985 21.4284 6.10619 22.2296 6.29221C23.0637 6.48433 23.8401 6.83401 24.5046 7.31687ZM18.8772 13.9885H20.6678L20.5325 13.5453C20.508 13.4644 20.4597 13.3906 20.3924 13.3314C20.3251 13.2721 20.2413 13.2295 20.1493 13.2078C20.0573 13.1861 19.9605 13.1861 19.8685 13.2077C19.7765 13.2293 19.6926 13.2719 19.6253 13.3311L18.8772 13.9885ZM23.7665 14.7142C23.8803 14.6338 23.9898 14.5489 24.0948 14.4598L24.2241 14.3461C24.5226 14.0742 24.7782 13.7691 24.9851 13.4403C24.9764 13.3421 24.9332 13.2487 24.8613 13.173C24.7895 13.0973 24.6927 13.0432 24.5842 13.0181L22.7688 12.5905C22.6768 12.5688 22.5798 12.5687 22.4878 12.5903C22.3957 12.6119 22.3118 12.6545 22.2444 12.7137C22.177 12.7729 22.1286 12.8467 22.104 12.9276C22.0794 13.0085 22.0795 13.0937 22.1043 13.1746L22.3728 14.0541C22.8963 14.1597 23.3775 14.3878 23.7655 14.7142M7.40446 14.2797C7.32839 14.2044 7.22508 14.1544 7.11198 14.1384C6.99888 14.1223 6.88293 14.141 6.78372 14.1914L5.29155 14.9485C5.20245 14.9934 5.13142 15.0615 5.08829 15.1434C5.04516 15.2253 5.03206 15.317 5.05082 15.4057C5.29653 15.6295 5.57208 15.828 5.87151 15.9959C5.97238 15.6299 6.16155 15.2873 6.4262 14.9912C6.69085 14.6951 7.02381 14.4525 7.40446 14.2797ZM22.7001 16.6114C22.7001 16.3795 22.5953 16.1571 22.4088 15.9932C22.2222 15.8292 21.9692 15.7371 21.7053 15.7371H8.77327C8.50944 15.7371 8.25641 15.8292 8.06985 15.9932C7.8833 16.1571 7.77849 16.3795 7.77849 16.6114V24.4799C7.77849 24.7118 7.8833 24.9342 8.06985 25.0981C8.25641 25.2621 8.50944 25.3542 8.77327 25.3542H21.7053C21.9692 25.3542 22.2222 25.2621 22.4088 25.0981C22.5953 24.9342 22.7001 24.7118 22.7001 24.4799V16.6114ZM19.3169 9.55591L18.8295 7.96122C18.8008 7.86579 18.7391 7.78058 18.6528 7.71743C18.5665 7.65428 18.4599 7.61634 18.348 7.60888C17.97 7.79248 17.6268 8.01717 17.3234 8.27334L17.199 8.38262C16.9006 8.6554 16.6439 8.9614 16.436 9.29187C16.4449 9.38997 16.4883 9.48321 16.5601 9.55871C16.6319 9.6342 16.7286 9.68822 16.8369 9.71328L18.6524 10.1408C18.7444 10.1626 18.8413 10.1627 18.9334 10.1411C19.0254 10.1194 19.1094 10.0769 19.1768 10.0176C19.2441 9.95843 19.2926 9.88464 19.3172 9.80374C19.3418 9.72283 19.3417 9.63677 19.3169 9.55591ZM20.6191 7.07469C20.5263 7.13032 20.4555 7.20997 20.4167 7.30258C20.3778 7.39519 20.3727 7.49614 20.4022 7.59139L20.8886 9.18696C20.9132 9.26783 20.9615 9.3416 21.0288 9.40084C21.096 9.46008 21.1799 9.5027 21.2718 9.52441C21.3638 9.54613 21.4607 9.54617 21.5527 9.52453C21.6447 9.50289 21.7285 9.46034 21.7959 9.40116L23.1249 8.23312C23.2046 8.16376 23.2578 8.0743 23.2771 7.97716C23.2963 7.88003 23.2807 7.78003 23.2323 7.69106C22.8639 7.49625 22.4679 7.34486 22.0545 7.24081L21.8854 7.20059C21.4714 7.10987 21.0456 7.06754 20.6191 7.07469ZM16.5275 13.582C16.6287 13.6246 16.7424 13.6385 16.8529 13.6217C16.9634 13.6049 17.0653 13.5584 17.1443 13.4884L18.4743 12.3204C18.5417 12.2612 18.5901 12.1875 18.6147 12.1066C18.6393 12.0258 18.6393 11.9407 18.6146 11.8598C18.5899 11.779 18.5414 11.7053 18.474 11.6462C18.4065 11.5871 18.3226 11.5446 18.2306 11.523L16.4151 11.0955C16.3069 11.0698 16.1922 11.0744 16.0871 11.1085C15.9819 11.1427 15.8914 11.2047 15.8282 11.2861C15.8109 12.094 16.0533 12.8898 16.5275 13.582ZM24.8936 9.15112C24.7925 9.10851 24.6788 9.09462 24.5682 9.11138C24.4577 9.12815 24.3559 9.17473 24.2768 9.24466L22.9468 10.4127C22.8795 10.4719 22.8311 10.5456 22.8065 10.6265C22.7818 10.7073 22.7819 10.7924 22.8066 10.8733C22.8313 10.9541 22.8798 11.0278 22.9472 11.0869C23.0146 11.146 23.0985 11.1885 23.1905 11.2101L25.006 11.6376C25.2448 11.6935 25.4706 11.6026 25.5929 11.447C25.6103 10.6391 25.3679 9.84331 24.8936 9.15112ZM21.4775 10.6925C21.3768 10.604 21.2573 10.5337 21.1257 10.4858C20.9941 10.4379 20.853 10.4133 20.7106 10.4133C20.5681 10.4133 20.4271 10.4379 20.2955 10.4858C20.1639 10.5337 20.0443 10.604 19.9436 10.6925C19.8429 10.781 19.763 10.8861 19.7085 11.0017C19.654 11.1174 19.6259 11.2414 19.6259 11.3665C19.6259 11.4917 19.654 11.6157 19.7085 11.7314C19.763 11.847 19.8429 11.9521 19.9436 12.0406C20.147 12.2194 20.4229 12.3198 20.7106 12.3198C20.9982 12.3198 21.2741 12.2194 21.4775 12.0406C21.681 11.8618 21.7952 11.6194 21.7952 11.3665C21.7952 11.1137 21.681 10.8713 21.4775 10.6925ZM6.78372 11.1628C6.85933 11.2012 6.9451 11.2214 7.03241 11.2214C7.11971 11.2214 7.20549 11.2012 7.2811 11.1628C7.35671 11.1245 7.4195 11.0693 7.46315 11.0028C7.50681 10.9364 7.5298 10.861 7.5298 10.7843V9.27002C7.53024 9.1795 7.49857 9.09112 7.4392 9.01716C7.37983 8.9432 7.29571 8.88734 7.19854 8.85736C6.81854 8.94006 6.45262 9.06646 6.11025 9.2333L5.97098 9.30324C5.63342 9.48195 5.32404 9.69888 5.05082 9.94846C5.03206 10.0372 5.04516 10.1289 5.08829 10.2108C5.13142 10.2927 5.20245 10.3608 5.29155 10.4057L6.78372 11.1628ZM9.02196 9.27002V10.7843C9.02196 10.861 9.04495 10.9364 9.0886 11.0028C9.13226 11.0693 9.19505 11.1245 9.27066 11.1628C9.34627 11.2012 9.43204 11.2214 9.51935 11.2214C9.60666 11.2214 9.69243 11.2012 9.76804 11.1628L11.2602 10.4057C11.3493 10.3608 11.4203 10.2927 11.4635 10.2108C11.5066 10.1289 11.5197 10.0372 11.5009 9.94846C11.2274 9.69883 10.9177 9.4819 10.5798 9.30324L10.4405 9.2333C10.0985 9.06648 9.73289 8.94007 9.35322 8.85736C9.25605 8.88734 9.17193 8.9432 9.11256 9.01716C9.05319 9.09112 9.02152 9.1795 9.02196 9.27002ZM4.54547 13.8128L6.03763 13.0557C6.11324 13.0173 6.17602 12.9621 6.21968 12.8957C6.26333 12.8292 6.28631 12.7538 6.28631 12.6771C6.28631 12.6004 6.26333 12.525 6.21968 12.4585C6.17602 12.3921 6.11324 12.3369 6.03763 12.2985L4.54547 11.5414C4.45647 11.4959 4.35356 11.476 4.25105 11.4843C4.14854 11.4926 4.05152 11.5287 3.97348 11.5877C3.74022 12.2995 3.74022 13.0547 3.97348 13.7665C4.12468 13.8801 4.3495 13.9125 4.54547 13.8128ZM12.7524 12.6771C12.7524 12.2994 12.6917 11.934 12.5783 11.5877C12.5002 11.5287 12.4032 11.4926 12.3007 11.4843C12.1982 11.476 12.0953 11.4959 12.0063 11.5414L10.5141 12.2985C10.4385 12.3369 10.3757 12.3921 10.3321 12.4585C10.2884 12.525 10.2655 12.6004 10.2655 12.6771C10.2655 12.7538 10.2884 12.8292 10.3321 12.8957C10.3757 12.9621 10.4385 13.0173 10.5141 13.0557L12.0063 13.8128C12.0953 13.8583 12.1982 13.8782 12.3007 13.8699C12.4032 13.8616 12.5002 13.8255 12.5783 13.7665C12.6941 13.4123 12.7527 13.0456 12.7524 12.6771ZM8.77327 13.4342C8.88731 13.3772 8.98741 13.301 9.06779 13.2099C9.14817 13.1187 9.20724 13.0145 9.24162 12.9033C9.27599 12.792 9.28498 12.6758 9.26807 12.5615C9.25116 12.4472 9.20868 12.3369 9.14309 12.237C9.07749 12.1372 8.99007 12.0497 8.88585 11.9797C8.78164 11.9097 8.66269 11.8584 8.53586 11.829C8.40903 11.7995 8.27681 11.7924 8.14683 11.808C8.01685 11.8236 7.89167 11.8617 7.77849 11.92C7.55187 12.0367 7.38701 12.2275 7.31986 12.4507C7.25272 12.6739 7.28875 12.9114 7.4201 13.1113C7.55145 13.3113 7.76744 13.4574 8.02095 13.5179C8.27446 13.5784 8.54491 13.5483 8.77327 13.4342Z" fill="#484039"/>
<path d="M24.5046 7.31687L24.3283 7.55957L24.3291 7.56015L24.5046 7.31687ZM26.6016 10.5255L26.3065 10.5795L26.3067 10.5804L26.6016 10.5255ZM26.4743 12.7269L26.1875 12.6388L26.1873 12.6397L26.4743 12.7269ZM25.3403 14.6766L25.1204 14.4725L25.12 14.4729L25.3403 14.6766ZM24.4032 15.4879L24.2324 15.2413L24.0122 15.3938L24.1389 15.6298L24.4032 15.4879ZM24.6897 18.3599H24.3897V18.6599H24.6897V18.3599ZM25.6844 18.3599V18.6599H25.9844V18.3599H25.6844ZM25.6844 17.5888L25.3844 17.5886V17.5888H25.6844ZM26.2346 16.8072L26.3552 17.0819L26.3553 17.0819L26.2346 16.8072ZM29.2189 15.4958L29.0983 15.2211L29.0982 15.2211L29.2189 15.4958ZM30.6583 16.2774H30.9583V16.2772L30.6583 16.2774ZM30.6583 24.9372L30.9583 24.9372V24.9372H30.6583ZM29.2935 25.7485L29.3932 25.4655L29.393 25.4655L29.2935 25.7485ZM26.3092 24.6994L26.2095 24.9823L26.2097 24.9824L26.3092 24.6994ZM25.6844 23.888H25.3844V23.8881L25.6844 23.888ZM25.6844 22.7313H25.9844V22.4313H25.6844V22.7313ZM24.6897 22.7313V22.4313H24.3897V22.7313H24.6897ZM24.6897 24.4799H24.9897H24.6897ZM8.77327 27.1028V27.4028V27.1028ZM5.78894 16.9611H6.08894V16.7672L5.91213 16.6875L5.78894 16.9611ZM3.84515 15.4993L4.07628 15.308L4.07627 15.308L3.84515 15.4993ZM2.83048 12.2024L3.12852 12.2366L3.12864 12.2355L2.83048 12.2024ZM3.53478 10.2754L3.78541 10.4403L3.78583 10.4397L3.53478 10.2754ZM5.09061 8.7673L5.24996 9.02148L5.25081 9.02095L5.09061 8.7673ZM8.8439 7.8939L8.8161 8.19261L8.81696 8.19269L8.8439 7.8939ZM10.9906 8.50152L10.8558 8.76951L10.8562 8.76975L10.9906 8.50152ZM12.7285 9.88289L12.4953 10.0716L12.4959 10.0724L12.7285 9.88289ZM13.7193 13.1614L13.4213 13.1267L13.4212 13.1274L13.7193 13.1614ZM13.5402 13.9885L13.2547 13.8965L13.1284 14.2885H13.5402V13.9885ZM15.5407 13.9885V14.2885H16.1088L15.7885 13.8194L15.5407 13.9885ZM15.5288 13.971L15.2773 14.1347L15.281 14.1402L15.5288 13.971ZM14.8215 12.2163L15.1165 12.1617L15.1163 12.1606L14.8215 12.2163ZM14.9439 10.0114L15.2308 10.099L15.231 10.0982L14.9439 10.0114ZM16.0978 8.0364L16.3167 8.24156L16.3173 8.24091L16.0978 8.0364ZM19.7735 6.18555L19.8145 6.48273L19.8155 6.48259L19.7735 6.18555ZM22.2296 6.29221L22.1617 6.58444L22.1623 6.58456L22.2296 6.29221ZM18.8772 13.9885L18.6792 13.7632L18.0814 14.2885H18.8772V13.9885ZM20.6678 13.9885V14.2885H21.073L20.9547 13.9009L20.6678 13.9885ZM20.5325 13.5453L20.2454 13.6323L20.2456 13.6328L20.5325 13.5453ZM19.6253 13.3311L19.8233 13.5564L19.8233 13.5564L19.6253 13.3311ZM24.0948 14.4598L24.2889 14.6885L24.2928 14.6851L24.0948 14.4598ZM24.2241 14.3461L24.4222 14.5715L24.4262 14.5679L24.2241 14.3461ZM24.9851 13.4403L25.239 13.6002L25.2929 13.5146L25.284 13.4139L24.9851 13.4403ZM24.5842 13.0181L24.5155 13.3101L24.5165 13.3103L24.5842 13.0181ZM22.7688 12.5905L22.6996 12.8825L22.7 12.8826L22.7688 12.5905ZM22.1043 13.1746L22.3912 13.0869L22.3911 13.0866L22.1043 13.1746ZM22.3728 14.0541L22.0859 14.1417L22.1382 14.3128L22.3135 14.3482L22.3728 14.0541ZM7.40446 14.2797L7.52846 14.5528L7.925 14.3728L7.61551 14.0665L7.40446 14.2797ZM6.78372 14.1914L6.91946 14.4589L6.91952 14.4589L6.78372 14.1914ZM5.29155 14.9485L5.42651 15.2164L5.4273 15.216L5.29155 14.9485ZM5.05082 15.4057L4.7573 15.4678L4.77729 15.5624L4.8488 15.6275L5.05082 15.4057ZM5.87151 15.9959L5.7248 16.2576L6.05893 16.4449L6.16072 16.0756L5.87151 15.9959ZM19.3169 9.55591L19.03 9.6436L19.0301 9.64382L19.3169 9.55591ZM18.8295 7.96122L18.5421 8.04743L18.5426 8.04891L18.8295 7.96122ZM18.348 7.60888L18.3679 7.30954L18.2885 7.30425L18.2169 7.33903L18.348 7.60888ZM17.3234 8.27334L17.1298 8.04406L17.1253 8.048L17.3234 8.27334ZM17.199 8.38262L17.0009 8.15724L16.9966 8.16118L17.199 8.38262ZM16.436 9.29187L16.1821 9.13213L16.1281 9.21795L16.1372 9.31894L16.436 9.29187ZM16.8369 9.71328L16.9057 9.42126L16.9046 9.42101L16.8369 9.71328ZM18.6524 10.1408L18.7215 9.84887L18.7211 9.84879L18.6524 10.1408ZM20.6191 7.07469L20.614 6.77474L20.5337 6.77608L20.4648 6.81739L20.6191 7.07469ZM20.4022 7.59139L20.6892 7.50391L20.6888 7.50276L20.4022 7.59139ZM20.8886 9.18696L21.1757 9.0999L21.1756 9.09947L20.8886 9.18696ZM21.7959 9.40116L21.5978 9.17582L21.5978 9.17583L21.7959 9.40116ZM23.1249 8.23312L22.928 8.00676L22.9268 8.00778L23.1249 8.23312ZM23.2323 7.69106L23.4959 7.5478L23.4526 7.4682L23.3726 7.42585L23.2323 7.69106ZM22.0545 7.24081L22.1278 6.94986L22.1239 6.94895L22.0545 7.24081ZM21.8854 7.20059L21.9548 6.90868L21.9496 6.90754L21.8854 7.20059ZM16.5275 13.582L16.28 13.7515L16.3299 13.8242L16.4111 13.8584L16.5275 13.582ZM17.1443 13.4884L16.9463 13.263L16.9455 13.2638L17.1443 13.4884ZM18.4743 12.3204L18.6723 12.5458L18.6724 12.5457L18.4743 12.3204ZM18.2306 11.523L18.1618 11.8151L18.1622 11.8151L18.2306 11.523ZM16.4151 11.0955L16.3458 11.3874L16.3464 11.3875L16.4151 11.0955ZM15.8282 11.2861L15.5913 11.102L15.5304 11.1804L15.5283 11.2797L15.8282 11.2861ZM24.8936 9.15112L25.1411 8.98154L25.0913 8.90886L25.0101 8.87465L24.8936 9.15112ZM24.2768 9.24466L24.4748 9.47008L24.4756 9.46933L24.2768 9.24466ZM22.9468 10.4127L22.7489 10.1873L22.7488 10.1874L22.9468 10.4127ZM23.1905 11.2101L23.2593 10.918L23.259 10.918L23.1905 11.2101ZM25.006 11.6376L24.9372 11.9296L24.9376 11.9297L25.006 11.6376ZM25.5929 11.447L25.8288 11.6324L25.8907 11.5536L25.8929 11.4534L25.5929 11.447ZM20.7106 12.3198V12.0198V12.3198ZM6.78372 11.1628L6.91947 10.8953L6.91946 10.8953L6.78372 11.1628ZM7.5298 10.7843L7.8298 10.7843V10.7843H7.5298ZM7.5298 9.27002L7.2298 9.26856V9.27002H7.5298ZM7.19854 8.85736L7.287 8.5707L7.21172 8.54746L7.13474 8.56422L7.19854 8.85736ZM6.11025 9.2333L5.97883 8.96359L5.97561 8.96521L6.11025 9.2333ZM5.97098 9.30324L5.83631 9.03509L5.83062 9.0381L5.97098 9.30324ZM5.05082 9.94846L4.84848 9.72696L4.77725 9.79204L4.7573 9.88644L5.05082 9.94846ZM5.29155 10.4057L5.4273 10.1382L5.42651 10.1378L5.29155 10.4057ZM9.02196 9.27002H9.32196L9.32196 9.26856L9.02196 9.27002ZM9.02196 10.7843H8.72196V10.7843L9.02196 10.7843ZM9.76804 11.1628L9.6323 10.8953L9.63229 10.8953L9.76804 11.1628ZM11.2602 10.4057L11.1252 10.1378L11.1245 10.1382L11.2602 10.4057ZM11.5009 9.94846L11.7945 9.88644L11.7745 9.79196L11.7032 9.72686L11.5009 9.94846ZM10.5798 9.30324L10.72 9.03797L10.7144 9.03515L10.5798 9.30324ZM10.4405 9.2333L10.5752 8.96519L10.572 8.96366L10.4405 9.2333ZM9.35322 8.85736L9.41708 8.56423L9.34007 8.54745L9.26475 8.5707L9.35322 8.85736ZM4.54547 13.8128L4.40972 13.5453L4.40947 13.5454L4.54547 13.8128ZM6.03763 13.0557L6.17338 13.3232L6.1734 13.3232L6.03763 13.0557ZM6.28631 12.6771H5.98631H6.28631ZM6.03763 12.2985L6.1734 12.031L6.17338 12.031L6.03763 12.2985ZM4.54547 11.5414L4.40899 11.8086L4.40972 11.8089L4.54547 11.5414ZM3.97348 11.5877L3.79257 11.3484L3.71764 11.4051L3.68839 11.4943L3.97348 11.5877ZM3.97348 13.7665L3.68839 13.8599L3.71778 13.9496L3.79322 14.0063L3.97348 13.7665ZM12.7524 12.6771H12.4524L12.4524 12.6773L12.7524 12.6771ZM12.5783 11.5877L12.8634 11.4944L12.8341 11.4051L12.7592 11.3484L12.5783 11.5877ZM12.0063 11.5414L12.142 11.8089L12.1428 11.8086L12.0063 11.5414ZM10.5141 12.2985L10.3784 12.031L10.3784 12.031L10.5141 12.2985ZM10.5141 13.0557L10.3784 13.3232L10.3784 13.3232L10.5141 13.0557ZM12.0063 13.8128L12.1428 13.5456L12.142 13.5453L12.0063 13.8128ZM12.5783 13.7665L12.7592 14.0058L12.8342 13.9491L12.8634 13.8597L12.5783 13.7665ZM8.77327 13.4342L8.63917 13.1659L8.77327 13.4342ZM7.77849 11.92L7.9159 12.1867L7.77849 11.92ZM24.3291 7.56015C25.3929 8.32769 26.0915 9.40351 26.3065 10.5795L26.8967 10.4715C26.6515 9.1303 25.8585 7.92375 24.6802 7.07359L24.3291 7.56015ZM26.3067 10.5804C26.4344 11.2659 26.394 11.9674 26.1875 12.6388L26.7611 12.8151C26.9958 12.0516 27.0422 11.2519 26.8966 10.4705L26.3067 10.5804ZM26.1873 12.6397C25.9845 13.3073 25.6217 13.9323 25.1204 14.4725L25.5601 14.8807C26.1205 14.2769 26.5308 13.5729 26.7613 12.8141L26.1873 12.6397ZM25.12 14.4729C24.8579 14.7564 24.5603 15.0142 24.2324 15.2413L24.574 15.7345C24.9369 15.4832 25.2679 15.1968 25.5605 14.8802L25.12 14.4729ZM24.1389 15.6298C24.2999 15.9299 24.3897 16.2617 24.3897 16.6114H24.9897C24.9897 16.1567 24.8725 15.7279 24.6675 15.346L24.1389 15.6298ZM24.3897 16.6114V18.3599H24.9897V16.6114H24.3897ZM24.6897 18.6599H25.6844V18.0599H24.6897V18.6599ZM25.9844 18.3599V17.5888H25.3844V18.3599H25.9844ZM25.9844 17.589C25.9845 17.491 26.0154 17.3917 26.0785 17.302L25.5879 16.9567C25.4567 17.1431 25.3846 17.362 25.3844 17.5886L25.9844 17.589ZM26.0785 17.302C26.142 17.2118 26.2365 17.134 26.3552 17.0819L26.1139 16.5325C25.9022 16.6255 25.7187 16.7708 25.5879 16.9567L26.0785 17.302ZM26.3553 17.0819L29.3396 15.7704L29.0982 15.2211L26.1139 16.5326L26.3553 17.0819ZM29.3395 15.7705C29.4485 15.7226 29.5715 15.6993 29.6964 15.7042L29.7202 15.1047C29.5064 15.0962 29.2926 15.1358 29.0983 15.2211L29.3395 15.7705ZM29.6964 15.7042C29.8214 15.7092 29.9408 15.7421 30.0433 15.7977L30.3296 15.2704C30.1436 15.1695 29.9339 15.1132 29.7202 15.1047L29.6964 15.7042ZM30.0433 15.7977C30.1456 15.8533 30.2255 15.9285 30.279 16.0127L30.7855 15.6911C30.6738 15.5151 30.5156 15.3715 30.3296 15.2704L30.0433 15.7977ZM30.279 16.0127C30.3322 16.0965 30.3583 16.1875 30.3583 16.2776L30.9583 16.2772C30.9582 16.0693 30.8975 15.8674 30.7855 15.6911L30.279 16.0127ZM30.3583 16.2774V24.9372H30.9583V16.2774H30.3583ZM30.3583 24.9371C30.3583 25.0235 30.3343 25.1109 30.2854 25.1919L30.7989 25.5021C30.9025 25.3307 30.9583 25.1366 30.9583 24.9372L30.3583 24.9371ZM30.2854 25.1919C30.2362 25.2732 30.1626 25.3468 30.0676 25.4033L30.3742 25.919C30.5485 25.8154 30.6955 25.6732 30.7989 25.5021L30.2854 25.1919ZM30.0676 25.4033C29.9725 25.4598 29.8605 25.4964 29.7414 25.5076L29.7977 26.1049C30.0019 26.0857 30.1999 26.0226 30.3742 25.919L30.0676 25.4033ZM29.7414 25.5076C29.6223 25.5188 29.5025 25.5041 29.3932 25.4655L29.1938 26.0315C29.3863 26.0993 29.5934 26.1242 29.7977 26.1049L29.7414 25.5076ZM29.393 25.4655L26.4087 24.4163L26.2097 24.9824L29.194 26.0315L29.393 25.4655ZM26.4088 24.4164C26.275 24.3693 26.1665 24.2901 26.0931 24.1948L25.6177 24.5608C25.7669 24.7547 25.9745 24.8995 26.2095 24.9823L26.4088 24.4164ZM26.0931 24.1948C26.0201 24.1001 25.9845 23.9932 25.9844 23.8879L25.3844 23.8881C25.3845 24.132 25.4679 24.3663 25.6177 24.5608L26.0931 24.1948ZM25.9844 23.888V22.7313H25.3844V23.888H25.9844ZM25.6844 22.4313H24.6897V23.0313H25.6844V22.4313ZM24.3897 22.7313V24.4799H24.9897V22.7313H24.3897ZM24.3897 24.4799C24.3897 25.0826 24.1176 25.6697 23.6175 26.1092L24.0136 26.5599C24.6329 26.0156 24.9897 25.2685 24.9897 24.4799H24.3897ZM23.6175 26.1092C23.1162 26.5498 22.4289 26.8028 21.7053 26.8028V27.4028C22.5648 27.4028 23.3956 27.1031 24.0136 26.5599L23.6175 26.1092ZM21.7053 26.8028H8.77327V27.4028H21.7053V26.8028ZM8.77327 26.8028C8.04973 26.8028 7.36239 26.5498 6.86107 26.1092L6.46498 26.5599C7.08301 27.1031 7.91382 27.4028 8.77327 27.4028V26.8028ZM6.86107 26.1092C6.361 25.6697 6.08894 25.0826 6.08894 24.4799H5.48894C5.48894 25.2685 5.84572 26.0156 6.46498 26.5599L6.86107 26.1092ZM6.08894 24.4799V16.9611H5.48894V24.4799H6.08894ZM5.91213 16.6875C5.18202 16.3587 4.55387 15.8852 4.07628 15.308L3.61402 15.6905C4.15342 16.3424 4.85701 16.8704 5.66575 17.2346L5.91213 16.6875ZM4.07627 15.308C3.3377 14.4155 3.00395 13.3224 3.12852 12.2366L2.53243 12.1682C2.38826 13.4248 2.77695 14.679 3.61403 15.6905L4.07627 15.308ZM3.12864 12.2355C3.19874 11.6051 3.42185 10.9929 3.78541 10.4403L3.28415 10.1106C2.87044 10.7394 2.61324 11.4414 2.53232 12.1692L3.12864 12.2355ZM3.78583 10.4397C4.15013 9.88282 4.64873 9.39842 5.24996 9.02148L4.93125 8.51313C4.26077 8.93349 3.69807 9.47786 3.28373 10.1112L3.78583 10.4397ZM5.25081 9.02095C6.2791 8.37145 7.54852 8.07466 8.8161 8.19261L8.87169 7.59519C7.47791 7.4655 6.07534 7.79049 4.9304 8.51366L5.25081 9.02095ZM8.81696 8.19269C9.55518 8.25923 10.2448 8.46206 10.8558 8.76951L11.1255 8.23354C10.4472 7.89227 9.68446 7.66845 8.87083 7.59511L8.81696 8.19269ZM10.8562 8.76975C11.5068 9.09565 12.0655 9.54069 12.4953 10.0716L12.9617 9.69413C12.4751 9.09311 11.8477 8.59536 11.125 8.2333L10.8562 8.76975ZM12.4959 10.0724C13.2216 10.9629 13.5472 12.0489 13.4213 13.1267L14.0173 13.1962C14.1629 11.9491 13.7837 10.703 12.9611 9.69339L12.4959 10.0724ZM13.4212 13.1274C13.3915 13.3873 13.3359 13.6446 13.2547 13.8965L13.8258 14.0805C13.919 13.7913 13.9831 13.4951 14.0174 13.1955L13.4212 13.1274ZM13.5402 14.2885H15.5407V13.6885H13.5402V14.2885ZM15.7885 13.8194L15.7766 13.8019L15.281 14.1402L15.293 14.1577L15.7885 13.8194ZM15.7802 13.8074C15.4477 13.2965 15.2234 12.739 15.1165 12.1617L14.5265 12.271C14.6483 12.9285 14.9031 13.5597 15.2773 14.1347L15.7802 13.8074ZM15.1163 12.1606C14.9866 11.4744 15.0254 10.7717 15.2308 10.099L14.6569 9.92382C14.4234 10.6888 14.3788 11.4899 14.5267 12.2721L15.1163 12.1606ZM15.231 10.0982C15.4358 9.42099 15.8051 8.78739 16.3167 8.24156L15.8789 7.83125C15.3073 8.44112 14.8895 9.15476 14.6567 9.92458L15.231 10.0982ZM16.3173 8.24091C17.1917 7.30246 18.4353 6.67327 19.8145 6.48273L19.7324 5.88837C18.2271 6.09633 16.8539 6.78481 15.8783 7.8319L16.3173 8.24091ZM19.8155 6.48259C20.5973 6.37205 21.3967 6.40681 22.1617 6.58444L22.2974 5.99998C21.46 5.80556 20.5861 5.76766 19.7315 5.8885L19.8155 6.48259ZM22.1623 6.58456C22.9587 6.76801 23.6977 7.10141 24.3283 7.55957L24.681 7.07417C23.9824 6.5666 23.1686 6.20065 22.2969 5.99987L22.1623 6.58456ZM18.8772 14.2885H20.6678V13.6885H18.8772V14.2885ZM20.9547 13.9009L20.8194 13.4577L20.2456 13.6328L20.3809 14.0761L20.9547 13.9009ZM20.8196 13.4582C20.7779 13.3206 20.6971 13.2 20.5906 13.1062L20.1941 13.5565C20.2222 13.5812 20.2381 13.6081 20.2454 13.6323L20.8196 13.4582ZM20.5906 13.1062C20.4844 13.0127 20.3555 12.9482 20.2182 12.9158L20.0804 13.4998C20.1271 13.5108 20.1658 13.5316 20.1941 13.5565L20.5906 13.1062ZM20.2182 12.9158C20.081 12.8834 19.937 12.8834 19.7998 12.9157L19.9372 13.4997C19.9839 13.4887 20.0336 13.4887 20.0804 13.4998L20.2182 12.9158ZM19.7998 12.9157C19.6625 12.9479 19.5336 13.0123 19.4272 13.1057L19.8233 13.5564C19.8517 13.5315 19.8904 13.5107 19.9372 13.4997L19.7998 12.9157ZM19.4272 13.1057L18.6792 13.7632L19.0752 14.2139L19.8233 13.5564L19.4272 13.1057ZM23.9397 14.9591C24.0606 14.8737 24.1771 14.7834 24.2889 14.6885L23.9007 14.231C23.8025 14.3144 23.6999 14.3938 23.5933 14.4692L23.9397 14.9591ZM24.2928 14.6851L24.4222 14.5714L24.0261 14.1208L23.8968 14.2344L24.2928 14.6851ZM24.4262 14.5679C24.7441 14.2782 25.0173 13.9523 25.239 13.6002L24.7312 13.2805C24.5391 13.5858 24.301 13.8702 24.0221 14.1243L24.4262 14.5679ZM25.284 13.4139C25.2689 13.2441 25.1945 13.0882 25.0789 12.9664L24.6438 13.3795C24.6718 13.4091 24.6839 13.4401 24.6863 13.4668L25.284 13.4139ZM25.0789 12.9664C24.9638 12.8452 24.8136 12.7633 24.6519 12.7258L24.5165 13.3103C24.5717 13.3231 24.6152 13.3494 24.6438 13.3795L25.0789 12.9664ZM24.653 12.7261L22.8375 12.2985L22.7 12.8826L24.5155 13.3101L24.653 12.7261ZM22.8379 12.2986C22.7006 12.2661 22.5565 12.266 22.4192 12.2982L22.5564 12.8823C22.6031 12.8714 22.6529 12.8714 22.6996 12.8825L22.8379 12.2986ZM22.4192 12.2982C22.2818 12.3305 22.1528 12.3948 22.0463 12.4884L22.4424 12.939C22.4708 12.9141 22.5096 12.8933 22.5564 12.8823L22.4192 12.2982ZM22.0463 12.4884C21.9397 12.5821 21.8588 12.7027 21.8169 12.8403L22.391 13.0149C22.3984 12.9907 22.4143 12.9638 22.4424 12.939L22.0463 12.4884ZM21.8169 12.8403C21.775 12.9784 21.7751 13.1245 21.8174 13.2625L22.3911 13.0866C22.3838 13.0629 22.3838 13.0387 22.391 13.0149L21.8169 12.8403ZM21.8173 13.2622L22.0859 14.1417L22.6598 13.9665L22.3912 13.0869L21.8173 13.2622ZM22.3135 14.3482C22.7904 14.4444 23.2249 14.6515 23.5724 14.9438L23.9586 14.4846C23.5301 14.1241 23.0022 13.8751 22.4322 13.76L22.3135 14.3482ZM7.61551 14.0665C7.49047 13.9427 7.32657 13.8659 7.15423 13.8413L7.06973 14.4354C7.12358 14.443 7.16631 14.466 7.1934 14.4929L7.61551 14.0665ZM7.15423 13.8413C6.98189 13.8168 6.80358 13.8448 6.64791 13.9239L6.91952 14.4589C6.96227 14.4372 7.01586 14.4277 7.06973 14.4354L7.15423 13.8413ZM6.64797 13.9238L5.15581 14.681L5.4273 15.216L6.91946 14.4589L6.64797 13.9238ZM5.1566 14.6806C5.01628 14.7512 4.89735 14.8621 4.82283 15.0036L5.35374 15.2832C5.36548 15.2609 5.38861 15.2355 5.42651 15.2164L5.1566 14.6806ZM4.82283 15.0036C4.74783 15.1461 4.72375 15.309 4.7573 15.4678L5.34434 15.3437C5.34037 15.325 5.34248 15.3045 5.35374 15.2832L4.82283 15.0036ZM4.8488 15.6275C5.11174 15.867 5.40593 16.0788 5.7248 16.2576L6.01821 15.7342C5.73823 15.5772 5.48131 15.3921 5.25284 15.184L4.8488 15.6275ZM6.16072 16.0756C6.24873 15.7563 6.41458 15.4544 6.64988 15.1911L6.20252 14.7913C5.90852 15.1202 5.69603 15.5036 5.58229 15.9162L6.16072 16.0756ZM6.64988 15.1911C6.88549 14.9275 7.18401 14.7092 7.52846 14.5528L7.28045 14.0065C6.86361 14.1957 6.49621 14.4627 6.20252 14.7913L6.64988 15.1911ZM23.0001 16.6114C23.0001 16.2865 22.853 15.9842 22.6068 15.7678L22.2107 16.2185C22.3377 16.3301 22.4001 16.4725 22.4001 16.6114H23.0001ZM22.6068 15.7678C22.3619 15.5526 22.0371 15.4371 21.7053 15.4371V16.0371C21.9012 16.0371 22.0825 16.1058 22.2107 16.2185L22.6068 15.7678ZM21.7053 15.4371H8.77327V16.0371H21.7053V15.4371ZM8.77327 15.4371C8.44148 15.4371 8.11672 15.5526 7.87181 15.7678L8.2679 16.2185C8.3961 16.1058 8.57739 16.0371 8.77327 16.0371V15.4371ZM7.87181 15.7678C7.62566 15.9842 7.47849 16.2865 7.47849 16.6114H8.07849C8.07849 16.4725 8.14094 16.3301 8.2679 16.2185L7.87181 15.7678ZM7.47849 16.6114V24.4799H8.07849V16.6114H7.47849ZM7.47849 24.4799C7.47849 24.8048 7.62566 25.1071 7.87181 25.3235L8.2679 24.8728C8.14094 24.7612 8.07849 24.6188 8.07849 24.4799H7.47849ZM7.87181 25.3235C8.11672 25.5387 8.44148 25.6542 8.77327 25.6542V25.0542C8.57739 25.0542 8.3961 24.9855 8.2679 24.8728L7.87181 25.3235ZM8.77327 25.6542H21.7053V25.0542H8.77327V25.6542ZM21.7053 25.6542C22.0371 25.6542 22.3619 25.5387 22.6068 25.3235L22.2107 24.8728C22.0825 24.9855 21.9012 25.0542 21.7053 25.0542V25.6542ZM22.6068 25.3235C22.853 25.1071 23.0001 24.8048 23.0001 24.4799H22.4001C22.4001 24.6188 22.3377 24.7612 22.2107 24.8728L22.6068 25.3235ZM23.0001 24.4799V16.6114H22.4001V24.4799H23.0001ZM19.6038 9.46821L19.1163 7.87352L18.5426 8.04891L19.03 9.6436L19.6038 9.46821ZM19.1168 7.87501C19.068 7.7123 18.9648 7.57405 18.8299 7.47533L18.4756 7.95953C18.5133 7.9871 18.5337 8.01928 18.5421 8.04743L19.1168 7.87501ZM18.8299 7.47533C18.6954 7.37688 18.5337 7.32059 18.3679 7.30954L18.328 7.90822C18.3862 7.91209 18.4376 7.93169 18.4756 7.95953L18.8299 7.47533ZM18.2169 7.33903C17.8166 7.53348 17.4524 7.77179 17.1298 8.04411L17.5169 8.50256C17.8012 8.26255 18.1234 8.05148 18.479 7.87874L18.2169 7.33903ZM17.1253 8.048L17.001 8.15728L17.3971 8.60796L17.5214 8.49868L17.1253 8.048ZM16.9966 8.16118C16.679 8.45152 16.4048 8.77813 16.1821 9.13213L16.69 9.45162C16.8831 9.14466 17.1222 8.85927 17.4014 8.60406L16.9966 8.16118ZM16.1372 9.31894C16.1526 9.48848 16.2272 9.64403 16.3427 9.76549L16.7774 9.35193C16.7493 9.3224 16.7372 9.29146 16.7348 9.26481L16.1372 9.31894ZM16.3427 9.76549C16.4577 9.88639 16.6078 9.96818 16.7693 10.0056L16.9046 9.42101C16.8495 9.40826 16.8061 9.38202 16.7774 9.35193L16.3427 9.76549ZM16.7682 10.0053L18.5836 10.4328L18.7211 9.84879L16.9057 9.42127L16.7682 10.0053ZM18.5833 10.4327C18.7206 10.4652 18.8646 10.4654 19.002 10.4331L18.8648 9.849C18.818 9.85998 18.7682 9.85994 18.7215 9.84887L18.5833 10.4327ZM19.002 10.4331C19.1393 10.4008 19.2684 10.3365 19.3748 10.243L18.9787 9.79231C18.9504 9.81722 18.9115 9.83801 18.8648 9.849L19.002 10.4331ZM19.3748 10.243C19.4814 10.1493 19.5624 10.0286 19.6042 9.89101L19.0301 9.71646C19.0228 9.74068 19.0068 9.7676 18.9787 9.79231L19.3748 10.243ZM19.6042 9.89101C19.6462 9.75298 19.646 9.60593 19.6037 9.46799L19.0301 9.64382C19.0374 9.66762 19.0374 9.69267 19.0301 9.71646L19.6042 9.89101ZM20.4648 6.81739C20.3217 6.90317 20.2056 7.03035 20.14 7.18648L20.6933 7.41868C20.7055 7.3896 20.7308 7.35746 20.7733 7.332L20.4648 6.81739ZM20.14 7.18648C20.0741 7.34353 20.0651 7.51694 20.1156 7.68003L20.6888 7.50276C20.6803 7.47534 20.6815 7.44685 20.6933 7.41868L20.14 7.18648ZM20.1152 7.67888L20.6017 9.27445L21.1756 9.09947L20.6892 7.50391L20.1152 7.67888ZM20.6015 9.27403C20.6433 9.41157 20.724 9.53221 20.8305 9.62599L21.227 9.17569C21.199 9.15099 21.1831 9.12409 21.1757 9.0999L20.6015 9.27403ZM20.8305 9.62599C20.9368 9.71956 21.0657 9.78399 21.2029 9.81639L21.3408 9.23244C21.2941 9.22141 21.2553 9.2006 21.227 9.17569L20.8305 9.62599ZM21.2029 9.81639C21.3401 9.84878 21.4841 9.84884 21.6213 9.81656L21.484 9.2325C21.4372 9.24349 21.3875 9.24347 21.3408 9.23244L21.2029 9.81639ZM21.6213 9.81656C21.7586 9.78428 21.8876 9.71996 21.9939 9.62649L21.5978 9.17583C21.5695 9.20072 21.5307 9.22151 21.484 9.2325L21.6213 9.81656ZM21.9939 9.6265L23.3229 8.45846L22.9268 8.00778L21.5978 9.17582L21.9939 9.6265ZM23.3218 8.45947C23.4481 8.34959 23.5383 8.20242 23.5713 8.03549L22.9828 7.91884C22.9774 7.94618 22.9612 7.97793 22.928 8.00676L23.3218 8.45947ZM23.5713 8.03549C23.6046 7.86796 23.5769 7.6968 23.4959 7.5478L22.9687 7.83433C22.9845 7.86326 22.9881 7.8921 22.9828 7.91884L23.5713 8.03549ZM23.3726 7.42585C22.9824 7.21956 22.5639 7.05967 22.1277 6.94988L21.9813 7.53173C22.3719 7.63006 22.7454 7.77293 23.0921 7.95627L23.3726 7.42585ZM22.1239 6.94895L21.9548 6.90873L21.816 7.49245L21.9851 7.53267L22.1239 6.94895ZM21.9496 6.90754C21.5127 6.81181 21.0637 6.76719 20.614 6.77474L20.6241 7.37465C21.0275 7.36788 21.4301 7.40793 21.8212 7.49364L21.9496 6.90754ZM16.4111 13.8584C16.5641 13.9229 16.7338 13.9432 16.8979 13.9183L16.8079 13.3251C16.751 13.3337 16.6932 13.3262 16.644 13.3055L16.4111 13.8584ZM16.8979 13.9183C17.062 13.8934 17.2182 13.8236 17.3431 13.7131L16.9455 13.2638C16.9123 13.2931 16.8649 13.3165 16.8079 13.3251L16.8979 13.9183ZM17.3423 13.7138L18.6723 12.5458L18.2764 12.095L16.9463 13.263L17.3423 13.7138ZM18.6724 12.5457C18.7789 12.4521 18.8598 12.3315 18.9017 12.194L18.3277 12.0192C18.3203 12.0434 18.3044 12.0704 18.2763 12.095L18.6724 12.5457ZM18.9017 12.194C18.9437 12.0561 18.9436 11.91 18.9015 11.7721L18.3277 11.9475C18.3349 11.9713 18.3349 11.9955 18.3277 12.0192L18.9017 12.194ZM18.9015 11.7721C18.8594 11.6347 18.7784 11.5142 18.6718 11.4207L18.2761 11.8717C18.3043 11.8964 18.3203 11.9233 18.3277 11.9475L18.9015 11.7721ZM18.6718 11.4207C18.5653 11.3273 18.4363 11.2631 18.299 11.231L18.1622 11.8151C18.2089 11.8261 18.2478 11.8468 18.2761 11.8717L18.6718 11.4207ZM18.2994 11.231L16.4839 10.8035L16.3464 11.3875L18.1618 11.8151L18.2994 11.231ZM16.4844 10.8036C16.323 10.7653 16.1523 10.7719 15.9944 10.8232L16.1797 11.3939C16.2322 11.3768 16.2908 11.3743 16.3458 11.3874L16.4844 10.8036ZM15.9944 10.8232C15.8365 10.8745 15.6941 10.9697 15.5913 11.102L16.0651 11.4702C16.0887 11.4398 16.1273 11.4109 16.1797 11.3939L15.9944 10.8232ZM15.5283 11.2797C15.5096 12.1528 15.7718 13.0097 16.28 13.7515L16.775 13.4124C16.3348 12.7698 16.1123 12.0352 16.1281 11.2925L15.5283 11.2797ZM25.0101 8.87465C24.857 8.81016 24.6873 8.78988 24.5232 8.81477L24.6132 9.40799C24.6702 9.39935 24.7279 9.40685 24.7771 9.42758L25.0101 8.87465ZM24.5232 8.81477C24.3591 8.83966 24.203 8.90945 24.078 9.02L24.4756 9.46933C24.5088 9.44 24.5563 9.41663 24.6132 9.40799L24.5232 8.81477ZM24.0789 9.01925L22.7489 10.1873L23.1448 10.6381L24.4748 9.47008L24.0789 9.01925ZM22.7488 10.1874C22.6422 10.281 22.5613 10.4016 22.5195 10.5391L23.0934 10.7138C23.1008 10.6896 23.1168 10.6627 23.1449 10.6381L22.7488 10.1874ZM22.5195 10.5391C22.4775 10.677 22.4775 10.8231 22.5197 10.961L23.0935 10.7856C23.0862 10.7618 23.0862 10.7376 23.0934 10.7138L22.5195 10.5391ZM22.5197 10.961C22.5617 11.0984 22.6427 11.2189 22.7494 11.3124L23.145 10.8614C23.1169 10.8367 23.1009 10.8098 23.0935 10.7856L22.5197 10.961ZM22.7494 11.3124C22.8558 11.4058 22.9848 11.47 23.1221 11.5021L23.259 10.918C23.2122 10.907 23.1734 10.8863 23.145 10.8614L22.7494 11.3124ZM23.1218 11.5021L24.9372 11.9296L25.0748 11.3456L23.2593 10.918L23.1218 11.5021ZM24.9376 11.9297C25.2881 12.0118 25.6332 11.8811 25.8288 11.6324L25.3571 11.2616C25.3079 11.3241 25.2014 11.3752 25.0745 11.3455L24.9376 11.9297ZM25.8929 11.4534C25.9117 10.5803 25.6494 9.72336 25.1411 8.98154L24.6461 9.32069C25.0864 9.96326 25.309 10.6979 25.293 11.4405L25.8929 11.4534ZM21.6756 10.4671C21.5456 10.3529 21.3933 10.264 21.2283 10.2039L21.023 10.7677C21.1212 10.8035 21.208 10.855 21.2795 10.9178L21.6756 10.4671ZM21.2283 10.2039C21.0632 10.1438 20.8874 10.1133 20.7106 10.1133V10.7133C20.8186 10.7133 20.9249 10.732 21.023 10.7677L21.2283 10.2039ZM20.7106 10.1133C20.5337 10.1133 20.3579 10.1438 20.1929 10.2039L20.3981 10.7677C20.4963 10.732 20.6025 10.7133 20.7106 10.7133V10.1133ZM20.1929 10.2039C20.0278 10.264 19.8755 10.3529 19.7456 10.4671L20.1416 10.9178C20.2131 10.855 20.3 10.8035 20.3981 10.7677L20.1929 10.2039ZM19.7456 10.4671C19.6155 10.5814 19.51 10.7192 19.4371 10.8738L19.9798 11.1296C20.016 11.0529 20.0702 10.9806 20.1416 10.9178L19.7456 10.4671ZM19.4371 10.8738C19.3642 11.0286 19.3259 11.1962 19.3259 11.3665H19.9259C19.9259 11.2865 19.9438 11.2062 19.9798 11.1296L19.4371 10.8738ZM19.3259 11.3665C19.3259 11.5369 19.3642 11.7045 19.4371 11.8593L19.9798 11.6035C19.9438 11.5269 19.9259 11.4465 19.9259 11.3665H19.3259ZM19.4371 11.8593C19.51 12.0139 19.6155 12.1517 19.7456 12.266L20.1416 11.8153C20.0702 11.7525 20.016 11.6802 19.9798 11.6035L19.4371 11.8593ZM19.7456 12.266C20.0073 12.496 20.3549 12.6198 20.7106 12.6198V12.0198C20.4909 12.0198 20.2867 11.9428 20.1416 11.8153L19.7456 12.266ZM20.7106 12.6198C21.0662 12.6198 21.4138 12.496 21.6756 12.266L21.2795 11.8153C21.1344 11.9428 20.9303 12.0198 20.7106 12.0198V12.6198ZM21.6756 12.266C21.9386 12.0348 22.0952 11.7124 22.0952 11.3665H21.4952C21.4952 11.5264 21.4233 11.6889 21.2795 11.8153L21.6756 12.266ZM22.0952 11.3665C22.0952 11.0207 21.9386 10.6983 21.6756 10.4671L21.2795 10.9178C21.4233 11.0442 21.4952 11.2067 21.4952 11.3665H22.0952ZM6.64797 11.4304C6.76692 11.4907 6.89937 11.5214 7.0324 11.5214L7.03241 10.9214C6.99082 10.9214 6.95174 10.9117 6.91947 10.8953L6.64797 11.4304ZM7.0324 11.5214C7.16544 11.5214 7.29789 11.4907 7.41684 11.4304L7.14535 10.8953C7.11308 10.9117 7.07399 10.9214 7.03241 10.9214L7.0324 11.5214ZM7.41684 11.4304C7.53589 11.37 7.63961 11.2806 7.71389 11.1676L7.21242 10.8381C7.19939 10.858 7.17753 10.879 7.14535 10.8953L7.41684 11.4304ZM7.71389 11.1676C7.78845 11.0541 7.82979 10.9218 7.8298 10.7843L7.2298 10.7843C7.2298 10.8003 7.22517 10.8187 7.21242 10.8381L7.71389 11.1676ZM7.8298 10.7843V9.27002H7.2298V10.7843H7.8298ZM7.82979 9.27148C7.83059 9.1087 7.77336 8.9542 7.67315 8.82936L7.20525 9.20496C7.22378 9.22805 7.22989 9.25031 7.2298 9.26856L7.82979 9.27148ZM7.67315 8.82936C7.5735 8.70523 7.43711 8.61702 7.287 8.5707L7.11007 9.14401C7.15431 9.15767 7.18616 9.18118 7.20525 9.20496L7.67315 8.82936ZM7.13474 8.56422C6.73184 8.65191 6.34318 8.78607 5.97884 8.96361L6.24167 9.50298C6.56206 9.34686 6.90524 9.22821 7.26234 9.15049L7.13474 8.56422ZM5.97561 8.96521L5.83635 9.03515L6.10562 9.57133L6.24489 9.50139L5.97561 8.96521ZM5.83062 9.0381C5.47136 9.22829 5.14103 9.45973 4.84848 9.72696L5.25315 10.17C5.50705 9.93803 5.79547 9.7356 6.11135 9.56838L5.83062 9.0381ZM4.7573 9.88644C4.72375 10.0452 4.74783 10.2081 4.82283 10.3506L5.35374 10.071C5.34248 10.0497 5.34037 10.0292 5.34434 10.0105L4.7573 9.88644ZM4.82283 10.3506C4.89735 10.4921 5.01628 10.603 5.1566 10.6736L5.42651 10.1378C5.38861 10.1187 5.36548 10.0933 5.35374 10.071L4.82283 10.3506ZM5.15581 10.6732L6.64797 11.4304L6.91946 10.8953L5.4273 10.1382L5.15581 10.6732ZM8.72196 9.27002V10.7843H9.32196V9.27002H8.72196ZM8.72196 10.7843C8.72196 10.9217 8.7633 11.0541 8.83787 11.1676L9.33934 10.8381C9.32659 10.8187 9.32196 10.8003 9.32196 10.7843L8.72196 10.7843ZM8.83787 11.1676C8.91215 11.2806 9.01587 11.37 9.13491 11.4304L9.40641 10.8953C9.37422 10.879 9.35237 10.858 9.33934 10.8381L8.83787 11.1676ZM9.13491 11.4304C9.25387 11.4907 9.38632 11.5214 9.51935 11.5214L9.51935 10.9214C9.47776 10.9214 9.43868 10.9117 9.40641 10.8953L9.13491 11.4304ZM9.51935 11.5214C9.65238 11.5214 9.78484 11.4907 9.90379 11.4304L9.63229 10.8953C9.60002 10.9117 9.56094 10.9214 9.51935 10.9214L9.51935 11.5214ZM9.90379 11.4304L11.396 10.6732L11.1245 10.1382L9.6323 10.8953L9.90379 11.4304ZM11.3952 10.6736C11.5355 10.603 11.6544 10.4921 11.7289 10.3506L11.198 10.071C11.1863 10.0933 11.1631 10.1187 11.1252 10.1378L11.3952 10.6736ZM11.7289 10.3506C11.8039 10.2081 11.828 10.0452 11.7945 9.88644L11.2074 10.0105C11.2114 10.0292 11.2093 10.0497 11.198 10.071L11.7289 10.3506ZM11.7032 9.72686C11.4103 9.45959 11.0796 9.22816 10.72 9.03803L10.4396 9.56845C10.7558 9.73564 11.0445 9.93807 11.2987 10.1701L11.7032 9.72686ZM10.7144 9.03515L10.5751 8.96521L10.3059 9.50139L10.4451 9.57133L10.7144 9.03515ZM10.572 8.96366C10.208 8.78612 9.81967 8.65194 9.41708 8.56423L9.28936 9.15048C9.64612 9.22821 9.98895 9.34684 10.309 9.50294L10.572 8.96366ZM9.26475 8.5707C9.11465 8.61702 8.97826 8.70523 8.87861 8.82936L9.34651 9.20496C9.3656 9.18118 9.39745 9.15767 9.44169 9.14401L9.26475 8.5707ZM8.87861 8.82936C8.7784 8.9542 8.72117 9.1087 8.72196 9.27148L9.32196 9.26856C9.32187 9.25031 9.32798 9.22805 9.34651 9.20496L8.87861 8.82936ZM4.68122 14.0803L6.17338 13.3232L5.90189 12.7881L4.40972 13.5453L4.68122 14.0803ZM6.1734 13.3232C6.29243 13.2628 6.39614 13.1734 6.47042 13.0604L5.96893 12.731C5.9559 12.7508 5.93405 12.7718 5.90187 12.7881L6.1734 13.3232ZM6.47042 13.0604C6.54498 12.9469 6.58631 12.8146 6.58631 12.6771H5.98631C5.98631 12.6931 5.98168 12.7115 5.96893 12.731L6.47042 13.0604ZM6.58631 12.6771C6.58631 12.5396 6.54498 12.4073 6.47042 12.2938L5.96893 12.6232C5.98168 12.6426 5.98631 12.6611 5.98631 12.6771H6.58631ZM6.47042 12.2938C6.39614 12.1808 6.29243 12.0914 6.1734 12.031L5.90187 12.5661C5.93405 12.5824 5.9559 12.6034 5.96893 12.6232L6.47042 12.2938ZM6.17338 12.031L4.68122 11.2739L4.40972 11.8089L5.90189 12.5661L6.17338 12.031ZM4.68195 11.2742C4.54188 11.2027 4.38313 11.1726 4.22683 11.1853L4.27528 11.7833C4.324 11.7793 4.37106 11.7892 4.40899 11.8086L4.68195 11.2742ZM4.22683 11.1853C4.07053 11.1979 3.91849 11.2532 3.79257 11.3484L4.15438 11.8271C4.18455 11.8042 4.22655 11.7872 4.27528 11.7833L4.22683 11.1853ZM3.68839 11.4943C3.43525 12.2668 3.43525 13.0874 3.68839 13.8599L4.25856 13.673C4.04519 13.022 4.04519 12.3322 4.25856 11.6812L3.68839 11.4943ZM3.79322 14.0063C4.03161 14.1855 4.37871 14.2342 4.68147 14.0802L4.40947 13.5454C4.32029 13.5907 4.21775 13.5748 4.15373 13.5266L3.79322 14.0063ZM13.0524 12.6771C13.0524 12.267 12.9864 11.87 12.8634 11.4944L12.2932 11.6811C12.3969 11.9979 12.4524 12.3318 12.4524 12.6771H13.0524ZM12.7592 11.3484C12.6333 11.2532 12.4812 11.1979 12.3249 11.1853L12.2765 11.7833C12.3252 11.7872 12.3672 11.8042 12.3974 11.8271L12.7592 11.3484ZM12.3249 11.1853C12.1686 11.1726 12.0099 11.2027 11.8698 11.2742L12.1428 11.8086C12.1807 11.7892 12.2278 11.7793 12.2765 11.7833L12.3249 11.1853ZM11.8705 11.2739L10.3784 12.031L10.6499 12.5661L12.142 11.8089L11.8705 11.2739ZM10.3784 12.031C10.2593 12.0914 10.1556 12.1808 10.0813 12.2938L10.5828 12.6232C10.5959 12.6034 10.6177 12.5824 10.6499 12.5661L10.3784 12.031ZM10.0813 12.2938C10.0068 12.4073 9.96545 12.5396 9.96545 12.6771H10.5655C10.5655 12.6611 10.5701 12.6426 10.5828 12.6232L10.0813 12.2938ZM9.96545 12.6771C9.96545 12.8146 10.0068 12.9469 10.0813 13.0604L10.5828 12.731C10.5701 12.7115 10.5655 12.6931 10.5655 12.6771H9.96545ZM10.0813 13.0604C10.1556 13.1734 10.2593 13.2628 10.3784 13.3232L10.6499 12.7881C10.6177 12.7718 10.5959 12.7508 10.5828 12.731L10.0813 13.0604ZM10.3784 13.3232L11.8705 14.0803L12.142 13.5453L10.6499 12.7881L10.3784 13.3232ZM11.8698 14.0799C12.0099 14.1515 12.1686 14.1816 12.3249 14.1689L12.2765 13.5709C12.2278 13.5748 12.1807 13.565 12.1428 13.5456L11.8698 14.0799ZM12.3249 14.1689C12.4812 14.1563 12.6333 14.101 12.7592 14.0058L12.3974 13.5271C12.3672 13.5499 12.3252 13.567 12.2765 13.5709L12.3249 14.1689ZM12.8634 13.8597C12.989 13.4757 13.0527 13.0774 13.0524 12.6768L12.4524 12.6773C12.4526 13.0137 12.3992 13.3489 12.2931 13.6732L12.8634 13.8597ZM8.90736 13.7026C9.05419 13.6292 9.18563 13.5298 9.29277 13.4083L8.84281 13.0114C8.78919 13.0722 8.72043 13.1253 8.63917 13.1659L8.90736 13.7026ZM9.29277 13.4083C9.4 13.2867 9.4808 13.1454 9.52825 12.9918L8.95498 12.8147C8.93369 12.8836 8.89633 12.9507 8.84281 13.0114L9.29277 13.4083ZM9.52825 12.9918C9.57575 12.838 9.58836 12.6767 9.56484 12.5176L8.9713 12.6054C8.9816 12.675 8.97623 12.7459 8.95498 12.8147L9.52825 12.9918ZM9.56484 12.5176C9.54134 12.3587 9.48254 12.2074 9.39382 12.0723L8.89235 12.4018C8.93483 12.4664 8.96099 12.5357 8.9713 12.6054L9.56484 12.5176ZM9.39382 12.0723C9.3052 11.9374 9.18882 11.8218 9.05319 11.7307L8.71852 12.2287C8.79132 12.2776 8.84978 12.337 8.89235 12.4018L9.39382 12.0723ZM9.05319 11.7307C8.91761 11.6396 8.76475 11.5742 8.60376 11.5367L8.46796 12.1212C8.56063 12.1427 8.64567 12.1797 8.71852 12.2287L9.05319 11.7307ZM8.60376 11.5367C8.44277 11.4993 8.27546 11.4904 8.11104 11.5101L8.18262 12.1058C8.27817 12.0943 8.37529 12.0996 8.46796 12.1212L8.60376 11.5367ZM8.11104 11.5101C7.94662 11.5299 7.78691 11.5782 7.64109 11.6533L7.9159 12.1867C7.99643 12.1452 8.08708 12.1173 8.18262 12.1058L8.11104 11.5101ZM7.64109 11.6533C7.34963 11.8035 7.12549 12.0555 7.03258 12.3643L7.60715 12.5371C7.64852 12.3996 7.75412 12.27 7.9159 12.1867L7.64109 11.6533ZM7.03258 12.3643C6.9391 12.6751 6.99076 13.0042 7.16936 13.2761L7.67083 12.9466C7.58674 12.8186 7.56634 12.6728 7.60715 12.5371L7.03258 12.3643ZM7.16936 13.2761C7.34661 13.5459 7.63072 13.7332 7.95132 13.8097L8.09058 13.2261C7.90416 13.1816 7.75628 13.0767 7.67083 12.9466L7.16936 13.2761ZM7.95132 13.8097C8.27182 13.8862 8.61453 13.8489 8.90736 13.7026L8.63917 13.1659C8.47528 13.2478 8.27711 13.2706 8.09058 13.2261L7.95132 13.8097Z" fill="white" mask="url(#path-2-inside-1_97_25090)"/>
</g>
<defs>
<clipPath id="clip0_97_25090">
<rect width="31.8328" height="27.977" fill="white" transform="translate(0.815063)"/>
</clipPath>
</defs>
</svg>
