<svg width="28" height="29" viewBox="0 0 28 29" fill="none" xmlns="http://www.w3.org/2000/svg">
<g clip-path="url(#clip0_97_25066)">
<path d="M22.0033 19.3299C23.142 19.3299 24.1149 19.6181 24.9218 20.1946C25.7274 20.7719 26.1302 21.468 26.1302 22.2828C26.1302 23.0977 25.7268 23.7937 24.9199 24.3711C24.113 24.9484 23.1402 25.2371 22.0014 25.2371C21.0428 25.2371 20.1822 25.0239 19.4197 24.5975C18.6573 24.1711 18.1946 23.6203 18.0317 22.9449H4.64034L2.86 24.9471C2.72429 25.1034 2.52688 25.1987 2.26779 25.2331C2.0087 25.2676 1.76996 25.2367 1.55158 25.1404C1.33321 25.0442 1.19934 24.903 1.14999 24.7167C1.10064 24.5304 1.14382 24.3592 1.27954 24.2029L9.37434 15.2752C7.8568 14.8894 6.44351 14.264 5.13447 13.3988C3.82543 12.5337 2.94143 11.5357 2.48247 10.4048C2.34922 10.0588 2.43188 9.74539 2.73046 9.46466C3.03026 9.18217 3.43371 9.04092 3.94079 9.04092H21.7349C22.2432 9.04092 22.6411 9.18129 22.9286 9.46201C23.2161 9.74274 23.2932 10.0561 23.1599 10.4022C22.6997 11.5525 21.8262 12.5558 20.5394 13.4121C19.2526 14.2684 17.8399 14.8894 16.3014 15.2752L19.3938 18.7843C19.0545 18.9203 18.7831 19.0434 18.5795 19.1538C18.376 19.2641 18.1471 19.416 17.8929 19.6093L14.4044 15.5957C14.2046 15.6398 13.9603 15.6619 13.6716 15.6619H12.006C11.7395 15.6619 11.5069 15.6398 11.3083 15.5957L5.83772 21.6207H18.0317C18.1946 20.9445 18.6573 20.3937 19.4197 19.9681C20.1822 19.5418 21.0428 19.3286 22.0014 19.3286M22.0014 23.9129C22.6455 23.9129 23.1865 23.7562 23.6245 23.4428C24.0624 23.1294 24.2808 22.7428 24.2796 22.2828C24.2784 21.8229 24.06 21.4362 23.6245 21.1228C23.1889 20.8095 22.6485 20.6528 22.0033 20.6528C21.358 20.6528 20.8176 20.8095 20.3821 21.1228C19.9466 21.4362 19.7276 21.8229 19.7251 22.2828C19.7226 22.7428 19.9416 23.1294 20.3821 23.4428C20.8225 23.7562 21.3611 23.9129 22.0014 23.9129ZM7.27199 3.70443C6.70075 3.19064 6.31273 2.70952 6.10792 2.26106C5.90435 1.81437 5.85376 1.30941 5.95616 0.746188C5.97961 0.64908 6.03821 0.56389 6.13198 0.490619C6.22574 0.417347 6.33987 0.381152 6.47435 0.382035C6.60266 0.382035 6.7026 0.418229 6.77416 0.490619C6.84572 0.563008 6.8815 0.645549 6.8815 0.738242C6.82598 1.23084 6.89013 1.68018 7.07397 2.08627C7.2578 2.49235 7.61189 2.91919 8.13625 3.36676C8.70872 3.88585 9.09859 4.36917 9.30587 4.81675C9.51314 5.26433 9.56249 5.76973 9.45392 6.33295C9.42307 6.43006 9.36262 6.51481 9.27255 6.5872C9.18249 6.66047 9.0696 6.6971 8.93388 6.6971C8.80557 6.6971 8.70625 6.66047 8.63593 6.5872C8.56437 6.51481 8.52859 6.43271 8.52859 6.3409C8.58287 5.8483 8.5181 5.39763 8.33427 4.9889C8.15043 4.57928 7.79634 4.15112 7.27199 3.70443ZM11.8746 3.70443C11.3021 3.19506 10.9122 2.71703 10.705 2.27033C10.4977 1.82364 10.444 1.31603 10.544 0.747512C10.5686 0.650404 10.6272 0.565215 10.7198 0.491943C10.8135 0.419553 10.9283 0.383359 11.064 0.383359C11.1923 0.383359 11.2922 0.419553 11.3638 0.491943C11.4354 0.564332 11.4705 0.646873 11.4693 0.739566C11.415 1.23217 11.4798 1.68151 11.6636 2.08759C11.8474 2.49368 12.2015 2.92051 12.7259 3.36809C13.2984 3.88187 13.6882 4.36255 13.8955 4.81013C14.1028 5.25771 14.1521 5.7684 14.0436 6.34222C14.0127 6.43933 13.9523 6.52275 13.8622 6.59249C13.7721 6.66223 13.6592 6.69754 13.5235 6.69843C13.3952 6.69843 13.2953 6.66179 13.2237 6.58852C13.1534 6.51613 13.1182 6.43403 13.1182 6.34222C13.1725 5.84962 13.109 5.39895 12.9276 4.99022C12.7487 4.5806 12.3971 4.15245 11.8727 3.70576M16.5346 3.70576C15.9621 3.19638 15.5722 2.71835 15.3649 2.27166C15.1577 1.82496 15.1052 1.31691 15.2076 0.747512C15.2298 0.650404 15.2878 0.565215 15.3816 0.491943C15.4754 0.418671 15.5901 0.382476 15.7258 0.383359C15.8541 0.383359 15.9541 0.419553 16.0256 0.491943C16.0972 0.564332 16.133 0.646873 16.133 0.739566C16.0774 1.23217 16.1416 1.68151 16.3254 2.08759C16.5093 2.49368 16.8634 2.92051 17.3877 3.36809C17.9602 3.88187 18.3501 4.36255 18.5573 4.81013C18.7646 5.25771 18.814 5.7684 18.7054 6.34222C18.6745 6.43933 18.6141 6.52275 18.524 6.59249C18.434 6.66312 18.3211 6.69843 18.1854 6.69843C18.057 6.69843 17.9577 6.66179 17.8874 6.58852C17.8158 6.51613 17.7801 6.43403 17.7801 6.34222C17.8343 5.84962 17.7714 5.39895 17.5913 4.99022C17.4112 4.5806 17.0589 4.15245 16.5346 3.70576Z" fill="#484039"/>
</g>
<defs>
<clipPath id="clip0_97_25066">
<rect width="27.79" height="27.79" fill="white" transform="translate(0.130249 0.382019)"/>
</clipPath>
</defs>
</svg>
