<svg width="32" height="32" viewBox="0 0 32 32" fill="none" xmlns="http://www.w3.org/2000/svg">
<path d="M3.40288 27.078V25.7031C4.08836 25.6184 4.63622 25.3934 5.04646 25.0282C5.45757 24.6638 6.17879 24.4816 7.21011 24.4816C8.24142 24.4816 9.00587 24.7022 9.50344 25.1433C10.001 25.5844 10.6975 25.805 11.593 25.805C12.4884 25.805 13.1845 25.5844 13.6812 25.1433C14.1779 24.7022 14.9423 24.4816 15.9745 24.4816C17.0067 24.4816 17.7796 24.7022 18.293 25.1433C18.8065 25.5844 19.5114 25.805 20.4077 25.805C21.304 25.805 21.9922 25.5844 22.4721 25.1433C22.952 24.7022 23.7077 24.4816 24.739 24.4816C25.7703 24.4816 26.4915 24.6643 26.9026 25.0295C27.3137 25.3947 27.8616 25.6193 28.5462 25.7031V27.078C27.754 26.9757 27.1285 26.7379 26.6697 26.3647C26.211 25.9916 25.5674 25.805 24.739 25.805C23.9106 25.805 23.2568 26.0255 22.7778 26.4666C22.297 26.9078 21.507 27.1283 20.4077 27.1283C19.3085 27.1283 18.5017 26.9078 17.9873 26.4666C17.4739 26.0255 16.8029 25.805 15.9745 25.805C15.1461 25.805 14.4836 26.0255 13.9869 26.4666C13.4902 26.9078 12.6918 27.1283 11.5917 27.1283C10.4915 27.1283 9.69312 26.9078 9.19643 26.4666C8.70062 26.0255 8.03851 25.805 7.21011 25.805C6.3817 25.805 5.73812 25.9916 5.27936 26.3647C4.82061 26.7379 4.19511 26.9757 3.40288 27.078ZM3.40288 21.123V19.7481C4.08836 19.6634 4.63622 19.4384 5.04646 19.0732C5.45757 18.7088 6.17879 18.5266 7.21011 18.5266C8.24142 18.5266 9.00719 18.7472 9.50741 19.1883C10.0076 19.6294 10.7028 19.85 11.593 19.85C12.4884 19.85 13.1845 19.6294 13.6812 19.1883C14.1779 18.7472 14.9423 18.5266 15.9745 18.5266C17.0067 18.5266 17.7712 18.7472 18.2679 19.1883C18.7646 19.6294 19.4606 19.85 20.3561 19.85C21.2515 19.85 21.9485 19.6294 22.447 19.1883C22.9437 18.7472 23.7077 18.5266 24.739 18.5266C25.7703 18.5266 26.4915 18.7093 26.9026 19.0745C27.3137 19.4397 27.8616 19.6643 28.5462 19.7481V21.1217C27.754 21.0202 27.1285 20.7829 26.6697 20.4097C26.211 20.0366 25.5674 19.85 24.739 19.85C23.9106 19.85 23.2604 20.0705 22.7884 20.5116C22.3164 20.9528 21.5228 21.1733 20.4077 21.1733C19.3032 21.1733 18.495 20.9528 17.9834 20.5116C17.4717 20.0705 16.8021 19.85 15.9745 19.85C15.1364 19.85 14.4752 20.0705 13.9909 20.5116C13.5065 20.9528 12.7072 21.1733 11.593 21.1733C10.4787 21.1733 9.67636 20.9528 9.18584 20.5116C8.69533 20.0705 8.03675 19.85 7.21011 19.85C6.38346 19.85 5.73988 20.0366 5.27936 20.4097C4.81884 20.7829 4.19335 21.0207 3.40288 21.123ZM10.3954 14.7803L14.6697 10.5086L12.6331 8.47196C11.9221 7.76089 11.2013 7.26112 10.4708 6.97263C9.73855 6.68414 8.8109 6.51431 7.68783 6.46315V4.63165C9.07115 4.68282 10.218 4.87735 11.1285 5.21524C12.0398 5.55402 12.9459 6.17378 13.8466 7.07453L21.5537 14.7803C21.3817 14.9214 21.2044 15.03 21.0217 15.1058C20.8391 15.1817 20.6261 15.2192 20.3826 15.2183C19.7915 15.2183 19.2092 14.9978 18.6358 14.5566C18.0623 14.1155 17.1752 13.895 15.9745 13.895C14.7738 13.895 13.8868 14.1155 13.3133 14.5566C12.7399 14.9978 12.1576 15.2183 11.5665 15.2183C11.3239 15.2183 11.1108 15.1808 10.9273 15.1058C10.7438 15.0308 10.5656 14.9223 10.3954 14.7803ZM21.8382 4.88573C22.6119 4.88573 23.2718 5.1601 23.8179 5.70885C24.3649 6.25759 24.6384 6.91661 24.6384 7.6859C24.6384 8.45873 24.3649 9.11863 23.8179 9.66561C23.271 10.2126 22.6111 10.4856 21.8382 10.4848C21.0654 10.4839 20.4051 10.2104 19.8572 9.66429C19.312 9.11907 19.0394 8.45961 19.0394 7.6859C19.0394 6.91661 19.312 6.25759 19.8572 5.70885C20.4042 5.1601 21.0645 4.88573 21.8382 4.88573Z" fill="#484039"/>
</svg>
