<svg width="29" height="23" viewBox="0 0 29 23" fill="none" xmlns="http://www.w3.org/2000/svg">
<path d="M22.441 1.22815V7.00688M6.7695 1.22815V7.00688M25.7059 2.3839V4.11752M25.7059 4.11752V5.85114M25.7059 4.11752H27.6649M3.5046 2.3839V4.11752M3.5046 4.11752V5.85114M3.5046 4.11752H1.54565M22.441 4.11752H6.7695M10.6874 7.00688V16.2529M18.5232 7.00688V16.2529M19.8291 19.7201V22.0316M9.38142 19.7201V22.0316M8.43721 19.7201H20.7746C22.3901 19.7201 23.1985 19.7201 23.5328 19.3699C24.2903 18.5771 22.8381 17.5276 22.3078 16.9995C21.711 16.4031 21.2735 16.2529 20.3907 16.2529H8.81986C7.93703 16.2529 7.50084 16.4031 6.90271 16.9995C6.37249 17.5276 4.92026 18.5771 5.67772 19.3699C6.01204 19.7201 6.82174 19.7201 8.43721 19.7201Z" stroke="#484039" stroke-width="1.5" stroke-linecap="round" stroke-linejoin="round"/>
</svg>
