<svg width="21" height="22" viewBox="0 0 21 22" fill="none" xmlns="http://www.w3.org/2000/svg">
<path fill-rule="evenodd" clip-rule="evenodd" d="M4.58216 3.0959C3.81381 3.0959 3.19095 3.71875 3.19095 4.48711V10.3285H18.7197C18.889 10.3285 19.0513 10.3957 19.171 10.5154C19.2907 10.6351 19.3579 10.7974 19.3579 10.9667C19.3579 11.1359 19.2907 11.2982 19.171 11.4179C19.0513 11.5376 18.889 11.6048 18.7197 11.6048H18.4917C18.4977 11.6431 18.5011 11.6814 18.5036 11.7205C18.507 11.7699 18.507 11.8226 18.507 11.8737V11.9069C18.507 12.226 18.507 12.4132 18.4934 12.6216C18.3726 14.5242 17.3447 16.2822 15.8548 17.4309C15.8665 17.4496 15.8773 17.4689 15.8871 17.4887L16.738 19.1905C16.7762 19.2656 16.7992 19.3475 16.8056 19.4314C16.812 19.5154 16.8017 19.5998 16.7754 19.6798C16.749 19.7598 16.707 19.8338 16.6519 19.8975C16.5969 19.9612 16.5297 20.0134 16.4543 20.051C16.379 20.0886 16.2969 20.1109 16.2129 20.1167C16.1289 20.1224 16.0445 20.1115 15.9648 20.0845C15.885 20.0575 15.8113 20.015 15.7481 19.9594C15.6848 19.9038 15.6331 19.8363 15.5961 19.7606L14.7725 18.1141C13.9212 18.5492 12.9816 18.7835 12.0258 18.7991H12.0198C11.3902 18.8229 10.7741 18.8374 10.2108 18.8374C9.64752 18.8374 9.03148 18.8229 8.40182 18.7991H8.39586C7.44001 18.7835 6.50043 18.5492 5.64918 18.1141L4.82552 19.7606C4.78848 19.8363 4.73684 19.9038 4.67357 19.9594C4.6103 20.015 4.53665 20.0575 4.45687 20.0845C4.37709 20.1115 4.29276 20.1224 4.20873 20.1167C4.1247 20.1109 4.04265 20.0886 3.96729 20.051C3.89194 20.0134 3.82478 19.9612 3.76968 19.8975C3.71458 19.8338 3.67264 19.7598 3.64627 19.6798C3.6199 19.5998 3.60962 19.5154 3.61603 19.4314C3.62244 19.3475 3.64541 19.2656 3.68362 19.1905L4.53451 17.4887C4.54429 17.4689 4.55508 17.4496 4.56685 17.4309C3.07693 16.2822 2.0482 14.5242 1.92823 12.6216C1.91595 12.3836 1.91141 12.1452 1.91461 11.9069V11.6048H1.70189C1.53264 11.6048 1.37032 11.5376 1.25064 11.4179C1.13096 11.2982 1.06372 11.1359 1.06372 10.9667C1.06372 10.7974 1.13096 10.6351 1.25064 10.5154C1.37032 10.3957 1.53264 10.3285 1.70189 10.3285H1.91461V4.48711C1.91456 3.8671 2.13048 3.26644 2.52527 2.78836C2.92005 2.31029 3.46903 1.98466 4.07786 1.86744C4.68668 1.75023 5.31732 1.84875 5.86139 2.14608C6.40545 2.4434 6.82896 2.92096 7.05911 3.49667L7.15271 3.73066C7.85103 3.55239 8.58869 3.60983 9.25101 3.89403C9.66327 4.07173 10.036 4.32976 10.3475 4.65306C10.659 4.97636 10.9029 5.35846 11.0651 5.77706C11.1257 5.93122 11.124 6.10289 11.0603 6.2558C10.9966 6.40871 10.876 6.53087 10.7239 6.59647L5.65258 8.77986C5.57409 8.81377 5.48958 8.83156 5.40408 8.83217C5.31858 8.83278 5.23382 8.81621 5.15485 8.78343C5.07588 8.75065 5.0043 8.70233 4.94436 8.64135C4.88443 8.58037 4.83735 8.50797 4.80595 8.42844C4.47155 7.57778 4.47764 6.631 4.82296 5.78472C5.0655 5.18188 5.47197 4.65898 5.99634 4.27523L5.87382 3.97061C5.77059 3.71243 5.59236 3.4911 5.36212 3.33518C5.13189 3.17927 4.86022 3.09592 4.58216 3.0959ZM3.4743 11.6048H3.38921C3.33526 11.6083 3.28468 11.6323 3.24783 11.6718C3.21097 11.7113 3.19062 11.7635 3.19095 11.8175V11.8882C3.19095 12.2302 3.19095 12.3766 3.20201 12.5408C3.35943 15.0271 5.49517 17.2445 7.97297 17.4956C8.13889 17.5126 8.23079 17.5151 8.44947 17.5236C9.06892 17.5466 9.6688 17.5611 10.2108 17.5611C10.7528 17.5611 11.3527 17.5466 11.9722 17.5236C12.1908 17.5151 12.2827 17.5117 12.4487 17.4947C14.9265 17.2445 17.0622 15.0271 17.2205 12.5408C17.2307 12.3766 17.2307 12.2302 17.2307 11.8882V11.8039C17.2307 11.8022 17.2307 11.8022 17.2307 11.8039C17.2273 11.7523 17.2052 11.7037 17.1685 11.6672C17.1319 11.6308 17.0832 11.6089 17.0316 11.6057C17.0324 11.6057 17.0333 11.6057 17.0316 11.6057H17.018L16.9482 11.6048H3.4743ZM8.74983 5.06826C8.48297 4.95383 8.19447 4.8986 7.9042 4.90638C7.61394 4.91417 7.32882 4.98478 7.06847 5.11336C6.58346 5.35239 6.20444 5.76294 6.00485 6.26547C5.87036 6.59584 5.81499 6.95308 5.84318 7.30867L9.57009 5.70388C9.35502 5.42551 9.07237 5.20671 8.74898 5.06826" fill="#F3F4F4"/>
</svg>
