<svg width="18" height="17" viewBox="0 0 18 17" fill="none" xmlns="http://www.w3.org/2000/svg">
<g clip-path="url(#clip0_2020_20895)">
<path d="M2.28 13.26L2.8164 13.5139L2.982 13.1999L2.76 12.92L2.28 13.26ZM3.96 14.8467L4.32 14.3933L4.0236 14.1837L3.6912 14.3401L3.96 14.8467ZM0.6 16.4333L0.0636 16.1795C0.00742498 16.2858 -0.0119603 16.406 0.00818404 16.5233C0.0283284 16.6406 0.0869835 16.7489 0.175859 16.8329C0.264735 16.917 0.379336 16.9726 0.503465 16.9918C0.627595 17.011 0.754974 16.9928 0.8676 16.9399L0.6 16.4333ZM5.4 5.1L5.0676 4.62853C4.98534 4.68023 4.91787 4.75032 4.87119 4.83257C4.8245 4.91482 4.80005 5.00668 4.8 5.1H5.4ZM12.6 11.9V12.4667C12.6988 12.4666 12.7961 12.4435 12.8832 12.3994C12.9703 12.3553 13.0445 12.2916 13.0992 12.2139L12.6 11.9ZM0 8.5C0 10.4131 0.6696 12.1799 1.8 13.6L2.76 12.92C1.74505 11.646 1.19739 10.0943 1.2 8.5H0ZM9 0C6.61305 0 4.32387 0.895533 2.63604 2.48959C0.948212 4.08365 0 6.24566 0 8.5H1.2C1.2 6.54624 2.02178 4.6725 3.48457 3.29098C4.94735 1.90946 6.93131 1.13333 9 1.13333V0ZM18 8.5C18 6.24566 17.0518 4.08365 15.364 2.48959C13.6761 0.895533 11.3869 0 9 0V1.13333C10.0243 1.13333 11.0386 1.32388 11.9849 1.69409C12.9313 2.0643 13.7911 2.60692 14.5154 3.29098C15.2397 3.97504 15.8143 4.78713 16.2063 5.6809C16.5982 6.57466 16.8 7.5326 16.8 8.5H18ZM9 17C11.3869 17 13.6761 16.1045 15.364 14.5104C17.0518 12.9163 18 10.7543 18 8.5H16.8C16.8 9.4674 16.5982 10.4253 16.2063 11.3191C15.8143 12.2129 15.2397 13.025 14.5154 13.709C13.7911 14.3931 12.9313 14.9357 11.9849 15.3059C11.0386 15.6761 10.0243 15.8667 9 15.8667V17ZM3.6 15.3C5.15664 16.4057 7.05225 17.0025 9 17V15.8667C7.31188 15.8692 5.66888 15.352 4.32 14.3933L3.6 15.3ZM0.8676 16.9399L4.2276 15.3533L3.6912 14.3401L0.33 15.9267L0.8676 16.9399ZM1.7424 13.0073L0.0624 16.1806L1.1352 16.6872L2.8164 13.5139L1.7424 13.0073ZM4.8 5.1V6.23333H6V5.1H4.8ZM11.4 12.4667H12.6V11.3333H11.4V12.4667ZM4.8 6.23333C4.8 7.88652 5.49536 9.47199 6.7331 10.641C7.97084 11.8099 9.64957 12.4667 11.4 12.4667V11.3333C9.96783 11.3333 8.59432 10.796 7.58162 9.83958C6.56893 8.88314 6 7.58594 6 6.23333H4.8ZM5.7324 5.57147L5.9892 5.41053L5.3232 4.4676L5.0676 4.62853L5.7324 5.57147ZM6.9132 5.78907L7.0812 6.73653L8.2644 6.55067L8.0964 5.60207L6.9132 5.78907ZM6.822 7.30207L5.6676 8.02853L6.3324 8.97147L7.4868 8.245L6.822 7.30207ZM7.0812 6.73653C7.10037 6.84437 7.0861 6.95514 7.04011 7.05549C6.99412 7.15583 6.91837 7.24147 6.822 7.30207L7.4868 8.245C7.7755 8.06337 8.00247 7.80683 8.14043 7.50624C8.27838 7.20565 8.32143 6.87382 8.2644 6.55067L7.0812 6.73653ZM5.9892 5.41053C6.07258 5.35818 6.1685 5.32636 6.26822 5.31798C6.36795 5.3096 6.46831 5.32492 6.56016 5.36255C6.65202 5.40018 6.73244 5.45892 6.7941 5.53342C6.85576 5.60791 6.89671 5.6958 6.9132 5.78907L8.0964 5.60207C8.04684 5.32219 7.92389 5.05847 7.73876 4.83498C7.55362 4.61148 7.31219 4.4353 7.03649 4.32252C6.76078 4.20973 6.45956 4.16392 6.16031 4.18926C5.86105 4.2146 5.57327 4.31029 5.3232 4.4676L5.9892 5.41053ZM13.0992 12.2139L13.2696 11.9725L12.2712 11.3435L12.1008 11.5861L13.0992 12.2139ZM12.0672 9.3534L11.064 9.19473L10.8672 10.3133L11.8704 10.4709L12.0672 9.3534ZM9.27 9.92913L8.5008 11.0194L9.4992 11.6473L10.2684 10.557L9.27 9.92913ZM11.064 9.19473C10.7218 9.14087 10.3705 9.18153 10.0522 9.31182C9.73394 9.44211 9.46231 9.65648 9.27 9.92913L10.2684 10.557C10.3326 10.466 10.4232 10.3944 10.5295 10.351C10.6357 10.3076 10.753 10.2941 10.8672 10.3122L11.064 9.19473ZM13.2696 11.9725C13.4362 11.7364 13.5375 11.4646 13.5643 11.1819C13.5911 10.8993 13.5426 10.6148 13.4232 10.3544C13.3038 10.094 13.1173 9.86602 12.8806 9.69118C12.644 9.51633 12.3647 9.40021 12.0684 9.3534L11.8704 10.4709C11.9692 10.4864 12.0622 10.5251 12.1411 10.5834C12.22 10.6416 12.2822 10.7175 12.322 10.8043C12.3618 10.891 12.3781 10.9858 12.3692 11.08C12.3603 11.1742 12.3266 11.2648 12.2712 11.3435L13.2696 11.9725Z" fill="#484039"/>
</g>
<defs>
<clipPath id="clip0_2020_20895">
<rect width="18" height="17" fill="white"/>
</clipPath>
</defs>
</svg>
