<svg width="19" height="17" viewBox="0 0 19 17" fill="none" xmlns="http://www.w3.org/2000/svg">
<path d="M17.7198 13.2677H0.701904M17.7198 16.2459V11.9914C17.7198 10.3866 17.7198 9.58508 17.2211 9.08646C16.7225 8.58783 15.921 8.58783 14.3162 8.58783M14.3162 8.58783H4.10547M14.3162 8.58783V7.06729C14.3162 6.74395 14.2677 6.63504 14.0184 6.5074C13.4993 6.24192 12.8688 6.03516 12.189 6.03516C11.5091 6.03516 10.8786 6.24192 10.3595 6.5074C10.1102 6.63504 10.0617 6.74395 10.0617 7.06729V8.58783M4.10547 8.58783C2.50069 8.58783 1.69915 8.58783 1.20053 9.08646C0.701904 9.58508 0.701904 10.3866 0.701904 11.9914V16.2459M4.10547 8.58783V7.06729C4.10547 6.74395 4.15398 6.63504 4.40329 6.5074C4.92233 6.24192 5.55284 6.03516 6.23271 6.03516C6.91257 6.03516 7.54308 6.24192 8.06212 6.5074C8.31144 6.63504 8.35994 6.74395 8.35994 7.06729V8.58783" stroke="#F3F4F4" stroke-linecap="round" stroke-linejoin="round"/>
<path d="M16.8688 8.58772V4.63958C16.8688 4.05161 16.8688 3.7572 16.7054 3.47981C16.5421 3.20242 16.3089 3.05777 15.8426 2.77017C13.9647 1.6104 11.6784 0.929688 9.21077 0.929688C6.74318 0.929688 4.45683 1.6104 2.57891 2.77017C2.11262 3.05777 1.87948 3.20157 1.71611 3.47981C1.55273 3.75805 1.55273 4.05161 1.55273 4.63958V8.58772" stroke="#F3F4F4" stroke-linecap="round" stroke-linejoin="round"/>
</svg>
