<svg width="24" height="21" viewBox="0 0 24 21" fill="none" xmlns="http://www.w3.org/2000/svg">
<path d="M5 15.5414V5.35294C5 4.62349 5.20107 4.0371 5.60321 3.59376C6.00536 3.15043 6.54964 2.81067 7.23607 2.57447C7.9225 2.33827 8.72071 2.18404 9.63071 2.11176C10.5407 2.03949 11.4971 2.00224 12.5 2C13.5414 2 14.5157 2.03688 15.4229 2.11065C16.33 2.18441 17.1239 2.33939 17.8046 2.57559C18.4854 2.81178 19.0214 3.15118 19.4129 3.59376C19.8043 4.03635 20 4.62275 20 5.35294V15.5414C20 16.4393 19.7 17.2011 19.1 17.827C18.5007 18.4521 17.7707 18.7647 16.91 18.7647L18.5171 20.4412V21H17.6096L15.4668 18.7647H9.53321L7.39036 21H6.48393V20.4412L8.09107 18.7647C7.22964 18.7647 6.49929 18.4518 5.9 17.8259C5.3 17.2015 5 16.44 5 15.5414ZM12.5 3.11765C10.4007 3.11765 8.8725 3.26294 7.91536 3.55353C6.95821 3.84337 6.38071 4.27143 6.18286 4.83771H18.8418C18.6561 4.26249 18.0836 3.8322 17.1243 3.54682C16.165 3.26071 14.6236 3.11765 12.5 3.11765ZM6.07143 10.9412H11.9643V5.95535H6.07143V10.9412ZM16.91 12.0588H6.07143H18.9286H16.91ZM13.0357 10.9412H18.9286V5.95535H13.0357V10.9412ZM8.75 16.1002C9.09071 16.1002 9.375 15.981 9.60286 15.7426C9.83071 15.5042 9.945 15.2076 9.94571 14.8529C9.94643 14.4983 9.83214 14.2017 9.60286 13.9633C9.37357 13.7249 9.08929 13.6056 8.75 13.6056C8.41071 13.6056 8.12643 13.7249 7.89714 13.9633C7.66786 14.2017 7.55357 14.4983 7.55429 14.8529C7.555 15.2076 7.66929 15.5042 7.89714 15.7426C8.125 15.981 8.40929 16.1002 8.75 16.1002ZM16.25 16.1002C16.5907 16.1002 16.875 15.981 17.1029 15.7426C17.3307 15.5042 17.445 15.2076 17.4457 14.8529C17.4464 14.4983 17.3321 14.2017 17.1029 13.9633C16.8736 13.7249 16.5893 13.6056 16.25 13.6056C15.9107 13.6056 15.6264 13.7249 15.3971 13.9633C15.1679 14.2017 15.0536 14.4983 15.0543 14.8529C15.055 15.2076 15.1693 15.5042 15.3971 15.7426C15.625 15.981 15.9093 16.1002 16.25 16.1002ZM8.09107 17.6471H16.9089C17.4696 17.6471 17.9464 17.4422 18.3393 17.0324C18.7321 16.6226 18.9286 16.1252 18.9286 15.5403V12.0588H6.07143V15.5414C6.07143 16.1256 6.26786 16.6226 6.66071 17.0324C7.05357 17.4422 7.53036 17.6471 8.09107 17.6471ZM12.5 4.83771H18.8418H6.18286H12.5Z" fill="#484039"/>
</svg>
