<svg width="24" height="21" viewBox="0 0 24 21" fill="none" xmlns="http://www.w3.org/2000/svg">
<g clip-path="url(#clip0_137_18377)">
<path d="M23.5556 20.0456H19.5556V16.228H22.6667C22.7346 16.2281 22.8016 16.2116 22.8626 16.1796C22.9236 16.1476 22.9769 16.101 23.0186 16.0434C23.0602 15.9858 23.089 15.9187 23.1027 15.8473C23.1164 15.7759 23.1148 15.7021 23.0978 15.6315L19.5422 0.361189C19.5181 0.258006 19.4626 0.166421 19.3845 0.100982C19.3064 0.0355424 19.2102 0 19.1111 0C19.012 0 18.9158 0.0355424 18.8377 0.100982C18.7596 0.166421 18.7041 0.258006 18.68 0.361189L15.1244 15.6315C15.1075 15.7021 15.1058 15.7759 15.1195 15.8473C15.1332 15.9187 15.162 15.9858 15.2037 16.0434C15.2453 16.101 15.2986 16.1476 15.3596 16.1796C15.4206 16.2116 15.4877 16.2281 15.5556 16.228H18.6667V20.0456H10.6667V17.1824H12C12.1179 17.1824 12.2309 17.1321 12.3143 17.0427C12.3976 16.9532 12.4444 16.8318 12.4444 16.7052C12.4444 16.5787 12.3976 16.4573 12.3143 16.3678C12.2309 16.2783 12.1179 16.228 12 16.228H10.6667V13.3648H12C12.1179 13.3648 12.2309 13.3146 12.3143 13.2251C12.3976 13.1356 12.4444 13.0142 12.4444 12.8876C12.4444 12.7611 12.3976 12.6397 12.3143 12.5502C12.2309 12.4607 12.1179 12.4104 12 12.4104H2.22222C2.10435 12.4104 1.9913 12.4607 1.90795 12.5502C1.8246 12.6397 1.77778 12.7611 1.77778 12.8876C1.77778 13.0142 1.8246 13.1356 1.90795 13.2251C1.9913 13.3146 2.10435 13.3648 2.22222 13.3648H3.55556V16.228H2.22222C2.10435 16.228 1.9913 16.2783 1.90795 16.3678C1.8246 16.4573 1.77778 16.5787 1.77778 16.7052C1.77778 16.8318 1.8246 16.9532 1.90795 17.0427C1.9913 17.1321 2.10435 17.1824 2.22222 17.1824H3.55556V20.0456H0.444444C0.32657 20.0456 0.213524 20.0959 0.130175 20.1854C0.0468253 20.2749 0 20.3962 0 20.5228C0 20.6494 0.0468253 20.7707 0.130175 20.8602C0.213524 20.9497 0.32657 21 0.444444 21H23.5556C23.6734 21 23.7865 20.9497 23.8698 20.8602C23.9532 20.7707 24 20.6494 24 20.5228C24 20.3962 23.9532 20.2749 23.8698 20.1854C23.7865 20.0959 23.6734 20.0456 23.5556 20.0456ZM19.1111 2.44774L22.0978 15.2736H16.1244L19.1111 2.44774ZM4.44444 13.3648H9.77778V16.228H4.44444V13.3648ZM4.44444 17.1824H9.77778V20.0456H4.44444V17.1824ZM10.6667 7.63846C11.1941 7.63846 11.7097 7.47053 12.1482 7.15592C12.5867 6.84131 12.9285 6.39414 13.1303 5.87096C13.3322 5.34778 13.385 4.77209 13.2821 4.21669C13.1792 3.66129 12.9252 3.15111 12.5523 2.75069C12.1793 2.35027 11.7042 2.07757 11.1869 1.9671C10.6696 1.85662 10.1334 1.91332 9.64618 2.13003C9.15891 2.34674 8.74243 2.71372 8.44941 3.18457C8.1564 3.65542 8 4.20898 8 4.77527C8 5.53463 8.28095 6.2629 8.78105 6.79985C9.28115 7.3368 9.95942 7.63846 10.6667 7.63846ZM10.6667 2.86648C11.0183 2.86648 11.362 2.97843 11.6543 3.18817C11.9467 3.39791 12.1746 3.69602 12.3091 4.04481C12.4437 4.39359 12.4789 4.77739 12.4103 5.14766C12.3417 5.51793 12.1724 5.85804 11.9237 6.12499C11.6751 6.39194 11.3583 6.57373 11.0135 6.64739C10.6686 6.72104 10.3112 6.68324 9.98634 6.53876C9.66149 6.39429 9.38384 6.14964 9.1885 5.83574C8.99315 5.52184 8.88889 5.15279 8.88889 4.77527C8.88889 4.26903 9.07619 3.78352 9.40959 3.42555C9.74299 3.06758 10.1952 2.86648 10.6667 2.86648Z" fill="#484039"/>
</g>
<defs>
<clipPath id="clip0_137_18377">
<rect width="24" height="21" fill="white"/>
</clipPath>
</defs>
</svg>
