<svg width="20" height="20" viewBox="0 0 20 20" fill="none" xmlns="http://www.w3.org/2000/svg">
<path d="M5.83301 7.5L9.80801 3.94583C10.888 2.98167 11.4272 2.5 12.083 2.5C12.7388 2.5 13.2788 2.98167 14.358 3.94583L18.333 7.5M7.08301 6.66667V16.6667M17.083 16.6667V6.66667" stroke="#484039" stroke-linecap="round" stroke-linejoin="round"/>
<path d="M2.9165 11.6668C3.60686 11.6668 4.1665 10.9206 4.1665 10.0002C4.1665 9.07969 3.60686 8.3335 2.9165 8.3335C2.22615 8.3335 1.6665 9.07969 1.6665 10.0002C1.6665 10.9206 2.22615 11.6668 2.9165 11.6668Z" stroke="#484039" stroke-linecap="round" stroke-linejoin="round"/>
<path d="M2.9165 11.6665V16.6665M1.6665 16.6665H18.3332M9.99984 16.6665V13.3332C9.99984 12.5473 9.99984 12.1548 10.244 11.9107C10.4882 11.6665 10.8807 11.6665 11.6665 11.6665H12.4998C13.2857 11.6665 13.6782 11.6665 13.9223 11.9107C14.1665 12.1548 14.1665 12.5473 14.1665 13.3332V16.6665M11.2498 9.1665H12.9165M11.2498 6.6665H12.9165" stroke="#484039" stroke-linecap="round" stroke-linejoin="round"/>
</svg>
