<svg width="24" height="21" viewBox="0 0 24 21" fill="none" xmlns="http://www.w3.org/2000/svg">
<path d="M15.2996 10.5875V11.661C15.2996 14.697 15.2996 16.216 16.2665 17.1586C17.2323 18.1022 18.7888 18.1022 21.8996 18.1022M21.5597 15.9551V20.2493M8.69954 8.25791L8.10884 8.32125C7.22443 8.41787 6.78223 8.4651 6.43023 8.4286C4.71202 8.2461 3.35682 6.75926 3.20832 4.89239C3.17752 4.51021 3.22702 4.03142 3.32492 3.07275M13.8597 4.14629H13.8707M17.4996 4.14629H22.4496" stroke="#484039" stroke-width="1.5" stroke-linecap="round" stroke-linejoin="round"/>
<path d="M1.27052 4.38753C1.02632 3.42458 0.904223 2.94363 1.09012 2.58507C1.15283 2.46338 1.23869 2.35445 1.34312 2.26409C1.65223 2 2.15493 2 3.16363 2H17.0105C20.3182 2 23 4.64303 23 7.90442C23 11.1658 20.3182 13.8088 17.0094 13.8088H11.7855C10.8879 13.8088 10.4391 13.8088 10.0541 13.6586C9.75673 13.5421 9.48906 13.3637 9.26975 13.1357C8.98485 12.8384 8.81875 12.4272 8.48545 11.607L7.89365 10.1503C7.55265 9.30753 7.38105 8.8867 7.06534 8.57431C6.74854 8.26298 6.32174 8.09444 5.46704 7.75842L3.60583 7.02413C2.80613 6.70851 2.40683 6.55177 2.10653 6.27266C2.00136 6.1754 1.9063 6.06824 1.82273 5.95274C1.58402 5.6221 1.47952 5.21093 1.27052 4.38753Z" stroke="#484039" stroke-width="1.5" stroke-linecap="round" stroke-linejoin="round"/>
</svg>
