<svg width="20" height="19" viewBox="0 0 20 19" fill="none" xmlns="http://www.w3.org/2000/svg">
<path d="M10 0C8.02219 0 6.08879 0.557165 4.4443 1.60104C2.79981 2.64491 1.51809 4.12861 0.761209 5.86451C0.00433284 7.6004 -0.1937 9.51054 0.192152 11.3534C0.578004 13.1962 1.53041 14.8889 2.92894 16.2175C4.32746 17.5461 6.10929 18.4509 8.0491 18.8175C9.98891 19.184 11.9996 18.9959 13.8268 18.2769C15.6541 17.5578 17.2159 16.3402 18.3147 14.7779C19.4135 13.2156 20 11.3789 20 9.5C19.9972 6.98126 18.9427 4.56644 17.068 2.78542C15.1932 1.0044 12.6513 0.00265983 10 0ZM10 17.5385C8.32647 17.5385 6.69052 17.067 5.29902 16.1837C3.90753 15.3005 2.823 14.045 2.18256 12.5762C1.54213 11.1073 1.37456 9.49108 1.70105 7.93177C2.02754 6.37246 2.83343 4.94015 4.01679 3.81595C5.20016 2.69175 6.70786 1.92616 8.34924 1.61599C9.99062 1.30583 11.6919 1.46502 13.2381 2.07343C14.7842 2.68184 16.1057 3.71215 17.0355 5.03407C17.9653 6.35599 18.4615 7.91014 18.4615 9.5C18.459 11.6312 17.5667 13.6744 15.9804 15.1814C14.3941 16.6884 12.2434 17.536 10 17.5385ZM11.5385 13.8846C11.5385 14.0784 11.4574 14.2643 11.3132 14.4013C11.1689 14.5384 10.9732 14.6154 10.7692 14.6154C10.3612 14.6154 9.96989 14.4614 9.68138 14.1873C9.39286 13.9132 9.23077 13.5415 9.23077 13.1538V9.5C9.02676 9.5 8.8311 9.42301 8.68684 9.28596C8.54259 9.14892 8.46154 8.96304 8.46154 8.76923C8.46154 8.57542 8.54259 8.38954 8.68684 8.2525C8.8311 8.11545 9.02676 8.03846 9.23077 8.03846C9.6388 8.03846 10.0301 8.19244 10.3186 8.46653C10.6071 8.74063 10.7692 9.11237 10.7692 9.5V13.1538C10.9732 13.1538 11.1689 13.2308 11.3132 13.3679C11.4574 13.5049 11.5385 13.6908 11.5385 13.8846ZM8.46154 5.48077C8.46154 5.26397 8.52921 5.05204 8.656 4.87178C8.78279 4.69152 8.96299 4.55102 9.17383 4.46805C9.38467 4.38509 9.61667 4.36338 9.84049 4.40568C10.0643 4.44797 10.2699 4.55237 10.4313 4.70567C10.5926 4.85897 10.7025 5.05429 10.7471 5.26692C10.7916 5.47955 10.7687 5.69995 10.6814 5.90025C10.5941 6.10054 10.4462 6.27174 10.2564 6.39219C10.0667 6.51263 9.8436 6.57692 9.61539 6.57692C9.30937 6.57692 9.01588 6.46143 8.79949 6.25587C8.58311 6.0503 8.46154 5.77149 8.46154 5.48077Z" fill="#484039"/>
</svg>
