<svg width="19" height="19" viewBox="0 0 19 19" fill="none" xmlns="http://www.w3.org/2000/svg">
<path fill-rule="evenodd" clip-rule="evenodd" d="M9.5 0C6.98044 0 4.56408 1.00089 2.78249 2.78249C1.00089 4.56408 0 6.98044 0 9.5C0 12.0196 1.00089 14.4359 2.78249 16.2175C4.56408 17.9991 6.98044 19 9.5 19C12.0196 19 14.4359 17.9991 16.2175 16.2175C17.9991 14.4359 19 12.0196 19 9.5C19 6.98044 17.9991 4.56408 16.2175 2.78249C14.4359 1.00089 12.0196 0 9.5 0ZM1.36268 9.5C1.36268 7.34185 2.22 5.27209 3.74604 3.74604C5.27209 2.22 7.34185 1.36268 9.5 1.36268C11.6582 1.36268 13.7279 2.22 15.254 3.74604C16.78 5.27209 17.6373 7.34185 17.6373 9.5C17.6373 11.6582 16.78 13.7279 15.254 15.254C13.7279 16.78 11.6582 17.6373 9.5 17.6373C7.34185 17.6373 5.27209 16.78 3.74604 15.254C2.22 13.7279 1.36268 11.6582 1.36268 9.5ZM10.2172 5.19681C10.2172 5.0066 10.1416 4.82418 10.0071 4.68968C9.87263 4.55518 9.69021 4.47962 9.5 4.47962C9.30979 4.47962 9.12737 4.55518 8.99287 4.68968C8.85836 4.82418 8.7828 5.0066 8.7828 5.19681V9.5C8.78263 9.59425 8.80104 9.6876 8.83698 9.77473C8.87291 9.86186 8.92567 9.94105 8.99222 10.0078L11.861 12.8766C11.9957 13.0112 12.1783 13.0869 12.3688 13.0869C12.5592 13.0869 12.7419 13.0112 12.8766 12.8766C13.0112 12.7419 13.0869 12.5592 13.0869 12.3688C13.0869 12.1783 13.0112 11.9957 12.8766 11.861L10.2172 9.20308V5.19681Z" fill="#484039"/>
</svg>
