<svg width="20" height="20" viewBox="0 0 20 20" fill="none" xmlns="http://www.w3.org/2000/svg">
<g clip-path="url(#clip0_116_18132)">
<path d="M3.74984 11.25C3.92562 11.25 4.08838 11.2826 4.23812 11.3477C4.38786 11.4128 4.51807 11.5007 4.62874 11.6113C4.73942 11.722 4.83057 11.8555 4.90218 12.0117C4.9738 12.168 5.00635 12.3307 4.99984 12.5C4.99984 12.6758 4.96729 12.8385 4.90218 12.9883C4.83708 13.138 4.74919 13.2682 4.63851 13.3789C4.52783 13.4896 4.39437 13.5807 4.23812 13.6523C4.08187 13.724 3.91911 13.7565 3.74984 13.75C3.57406 13.75 3.4113 13.7174 3.26156 13.6523C3.11182 13.5872 2.98161 13.4993 2.87093 13.3887C2.76025 13.278 2.66911 13.1445 2.59749 12.9883C2.52588 12.832 2.49333 12.6693 2.49984 12.5C2.49984 12.3242 2.53239 12.1615 2.59749 12.0117C2.6626 11.862 2.75049 11.7318 2.86117 11.6211C2.97184 11.5104 3.10531 11.4193 3.26156 11.3477C3.41781 11.276 3.58057 11.2435 3.74984 11.25ZM16.2498 11.25C16.4256 11.25 16.5884 11.2826 16.7381 11.3477C16.8879 11.4128 17.0181 11.5007 17.1287 11.6113C17.2394 11.722 17.3306 11.8555 17.4022 12.0117C17.4738 12.168 17.5063 12.3307 17.4998 12.5C17.4998 12.6758 17.4673 12.8385 17.4022 12.9883C17.3371 13.138 17.2492 13.2682 17.1385 13.3789C17.0278 13.4896 16.8944 13.5807 16.7381 13.6523C16.5819 13.724 16.4191 13.7565 16.2498 13.75C16.0741 13.75 15.9113 13.7174 15.7616 13.6523C15.6118 13.5872 15.4816 13.4993 15.3709 13.3887C15.2603 13.278 15.1691 13.1445 15.0975 12.9883C15.0259 12.832 14.9933 12.6693 14.9998 12.5C14.9998 12.3242 15.0324 12.1615 15.0975 12.0117C15.1626 11.862 15.2505 11.7318 15.3612 11.6211C15.4718 11.5104 15.6053 11.4193 15.7616 11.3477C15.9178 11.276 16.0806 11.2435 16.2498 11.25ZM19.6385 8.75L18.994 9.38477C19.007 9.41732 19.0396 9.51497 19.0916 9.67773C19.1437 9.84049 19.2056 10.0326 19.2772 10.2539C19.3488 10.4753 19.4302 10.7129 19.5213 10.9668C19.6125 11.2207 19.6906 11.4518 19.7557 11.6602C19.8208 11.8685 19.8794 12.0443 19.9315 12.1875C19.9836 12.3307 20.0063 12.4023 19.9998 12.4023V18.75C19.9998 18.9258 19.9673 19.0885 19.9022 19.2383C19.8371 19.388 19.7492 19.5182 19.6385 19.6289C19.5278 19.7396 19.3944 19.8307 19.2381 19.9023C19.0819 19.974 18.9191 20.0065 18.7498 20H17.4998C17.3241 20 17.1613 19.9674 17.0116 19.9023C16.8618 19.8372 16.7316 19.7493 16.6209 19.6387C16.5103 19.528 16.4191 19.3945 16.3475 19.2383C16.2759 19.082 16.2433 18.9193 16.2498 18.75H3.74984C3.74984 18.9258 3.71729 19.0885 3.65218 19.2383C3.58708 19.388 3.49919 19.5182 3.38851 19.6289C3.27783 19.7396 3.14437 19.8307 2.98812 19.9023C2.83187 19.974 2.66911 20.0065 2.49984 20H1.24984C1.07406 20 0.911296 19.9674 0.761556 19.9023C0.611816 19.8372 0.481608 19.7493 0.370931 19.6387C0.260254 19.528 0.169108 19.3945 0.0974935 19.2383C0.0258789 19.082 -0.00667318 18.9193 -0.00016276 18.75V12.4023L0.0681966 12.1973L0.243978 11.6699L0.478353 10.9668C0.562988 10.7129 0.641113 10.4753 0.712728 10.2539C0.784342 10.0326 0.849447 9.84049 0.90804 9.67773C0.966634 9.51497 0.999186 9.41732 1.0057 9.38477L0.361165 8.75H-0.00016276V7.5H0.888509L1.44515 8.06641L2.16781 5.88867C2.27197 5.56966 2.42171 5.27995 2.61702 5.01953C2.81234 4.75911 3.04346 4.53451 3.31038 4.3457C3.57731 4.1569 3.86051 4.01042 4.15999 3.90625C4.45947 3.80208 4.78499 3.75 5.13656 3.75H14.8631C15.2017 3.75 15.5239 3.80208 15.8299 3.90625C16.1359 4.01042 16.4224 4.15365 16.6893 4.33594C16.9562 4.51823 17.1841 4.74284 17.3729 5.00977C17.5617 5.27669 17.7147 5.56966 17.8319 5.88867L18.5545 8.06641L19.1112 7.5H19.9998V8.75H19.6385ZM5.13656 5C4.7264 5 4.36182 5.11719 4.04281 5.35156C3.7238 5.58594 3.49593 5.89518 3.35921 6.2793L2.52913 8.75H17.4705L16.6405 6.2793C16.5103 5.89518 16.2856 5.58594 15.9666 5.35156C15.6476 5.11719 15.2798 5 14.8631 5H5.13656ZM13.7498 17.0215L12.7342 15H7.26546L6.24984 17.0215V17.5H13.7498V17.0215ZM18.7498 17.5V12.5977L18.6912 12.4219C18.6522 12.3047 18.6034 12.1517 18.5448 11.9629C18.4862 11.7741 18.4178 11.5755 18.3397 11.3672C18.2616 11.1589 18.1932 10.9538 18.1346 10.752C18.076 10.5501 18.0207 10.3841 17.9686 10.2539C17.9165 10.1237 17.8872 10.0391 17.8807 10H2.11898C2.10596 10.0326 2.07666 10.1172 2.03109 10.2539C1.98551 10.3906 1.93018 10.5534 1.86507 10.7422C1.79997 10.931 1.73161 11.1361 1.65999 11.3574C1.58838 11.5788 1.52327 11.7806 1.46468 11.9629C1.40609 12.1452 1.354 12.2949 1.30843 12.4121C1.26286 12.5293 1.24333 12.5911 1.24984 12.5977V17.5H4.99984V16.7285L6.48421 13.75H13.5155L14.9998 16.7285V17.5H18.7498Z" fill="#484039"/>
</g>
<defs>
<clipPath id="clip0_116_18132">
<rect width="20" height="20" fill="white"/>
</clipPath>
</defs>
</svg>
