<?xml version="1.0" encoding="UTF-8"?>
<svg version="1.1" xmlns="http://www.w3.org/2000/svg" width="100" height="100">
<path d="M0 0 C9.37530269 7.39576664 16.06827871 16.20753348 18.71484375 28.125 C20.46200081 43.51568692 18.23159654 55.78496128 9.34765625 68.67578125 C2.26941233 77.34027011 -8.69186192 84.70440048 -19.9375 86.1875 C-36.71476405 87.50284949 -51.1605937 85.3117178 -64.3828125 74.1171875 C-73.3368453 65.63597491 -79.14674833 54.72837262 -80.17578125 42.3125 C-80.51408819 28.06799715 -76.14545881 15.50876636 -66.4375 5.0625 C-48.24065962 -12.37387541 -20.58689065 -14.1430265 0 0 Z " fill="#F7F7F7" transform="translate(79.9375,11.8125)"/>
<path d="M0 0 C2.3359375 2.171875 2.3359375 2.171875 4 4 C-0.03108158 3.5642074 -3.34984855 2.4735824 -7.0625 0.9375 C-16.57862615 -2.58269301 -25.78487098 -1.85445048 -35.20703125 1.66796875 C-45.11592115 6.39374701 -51.67704836 14.06144942 -56 24 C-58.8959724 32.6879172 -57.66995348 43.45296869 -54.13671875 51.734375 C-48.99646403 61.97955623 -41.08733914 68.16506434 -30.5625 72.375 C-19.05675842 74.39355115 -10.18819103 72.46874275 -0.1015625 66.92578125 C0.59195313 66.62027344 1.28546875 66.31476563 2 66 C2.66 66.33 3.32 66.66 4 67 C4 67.99 4 68.98 4 70 C-8.08865079 77.07969595 -18.64254707 80.34316148 -32.57421875 77.19140625 C-40.5837856 74.4520396 -46.26437187 70.15200767 -52 64 C-52.59683594 63.37222656 -53.19367187 62.74445313 -53.80859375 62.09765625 C-61.44339791 53.09201444 -62.93807808 41.40583828 -62 30 C-61.13259487 20.19043654 -55.30676307 11.30198843 -48.21875 4.6328125 C-34.00488319 -5.8273923 -15.73507385 -9.25592579 0 0 Z " fill="#2D2D2D" transform="translate(70,15)"/>
<path d="M0 0 C0.66 0 1.32 0 2 0 C2 0.66 2 1.32 2 2 C1.34 2 0.68 2 0 2 C-0.433125 3.299375 -0.433125 3.299375 -0.875 4.625 C-1.24625 5.73875 -1.6175 6.8525 -2 8 C-2.5259375 9.60875 -2.5259375 9.60875 -3.0625 11.25 C-4 14 -4 14 -5 16 C-5.66 16 -6.32 16 -7 16 C-7.28875 16.9075 -7.5775 17.815 -7.875 18.75 C-8.76841716 21.33098291 -9.75227117 23.58842326 -11 26 C-7.93796326 26.33768172 -4.87530542 26.66936893 -1.8125 27 C-0.94818359 27.09539063 -0.08386719 27.19078125 0.80664062 27.2890625 C8.05259663 28.66175948 8.05259663 28.66175948 14.58984375 26.75 C15.25693359 25.88375 15.25693359 25.88375 15.9375 25 C16.43894531 24.36449219 16.94039062 23.72898437 17.45703125 23.07421875 C17.96621094 22.38972656 18.47539063 21.70523438 19 21 C19.51949219 20.30519531 20.03898437 19.61039063 20.57421875 18.89453125 C21.58987613 17.53094086 22.60424876 16.16639238 23.6171875 14.80078125 C25.25787788 12.66417598 26.9528801 10.7546742 29 9 C29.66 9 30.32 9 31 9 C31 9.99 31 10.98 31 12 C31.66 11.67 32.32 11.34 33 11 C32.89386164 8.54775306 32.89386164 8.54775306 32 6 C27.67709756 3.07158222 22.01669854 3.5023435 17 4 C13.47743382 4.84219134 13.47743382 4.84219134 11 7 C9.55032098 10.5693717 9.55032098 10.5693717 9 14 C8.67 14 8.34 14 8 14 C7.6875 10.75 7.6875 10.75 8 7 C12.63261528 2.36738472 15.83662438 1.82545148 22.25 1.75 C23.55453125 1.72421875 24.8590625 1.6984375 26.203125 1.671875 C30.34023783 2.02940327 33.97190691 2.97190691 37 6 C37.25 8.375 37.25 8.375 37 11 C35.5 12.8125 35.5 12.8125 34 14 C36.29763477 16.29763477 41.78931715 15.45908859 44.8984375 15.62109375 C48 16 48 16 51 18 C51 18.66 51 19.32 51 20 C52.32 19.67 53.64 19.34 55 19 C54.2890625 20.953125 54.2890625 20.953125 53 23 C50.8359375 23.609375 50.8359375 23.609375 48.375 23.75 C47.55773437 23.80671875 46.74046875 23.8634375 45.8984375 23.921875 C45.27195312 23.94765625 44.64546875 23.9734375 44 24 C44.33 22.68 44.66 21.36 45 20 C43.02 20.99 41.04 21.98 39 23 C39.875 19.125 39.875 19.125 41 18 C39.68 17.67 38.36 17.34 37 17 C37.1546875 18.299375 37.1546875 18.299375 37.3125 19.625 C36.98989065 23.10918095 36.32290988 24.90898762 33.94140625 27.48046875 C26.9895404 32.92166757 18.73248184 35.70398367 10 36 C9.4375 34.0625 9.4375 34.0625 9 32 C9.33 31.67 9.66 31.34 10 31 C-3.12690825 29.10549649 -3.12690825 29.10549649 -16 31 C-18.6875 30.5625 -18.6875 30.5625 -21 30 C-21 29.34 -21 28.68 -21 28 C-18.69 28 -16.38 28 -14 28 C-13.86851563 27.00613281 -13.86851563 27.00613281 -13.734375 25.9921875 C-12.76971086 22.06169424 -11.07784868 18.72021707 -9.25 15.125 C-8.74726563 14.10212891 -8.74726563 14.10212891 -8.234375 13.05859375 C-5.8746134 8.36588602 -3.25646342 4.12988572 0 0 Z " fill="#474747" transform="translate(37,24)"/>
<path d="M0 0 C0.66 0 1.32 0 2 0 C2 0.66 2 1.32 2 2 C1.34 2 0.68 2 0 2 C-0.433125 3.299375 -0.433125 3.299375 -0.875 4.625 C-1.24625 5.73875 -1.6175 6.8525 -2 8 C-2.5259375 9.60875 -2.5259375 9.60875 -3.0625 11.25 C-4 14 -4 14 -5 16 C-5.66 16 -6.32 16 -7 16 C-7.28875 16.9075 -7.5775 17.815 -7.875 18.75 C-8.76841716 21.33098291 -9.75227117 23.58842326 -11 26 C-7.93796326 26.33768172 -4.87530542 26.66936893 -1.8125 27 C-0.94818359 27.09539063 -0.08386719 27.19078125 0.80664062 27.2890625 C3.2029285 27.54613553 5.60045266 27.77583389 8 28 C8.92425781 28.103125 9.84851563 28.20625 10.80078125 28.3125 C13.99510554 27.85859957 15.56225292 26.06439842 18 24 C20.17530089 22.85177822 22.38625934 21.76901299 24.625 20.75 C25.75164063 20.22921875 26.87828125 19.7084375 28.0390625 19.171875 C31 18 31 18 34 18 C33.9262004 21.0995833 33.60238013 23.27614543 31.5859375 25.69921875 C27.91672224 29.03707316 25.10682548 30.75088656 20 31 C20 31.66 20 32.32 20 33 C17.03 33.66 14.06 34.32 11 35 C11 33.35 11 31.7 11 30 C7.06251542 29.97101184 3.12505821 29.95320536 -0.8125 29.9375 C-1.93205078 29.92912109 -3.05160156 29.92074219 -4.20507812 29.91210938 C-5.27822266 29.90888672 -6.35136719 29.90566406 -7.45703125 29.90234375 C-8.44678955 29.89710693 -9.43654785 29.89187012 -10.45629883 29.88647461 C-13.12392734 29.88930041 -13.12392734 29.88930041 -16 31 C-18.6875 30.5625 -18.6875 30.5625 -21 30 C-21 29.34 -21 28.68 -21 28 C-18.69 28 -16.38 28 -14 28 C-13.86851563 27.00613281 -13.86851563 27.00613281 -13.734375 25.9921875 C-12.76971086 22.06169424 -11.07784868 18.72021707 -9.25 15.125 C-8.74726563 14.10212891 -8.74726563 14.10212891 -8.234375 13.05859375 C-5.8746134 8.36588602 -3.25646342 4.12988572 0 0 Z " fill="#F2F2F2" transform="translate(37,24)"/>
<path d="M0 0 C0.66 0 1.32 0 2 0 C2 0.66 2 1.32 2 2 C1.34 2 0.68 2 0 2 C-0.433125 3.299375 -0.433125 3.299375 -0.875 4.625 C-1.24625 5.73875 -1.6175 6.8525 -2 8 C-2.5259375 9.60875 -2.5259375 9.60875 -3.0625 11.25 C-4 14 -4 14 -5 16 C-5.66 16 -6.32 16 -7 16 C-7.28875 16.9075 -7.5775 17.815 -7.875 18.75 C-8.76841716 21.33098291 -9.75227117 23.58842326 -11 26 C-7.95872183 26.33725065 -4.91705809 26.66992332 -1.875 27 C-0.59109375 27.14308594 -0.59109375 27.14308594 0.71875 27.2890625 C4.3188269 27.67676309 7.8126765 28 11.4375 28 C14.37821474 28 16.35859319 28.75698503 19 30 C19 30.33 19 30.66 19 31 C17.86304688 30.9278125 16.72609375 30.855625 15.5546875 30.78125 C-0.43636582 29.02735379 -0.43636582 29.02735379 -16 31 C-18.6875 30.5625 -18.6875 30.5625 -21 30 C-21 29.34 -21 28.68 -21 28 C-18.69 28 -16.38 28 -14 28 C-13.86851563 27.00613281 -13.86851563 27.00613281 -13.734375 25.9921875 C-12.76971086 22.06169424 -11.07784868 18.72021707 -9.25 15.125 C-8.74726563 14.10212891 -8.74726563 14.10212891 -8.234375 13.05859375 C-5.8746134 8.36588602 -3.25646342 4.12988572 0 0 Z " fill="#434343" transform="translate(37,24)"/>
<path d="M0 0 C0.66 0.33 1.32 0.66 2 1 C2 1.99 2 2.98 2 4 C-9.6648011 10.83146916 -17.7113656 12.43542855 -31 12 C-31 11.67 -31 11.34 -31 11 C-29.02 10.67 -27.04 10.34 -25 10 C-25 9.34 -25 8.68 -25 8 C-24.20078125 7.92523438 -23.4015625 7.85046875 -22.578125 7.7734375 C-14.90694203 6.85505644 -9.09082427 4.94938009 -2.36328125 1.14453125 C-1.58339844 0.76683594 -0.80351563 0.38914062 0 0 Z " fill="#565656" transform="translate(72,81)"/>
<path d="M0 0 C2.95247472 0.40766387 5.45117997 1.6022222 8.125 2.875 C12.9547993 5.07693845 17.88997918 6.59181055 23 8 C21 10 21 10 17.5625 10.375 C11.19706643 10.21208214 4.38844495 8.19608696 -0.328125 3.859375 C-0.87984375 3.24578125 -1.4315625 2.6321875 -2 2 C-1.34 1.34 -0.68 0.68 0 0 Z " fill="#353535" transform="translate(26,82)"/>
<path d="M0 0 C-0.33 1.65 -0.66 3.3 -1 5 C-0.01 5.66 0.98 6.32 2 7 C2 7.66 2 8.32 2 9 C-2.95 11.31 -7.9 13.62 -13 16 C-11.18446702 10.55340105 -10.19712992 8.62222164 -6.5 4.625 C-5.7059375 3.75101563 -4.911875 2.87703125 -4.09375 1.9765625 C-2 0 -2 0 0 0 Z " fill="#D6D6D6" transform="translate(68,33)"/>
<path d="M0 0 C1.30453125 -0.02578125 2.6090625 -0.0515625 3.953125 -0.078125 C8.09023783 0.27940327 11.72190691 1.22190691 14.75 4.25 C15.04718836 7.07328946 15.17837659 8.65027277 13.5 11 C11.58141429 12.37041836 10.05908032 12.8518827 7.75 13.25 C7.42 12.59 7.09 11.93 6.75 11.25 C8.07 10.59 9.39 9.93 10.75 9.25 C10.64386164 6.79775306 10.64386164 6.79775306 9.75 4.25 C5.42709756 1.32158222 -0.23330146 1.7523435 -5.25 2.25 C-8.77256618 3.09219134 -8.77256618 3.09219134 -11.25 5.25 C-12.69967902 8.8193717 -12.69967902 8.8193717 -13.25 12.25 C-13.58 12.25 -13.91 12.25 -14.25 12.25 C-14.5625 9 -14.5625 9 -14.25 5.25 C-9.61738472 0.61738472 -6.41337562 0.07545148 0 0 Z " fill="#565656" transform="translate(59.25,25.75)"/>
<path d="M0 0 C1.93719378 -0.05406122 3.87481921 -0.09282025 5.8125 -0.125 C6.89144531 -0.14820313 7.97039062 -0.17140625 9.08203125 -0.1953125 C12 0 12 0 15 2 C15 2.66 15 3.32 15 4 C16.32 3.67 17.64 3.34 19 3 C18.2890625 4.953125 18.2890625 4.953125 17 7 C14.8359375 7.609375 14.8359375 7.609375 12.375 7.75 C11.55773437 7.80671875 10.74046875 7.8634375 9.8984375 7.921875 C9.27195312 7.94765625 8.64546875 7.9734375 8 8 C8.33 6.68 8.66 5.36 9 4 C7.02 4.99 5.04 5.98 3 7 C3.875 3.125 3.875 3.125 5 2 C3.35 2 1.7 2 0 2 C0 1.34 0 0.68 0 0 Z " fill="#A4A4A4" transform="translate(73,40)"/>
<path d="M0 0 C1.98 0 3.96 0 6 0 C6.33 0.99 6.66 1.98 7 3 C5.5625 5.1875 5.5625 5.1875 4 7 C4.66 7.66 5.32 8.32 6 9 C2.04 8.67 -1.92 8.34 -6 8 C-5.67 7.01 -5.34 6.02 -5 5 C-2.9375 4.3125 -2.9375 4.3125 -1 4 C-0.67 2.68 -0.34 1.36 0 0 Z " fill="#C8C8C8" transform="translate(31,43)"/>
<path d="M0 0 C1.26199219 0.03544922 2.52398437 0.07089844 3.82421875 0.10742188 C5.03980469 0.15060547 6.25539063 0.19378906 7.5078125 0.23828125 C8.61012207 0.27606689 9.71243164 0.31385254 10.84814453 0.3527832 C13.86438976 0.68632669 16.13304935 1.41970609 18.875 2.6875 C18.875 3.0175 18.875 3.3475 18.875 3.6875 C17.73804688 3.6153125 16.60109375 3.543125 15.4296875 3.46875 C-0.56136582 1.71485379 -0.56136582 1.71485379 -16.125 3.6875 C-18.8125 3.25 -18.8125 3.25 -21.125 2.6875 C-21.125 2.0275 -21.125 1.3675 -21.125 0.6875 C-14.09624046 -0.70776122 -7.12882464 -0.26742251 0 0 Z " fill="#353535" transform="translate(37.125,51.3125)"/>
<path d="M0 0 C3.96 0 7.92 0 12 0 C11.34 1.32 10.68 2.64 10 4 C4.72 4 -0.56 4 -6 4 C-6 3.67 -6 3.34 -6 3 C-4.02 2.67 -2.04 2.34 0 2 C0 1.34 0 0.68 0 0 Z " fill="#515151" transform="translate(47,89)"/>
<path d="M0 0 C-1.40631983 3.11896676 -3.09754896 5.45402854 -5.375 8 C-5.99246094 8.6909375 -6.60992187 9.381875 -7.24609375 10.09375 C-9.110649 12.12025994 -11.0132807 14.09274947 -13 16 C-11.70127848 11.18626046 -9.87520666 8.27416824 -6.5 4.625 C-5.7059375 3.75101563 -4.911875 2.87703125 -4.09375 1.9765625 C-2 0 -2 0 0 0 Z " fill="#3F3F3F" transform="translate(68,33)"/>
<path d="M0 0 C1 3 1 3 0.36328125 4.97265625 C0.01652344 5.66230469 -0.33023438 6.35195313 -0.6875 7.0625 C-1.02136719 7.75472656 -1.35523438 8.44695313 -1.69921875 9.16015625 C-3.22293245 11.31531887 -4.58243401 12.01770477 -7 13 C-5.69045524 8.76916309 -4.16145284 4.872603 -2 1 C-1.34 0.67 -0.68 0.34 0 0 Z " fill="#E5E5E5" transform="translate(39,25)"/>
<path d="M0 0 C5.70629354 0.42797202 9.41078616 2.84345952 14 6 C10.30962722 7.37095624 8.29116165 6.60010967 4.75 5.0625 C3.85796875 4.68222656 2.9659375 4.30195313 2.046875 3.91015625 C1.37140625 3.60980469 0.6959375 3.30945313 0 3 C0 2.01 0 1.02 0 0 Z " fill="#2E2E2E" transform="translate(60,12)"/>
<path d="M0 0 C0.33 0.99 0.66 1.98 1 3 C-2.3125 4.125 -2.3125 4.125 -6 5 C-9 3 -9 3 -10 1 C-8.71073008 0.63720544 -7.41846728 0.28503302 -6.125 -0.0625 C-5.40570313 -0.25972656 -4.68640625 -0.45695312 -3.9453125 -0.66015625 C-2 -1 -2 -1 0 0 Z " fill="#5F5F5F" transform="translate(64,87)"/>
<path d="M0 0 C0.65234375 1.828125 0.65234375 1.828125 1 4 C-1.4375 6.75 -1.4375 6.75 -4 9 C-4.99 8.67 -5.98 8.34 -7 8 C-7 7.34 -7 6.68 -7 6 C-5.46875 4.4921875 -5.46875 4.4921875 -3.5 2.875 C-2.8503125 2.33617188 -2.200625 1.79734375 -1.53125 1.2421875 C-1.0259375 0.83226563 -0.520625 0.42234375 0 0 Z " fill="#AFAFAF" transform="translate(80,74)"/>
<path d="M0 0 C2.0625 0.4375 2.0625 0.4375 4 1 C4.33 2.32 4.66 3.64 5 5 C3.35 5.33 1.7 5.66 0 6 C-0.38218767 4.34385343 -0.71395102 2.67542976 -1 1 C-0.67 0.67 -0.34 0.34 0 0 Z " fill="#9A9A9A" transform="translate(33,62)"/>
<path d="M0 0 C0.33 0.99 0.66 1.98 1 3 C-1.97 3.66 -4.94 4.32 -8 5 C-8 3.68 -8 2.36 -8 1 C-5.36 0.67 -2.72 0.34 0 0 Z " fill="#ECECEC" transform="translate(56,54)"/>
<path d="M0 0 C1.32 0.33 2.64 0.66 4 1 C4.625 4.375 4.625 4.375 5 8 C4.34 8.66 3.68 9.32 3 10 C2.34 9.67 1.68 9.34 1 9 C1.020625 8.071875 1.04125 7.14375 1.0625 6.1875 C1.15769604 2.97713989 1.15769604 2.97713989 0 0 Z " fill="#2C2C2C" transform="translate(69,39)"/>
<path d="M0 0 C0.639375 0.33 1.27875 0.66 1.9375 1 C1.9375 1.33 1.9375 1.66 1.9375 2 C-4.0025 1.67 -9.9425 1.34 -16.0625 1 C-10.60920377 -1.72664811 -5.80912882 -1.89685839 0 0 Z " fill="#7F7F7F" transform="translate(54.0625,53)"/>
<path d="M0 0 C1.32 0 2.64 0 4 0 C4.33 1.98 4.66 3.96 5 6 C3.35 5.67 1.7 5.34 0 5 C0 3.35 0 1.7 0 0 Z " fill="#959595" transform="translate(53,78)"/>
<path d="M0 0 C1.32 0.33 2.64 0.66 4 1 C3.67 2.32 3.34 3.64 3 5 C1.35 5 -0.3 5 -2 5 C-1.34 3.35 -0.68 1.7 0 0 Z " fill="#797979" transform="translate(83,43)"/>
<path d="M0 0 C1.32 0 2.64 0 4 0 C4 1.98 4 3.96 4 6 C2.66666667 6 1.33333333 6 0 6 C0 4.02 0 2.04 0 0 Z " fill="#757575" transform="translate(26,62)"/>
<path d="M0 0 C-0.33 1.98 -0.66 3.96 -1 6 C-1.99 6 -2.98 6 -4 6 C-4.33 4.35 -4.66 2.7 -5 1 C-2 0 -2 0 0 0 Z " fill="#8D8D8D" transform="translate(46,78)"/>
<path d="M0 0 C0.66 0 1.32 0 2 0 C2.66 1.98 3.32 3.96 4 6 C2.02 6 0.04 6 -2 6 C-1.34 4.02 -0.68 2.04 0 0 Z " fill="#777777" transform="translate(66,62)"/>
<path d="M0 0 C0.66 0 1.32 0 2 0 C2.33 0.99 2.66 1.98 3 3 C1.35 4.32 -0.3 5.64 -2 7 C-2.33 6.34 -2.66 5.68 -3 5 C-1.6875 2.375 -1.6875 2.375 0 0 Z " fill="#828282" transform="translate(35,43)"/>
<path d="M0 0 C-1.49097658 3.7952131 -3.75700849 5.61042731 -7 8 C-6.44414399 4.1090079 -4.34122117 0 0 0 Z " fill="#373737" transform="translate(68,33)"/>
<path d="M0 0 C0.33 0.99 0.66 1.98 1 3 C-2.21311475 8.73770492 -2.21311475 8.73770492 -6 10 C-4.62570235 7.03997429 -2.98229359 4.58560034 -1 2 C-0.67 1.34 -0.34 0.68 0 0 Z " fill="#A0A0A0" transform="translate(38,28)"/>
<path d="M0 0 C6.4 -0.49230769 6.4 -0.49230769 9.4375 2 C10.2109375 2.99 10.2109375 2.99 11 4 C7.0507432 3.44894091 3.65079826 2.61064629 0 1 C0 0.67 0 0.34 0 0 Z " fill="#656565" transform="translate(63,15)"/>
<path d="M0 0 C1.32 0 2.64 0 4 0 C4 1.32 4 2.64 4 4 C3.01 4 2.02 4 1 4 C0.67 4.66 0.34 5.32 0 6 C0 4.02 0 2.04 0 0 Z " fill="#787878" transform="translate(20,62)"/>
<path d="M0 0 C0.66 0.33 1.32 0.66 2 1 C2 1.99 2 2.98 2 4 C0.35 4.33 -1.3 4.66 -3 5 C-2.625 3.0625 -2.625 3.0625 -2 1 C-1.34 0.67 -0.68 0.34 0 0 Z " fill="#7C7C7C" transform="translate(72,81)"/>
<path d="M0 0 C0.66 0.33 1.32 0.66 2 1 C1.67 2.32 1.34 3.64 1 5 C-0.32 5 -1.64 5 -3 5 C-2.01 3.35 -1.02 1.7 0 0 Z " fill="#8F8F8F" transform="translate(32,73)"/>
<path d="M0 0 C1.32 0.33 2.64 0.66 4 1 C3.34 1 2.68 1 2 1 C2.66 2.65 3.32 4.3 4 6 C2.68 6 1.36 6 0 6 C0 4.02 0 2.04 0 0 Z " fill="#7B7B7B" transform="translate(76,62)"/>
<path d="M0 0 C0.66 0 1.32 0 2 0 C2 0.66 2 1.32 2 2 C1.34 2 0.68 2 0 2 C-0.66 3.98 -1.32 5.96 -2 8 C-2.66 7.67 -3.32 7.34 -4 7 C-2.92598892 4.08482708 -2.22189824 2.22189824 0 0 Z " fill="#505050" transform="translate(37,24)"/>
</svg>
