<svg width="30" height="30" viewBox="0 0 30 30" fill="none" xmlns="http://www.w3.org/2000/svg">
<path d="M14.4443 25.5819C13.252 25.3477 12.061 24.9551 10.8712 24.4043C9.68136 23.8535 8.61641 23.0868 7.67632 22.1043C6.73622 21.1217 5.97158 19.9111 5.38238 18.4724C4.79319 17.0337 4.49941 15.3114 4.50104 13.3055V13.1072C4.50104 12.8845 4.56959 12.7049 4.70669 12.5687C4.84297 12.4316 5.0225 12.363 5.24529 12.363H5.39585C6.24781 12.363 7.25972 12.5662 8.43157 12.9726C9.60425 13.379 10.5994 13.8788 11.4171 14.4721C11.5159 13.1036 11.8235 11.6747 12.3401 10.1854C12.8566 8.69606 13.5213 7.36385 14.3341 6.18873C14.5161 5.93575 14.738 5.80927 15 5.80927C15.262 5.80927 15.4839 5.93575 15.6659 6.18873C16.4787 7.36385 17.1434 8.70422 17.6599 10.2098C18.1765 11.7146 18.4842 13.1513 18.5829 14.5198C19.3532 13.9731 20.3088 13.4888 21.4497 13.0669C22.5905 12.645 23.6265 12.4103 24.5576 12.363L24.7731 12.3397C24.9853 12.3242 25.1672 12.392 25.319 12.5429C25.47 12.6947 25.5377 12.8767 25.5222 13.0889L25.499 13.3521C25.3888 14.9499 25.1224 16.3935 24.6996 17.6829C24.2769 18.9731 23.6894 20.1172 22.937 21.1152C22.1837 22.1132 21.2596 22.9701 20.1644 23.6858C19.0693 24.4014 17.7999 24.9939 16.3563 25.4631C16.0911 25.5513 15.7724 25.6031 15.4003 25.6186C15.0282 25.6341 14.7099 25.6219 14.4455 25.5819M15.4088 24.4961C15.1852 21.1299 14.1705 18.5748 12.3646 16.8309C10.5586 15.087 8.35038 14.0106 5.73982 13.6018C5.69901 13.6018 5.69901 13.6018 5.73982 13.6018C5.96423 17.0496 7.0096 19.6406 8.87592 21.3747C10.7422 23.1088 12.9203 24.1493 15.4101 24.4961C15.4509 24.5165 15.4509 24.5218 15.4101 24.512C15.3693 24.5022 15.3693 24.4969 15.4101 24.4961M12.613 15.3155C13.0684 15.6941 13.5087 16.1621 13.9338 16.7195C14.359 17.2777 14.7144 17.8122 15 18.3231C15.275 17.8122 15.628 17.2777 16.0588 16.7195C16.4889 16.1613 16.9316 15.6933 17.387 15.3155C17.378 14.0743 17.1642 12.7661 16.7455 11.3911C16.3277 10.0168 15.7459 8.70422 15 7.45321C14.2549 8.70422 13.6731 10.0132 13.2545 11.3801C12.8358 12.747 12.622 14.0588 12.613 15.3155ZM15.6402 19.765C15.885 20.4179 16.0862 21.0768 16.2437 21.7419C16.4012 22.407 16.5313 23.1888 16.6342 24.0873C17.5726 23.7633 18.4813 23.3292 19.3602 22.7848C20.2391 22.2405 21.0213 21.5485 21.7068 20.7088C22.3922 19.8691 22.9667 18.8682 23.4303 17.7061C23.8938 16.5441 24.1708 15.1759 24.2614 13.6018C24.2614 13.561 24.2614 13.561 24.2614 13.6018C22.2808 13.8874 20.519 14.5839 18.9758 15.6913C17.4327 16.7987 16.3208 18.1566 15.6402 19.765Z" fill="#484039"/>
</svg>
