<svg width="32" height="29" viewBox="0 0 32 29" fill="none" xmlns="http://www.w3.org/2000/svg">
<path d="M5.6624 4.56029L5.66266 4.56074L5.9599 5.08549L6.06082 5.26366L5.93168 5.42256L3.15321 8.84125L5.6624 4.56029ZM5.6624 4.56029C5.59995 4.45048 5.5676 4.33221 5.56539 4.21383C5.56317 4.09548 5.59108 3.97664 5.64914 3.86559L5.38327 3.72661L5.64914 3.86559C5.70733 3.75427 5.79507 3.65234 5.90882 3.56931C6.02262 3.48625 6.15863 3.42499 6.30742 3.39214C6.94529 3.252 7.67003 3.27934 8.34104 3.37669C9.50672 3.54783 10.9937 4.05397 12.4421 5.32693C13.846 6.56081 14.7133 7.93845 15.2292 8.99609L15.2293 8.99633C15.3878 9.32059 15.5302 9.65064 15.6561 9.98554L15.7292 10.18H15.9369H20.592C21.9462 10.18 23.2756 10.3221 24.4608 10.8429L24.4609 10.843C26.0149 11.5253 27.4324 12.8377 28.7755 15.1997L28.7753 15.1998L28.7806 15.2083C28.8402 15.3054 28.8757 15.41 28.8871 15.5158C28.8985 15.6215 28.8857 15.7286 28.8487 15.8314C28.8116 15.9344 28.7504 16.0325 28.6664 16.119L28.8816 16.328L28.6664 16.119C28.5823 16.2056 28.4771 16.2785 28.356 16.3317C28.2349 16.385 28.1014 16.4168 27.9637 16.4245C27.8261 16.4322 27.6885 16.4154 27.5595 16.3756C27.4306 16.3359 27.3143 16.2745 27.2168 16.1967C27.1194 16.1189 27.0434 16.0268 26.9911 15.9272L26.9912 15.9271L26.9862 15.9183C26.2031 14.5441 25.451 13.6539 24.7397 13.0693L24.0621 12.5125L24.2567 13.3676L25.5878 19.2182L25.6782 19.6154L26.0307 19.4113C26.2365 19.2921 26.4898 19.2415 26.7407 19.2739C26.9916 19.3063 27.2127 19.4178 27.3653 19.5781C27.5169 19.7374 27.5903 19.9324 27.5833 20.1253C27.5764 20.3159 27.491 20.5055 27.3307 20.6565M5.6624 4.56029L27.3307 20.6565M27.3307 20.6565L27.3198 20.6653L27.2505 20.721C27.1904 20.7691 27.106 20.8364 27.0148 20.9087C26.8293 21.0555 26.626 21.214 26.5347 21.2782C25.8427 21.7563 25.1019 22.178 24.3215 22.5377L24.3206 22.5381C22.3632 23.4485 19.4545 24.3457 15.6035 24.3457C11.7527 24.3457 8.84526 23.4486 6.88656 22.5382C5.9155 22.0859 5.17922 21.6312 4.67905 21.2829L3.87651 20.6563C3.7122 20.4935 3.63251 20.2895 3.64055 20.0881C3.64877 19.8822 3.74874 19.6778 3.93464 19.5226C4.12167 19.3665 4.378 19.2763 4.64938 19.2802C4.92077 19.2842 5.1729 19.3818 5.35316 19.5426L5.35312 19.5426L5.35757 19.5464C5.61079 19.7635 5.88126 19.9639 6.16681 20.1462L6.48463 20.3492L6.61092 19.9939L9.2861 12.4679L9.34419 12.3045L9.23156 12.1726L8.33725 11.1254L8.19258 10.956L7.98859 11.0455L6.36797 11.7565L6.36781 11.7566C6.17758 11.8402 5.95962 11.8699 5.74611 11.8395C5.53266 11.8091 5.3405 11.7211 5.19516 11.5935C5.19513 11.5935 5.1951 11.5934 5.19506 11.5934L3.25663 9.88976L3.2566 9.88974C3.09336 9.7463 3.00066 9.56375 2.98307 9.37768C2.96553 9.19215 3.02248 9.00234 3.15311 8.84138L27.3307 20.6565ZM23.9273 20.7995L23.7164 20.9047C23.1881 21.1682 22.5608 21.4391 21.8371 21.6877L21.5732 21.7784L21.4637 21.5218L19.7681 17.5498L19.7681 17.5498C19.7022 17.3952 19.5812 17.2553 19.4142 17.1535C19.247 17.0516 19.0446 16.995 18.8344 16.9949L23.9273 20.7995ZM23.9273 20.7995L23.875 20.5696M23.9273 20.7995L23.875 20.5696M23.875 20.5696L22.1523 12.9983L22.1523 12.9981M23.875 20.5696L22.1523 12.9981M22.1523 12.9981C22.0391 12.5021 21.7054 12.2087 21.3157 12.048C20.9392 11.8929 20.4972 11.854 20.1066 11.8516H20.1048M22.1523 12.9981L20.1048 11.8516M20.1048 11.8516H14.9573C14.4565 11.8516 14.0722 11.5368 13.9782 11.1562L13.9783 11.1562M20.1048 11.8516L13.9783 11.1562M13.9783 11.1562L13.9761 11.1485M13.9783 11.1562L13.9761 11.1485M13.9761 11.1485C13.8323 10.6269 13.637 10.1178 13.3926 9.62701C12.9392 8.69707 12.1911 7.51964 11.0108 6.4823C10.1295 5.70775 9.27162 5.32572 8.56833 5.13981L8.22569 5.04923M13.9761 11.1485L8.22569 5.04923M8.22569 5.04923L8.19294 5.40212M8.22569 5.04923L8.19294 5.40212M8.19294 5.40212C8.17971 5.54465 8.12254 5.68529 8.02236 5.80853L5.42733 9.00015L5.24519 9.22416M8.19294 5.40212L5.24519 9.22416M5.24519 9.22416L5.46205 9.41475M5.24519 9.22416L5.46205 9.41475M5.46205 9.41475L5.96737 9.85886L6.11093 9.98503M5.46205 9.41475L6.11093 9.98503M6.11093 9.98503L6.28595 9.90823M6.11093 9.98503L6.28595 9.90823M6.28595 9.90823L8.03839 9.13928L8.03856 9.13921M6.28595 9.90823L8.03856 9.13921M8.03856 9.13921C8.25105 9.04581 8.49701 9.02007 8.7316 9.06868C8.96616 9.11728 9.16623 9.23522 9.30131 9.39335L11.2396 11.6647C11.3305 11.7714 11.3886 11.8922 11.4129 12.0165C11.4371 12.1406 11.4276 12.268 11.3843 12.3895L11.3843 12.3896M8.03856 9.13921L11.3843 12.3896M11.3843 12.3896L8.32918 20.9821L8.23327 21.2518M11.3843 12.3896L8.23327 21.2518M8.23327 21.2518L8.49822 21.3602M8.23327 21.2518L8.49822 21.3602M8.49822 21.3602C9.09231 21.6034 9.77147 21.8393 10.5356 22.0416L10.7865 22.108M8.49822 21.3602L10.7865 22.108M10.7865 22.108L10.8883 21.8693M10.7865 22.108L10.8883 21.8693M10.8883 21.8693L12.7312 17.5498L12.7313 17.5498M10.8883 21.8693L12.7313 17.5498M12.7313 17.5498C12.7972 17.3953 12.9182 17.2553 13.0852 17.1535M12.7313 17.5498L13.0852 17.1535M13.0852 17.1535C13.2524 17.0516 13.4548 16.995 13.665 16.9949M13.0852 17.1535L13.665 16.9949M13.665 16.9949C13.665 16.9949 13.665 16.9949 13.6651 16.9949M13.665 16.9949H13.6651M13.6651 16.9949H18.8343H13.6651ZM27.3245 20.6625L27.5188 20.8902C27.4987 20.9065 27.4493 20.9462 27.3838 20.9985C27.298 20.8838 27.2704 20.7392 27.3025 20.6852C27.3098 20.6771 27.3201 20.6667 27.3245 20.6625ZM27.3368 20.6516C27.3379 20.6507 27.3381 20.6505 27.3361 20.6522L27.3368 20.6516ZM19.3085 22.3465L19.6776 22.2789L15.6035 22.374V22.674C15.6036 22.674 15.6037 22.674 15.6038 22.674C16.9779 22.674 18.212 22.5473 19.3085 22.3465Z" fill="#484039" stroke="white" stroke-width="0.6"/>
</svg>
