<svg width="20" height="16" viewBox="0 0 20 16" fill="none" xmlns="http://www.w3.org/2000/svg">
<g clip-path="url(#clip0_4191_11750)">
<path d="M0.763634 14.7407C0.620777 15.0111 0.721689 15.3447 0.98712 15.4854C1.25671 15.6282 1.58884 15.5288 1.733 15.261L1.73305 15.261L2.57367 13.7016L2.94972 13.7965V14.9996C2.94972 15.4423 3.30706 15.7996 3.74972 15.7996H5.24972C5.69239 15.7996 6.04972 15.4423 6.04972 14.9996V13.7965L6.42577 13.7016L7.2664 15.261L7.29234 15.3091C7.44909 15.5415 7.75689 15.6212 8.00803 15.486C8.27705 15.3412 8.37716 15.009 8.233 14.7413L8.23295 14.7412L7.09858 12.6318L7.02814 12.5009L7.1333 12.3957C7.17187 12.3571 7.20435 12.3135 7.23333 12.2604C7.23339 12.2603 7.23345 12.2602 7.23352 12.2601L8.07368 10.7016L8.44972 10.7965V12.4996C8.44972 12.9423 8.80706 13.2996 9.24972 13.2996H10.7497C11.1924 13.2996 11.5497 12.9423 11.5497 12.4996V10.7965L11.9259 10.7019L12.7634 12.2612L12.7662 12.2664L12.7661 12.2664C12.7885 12.3112 12.8208 12.3535 12.863 12.3957L12.9682 12.5009L12.8977 12.6318L11.7639 14.7401C11.7638 14.7403 11.7638 14.7405 11.7637 14.7407C11.6208 15.011 11.7217 15.3447 11.9871 15.4854C12.2567 15.6282 12.5888 15.5288 12.733 15.261L12.7331 15.261L13.5737 13.7016L13.9497 13.7965V14.9996C13.9497 15.4423 14.3071 15.7996 14.7497 15.7996H16.2497C16.6924 15.7996 17.0497 15.4423 17.0497 14.9996V13.7965L17.4259 13.7019L18.2633 15.261L0.763634 14.7407ZM0.763634 14.7407C0.763737 14.7405 0.763841 14.7403 0.763944 14.7401L1.94764 12.5445L1.94781 12.5442C2.39101 11.7186 3.25447 11.2027 4.19347 11.2027H4.80285C5.27512 11.2027 5.72717 11.3331 6.1187 11.568L6.29824 11.6757L6.39763 11.4914L7.44763 9.54455L7.44781 9.54421C7.89101 8.71864 8.75447 8.20273 9.69347 8.20273H10.3028C11.2414 8.20273 12.1022 8.71831 12.5487 9.54455L0.763634 14.7407ZM19.233 14.7413L18.0488 12.5447L19.233 14.7413ZM19.233 14.7413C19.233 14.7413 19.233 14.7414 19.2331 14.7414L19.233 14.7413ZM13.6981 11.6757L13.5987 11.4914L12.5488 9.54469L13.6981 11.6757ZM13.6981 11.6757L13.8776 11.568M13.6981 11.6757L13.8776 11.568M13.8776 11.568C14.2692 11.3331 14.7212 11.2027 15.1935 11.2027M13.8776 11.568L15.1935 11.2027M15.1935 11.2027H15.8028M15.1935 11.2027H15.8028M15.8028 11.2027C16.7414 11.2027 17.6021 11.7183 18.0487 12.5445L15.8028 11.2027ZM9.61263 0.299356C9.84053 0.172482 10.112 0.164776 10.3452 0.276235L10.387 0.299441L19.3866 5.29923C19.7721 5.51453 19.9115 6.00238 19.697 6.38647C19.4817 6.77201 18.9938 6.91136 18.6097 6.69687L18.6093 6.69664L10.0968 1.96852L9.99971 1.91457L9.90259 1.96853L1.38696 6.69978L1.38658 6.69999C1.0025 6.91448 0.514641 6.77513 0.29934 6.3896C0.084864 6.00553 0.224181 5.51771 0.609662 5.30239C0.609687 5.30238 0.609712 5.30237 0.609737 5.30235L9.6125 0.299429L9.61263 0.299356ZM9.99972 5.19961C10.2782 5.19961 10.5453 5.31023 10.7422 5.50715C10.9391 5.70406 11.0497 5.97113 11.0497 6.24961C11.0497 6.52809 10.9391 6.79516 10.7422 6.99207C10.5453 7.18898 10.2782 7.29961 9.99972 7.29961C9.72125 7.29961 9.45417 7.18898 9.25726 6.99207C9.06035 6.79516 8.94972 6.52809 8.94972 6.24961C8.94972 5.97113 9.06035 5.70406 9.25726 5.50715C9.45417 5.31023 9.72125 5.19961 9.99972 5.19961ZM4.49972 8.19961C4.7782 8.19961 5.04527 8.31023 5.24219 8.50715C5.4391 8.70406 5.54972 8.97113 5.54972 9.24961C5.54972 9.52809 5.4391 9.79516 5.24219 9.99207C5.04527 10.189 4.7782 10.2996 4.49972 10.2996C4.22125 10.2996 3.95417 10.189 3.75726 9.99207C3.56035 9.79516 3.44972 9.52809 3.44972 9.24961C3.44972 8.97113 3.56035 8.70406 3.75726 8.50715C3.95417 8.31023 4.22125 8.19961 4.49972 8.19961ZM14.4497 9.24961C14.4497 8.97113 14.5603 8.70406 14.7573 8.50715C14.9542 8.31023 15.2212 8.19961 15.4997 8.19961C15.7782 8.19961 16.0453 8.31023 16.2422 8.50715C16.4391 8.70406 16.5497 8.97113 16.5497 9.24961C16.5497 9.52809 16.4391 9.79516 16.2422 9.99207C16.0453 10.189 15.7782 10.2996 15.4997 10.2996C15.2212 10.2996 14.9542 10.189 14.7573 9.99207C14.5603 9.79516 14.4497 9.52809 14.4497 9.24961Z" fill="#F3F4F4" stroke="#6E5F53" stroke-width="0.4"/>
</g>
<defs>
<clipPath id="clip0_4191_11750">
<rect width="20" height="16" fill="white"/>
</clipPath>
</defs>
</svg>
