<svg width="20" height="20" viewBox="0 0 20 20" fill="none" xmlns="http://www.w3.org/2000/svg">
<path d="M5.8335 7.5L9.8085 3.94583C10.8885 2.98167 11.4277 2.5 12.0835 2.5C12.7393 2.5 13.2793 2.98167 14.3585 3.94583L18.3335 7.5M7.0835 6.66667V16.6667M17.0835 16.6667V6.66667" stroke="#F3F4F4" stroke-linecap="round" stroke-linejoin="round"/>
<path d="M2.91675 11.6663C3.6071 11.6663 4.16675 10.9201 4.16675 9.99967C4.16675 9.0792 3.6071 8.33301 2.91675 8.33301C2.22639 8.33301 1.66675 9.0792 1.66675 9.99967C1.66675 10.9201 2.22639 11.6663 2.91675 11.6663Z" stroke="#F3F4F4" stroke-linecap="round" stroke-linejoin="round"/>
<path d="M2.91675 11.667V16.667M1.66675 16.667H18.3334M10.0001 16.667V13.3337C10.0001 12.5478 10.0001 12.1553 10.2442 11.9112C10.4884 11.667 10.8809 11.667 11.6667 11.667H12.5001C13.2859 11.667 13.6784 11.667 13.9226 11.9112C14.1667 12.1553 14.1667 12.5478 14.1667 13.3337V16.667M11.2501 9.16699H12.9167M11.2501 6.66699H12.9167" stroke="#F3F4F4" stroke-linecap="round" stroke-linejoin="round"/>
</svg>
