<svg width="20" height="19" viewBox="0 0 20 19" fill="none" xmlns="http://www.w3.org/2000/svg">
<path d="M3.06297 8.44468L3.06297 8.44468C2.90783 8.6085 2.81904 8.8328 2.81967 9.06879C2.82031 9.30478 2.91031 9.52851 3.06628 9.69136C3.22185 9.85379 3.42983 9.94228 3.64374 9.94164C3.85764 9.94101 4.06518 9.85128 4.21993 9.68788C4.97621 8.88911 5.87611 8.25453 6.8682 7.82127C7.86032 7.38799 8.92471 7.16476 10 7.16478C11.0753 7.16476 12.1397 7.38799 13.1318 7.82127C14.1239 8.25453 15.0238 8.88911 15.7801 9.68788L3.06297 8.44468ZM3.06297 8.44468C3.97325 7.48342 5.05485 6.72128 6.24524 6.20146C7.4356 5.68165 8.71161 5.41424 10 5.41424C11.2884 5.41424 12.5644 5.68165 13.7548 6.20146C14.9452 6.72128 16.0268 7.48342 16.9371 8.44468L17.1186 8.27278M3.06297 8.44468L17.1186 8.27278M17.1186 8.27278L16.9371 8.44468C17.0922 8.6085 17.181 8.8328 17.1804 9.06879M17.1186 8.27278L17.1804 9.06879M17.1804 9.06879C17.1797 9.30478 17.0897 9.52851 16.9338 9.69136M17.1804 9.06879L16.9338 9.69136M16.9338 9.69136C16.7782 9.85379 16.5702 9.94228 16.3563 9.94164M16.9338 9.69136L16.3563 9.94164M16.3563 9.94164C16.1424 9.94101 15.9349 9.85129 15.7801 9.6879L16.3563 9.94164ZM18.327 6.52584L18.3271 6.52574L18.3211 6.51941C16.6773 4.79263 14.581 3.61518 12.2969 3.13809C10.0127 2.66097 7.64523 2.90616 5.49455 3.84204C4.06678 4.46312 2.77034 5.3731 1.67896 6.51939L1.67893 6.51937L1.67594 6.52262C1.59955 6.60574 1.50884 6.67134 1.40945 6.71622C1.3101 6.76109 1.20372 6.78454 1.09641 6.78557C0.989109 6.7866 0.882377 6.76521 0.782325 6.72228C0.682238 6.67934 0.590464 6.61555 0.512703 6.53398L0.33175 6.70648L0.512703 6.53398C0.434916 6.45238 0.372764 6.35466 0.330456 6.24623C0.288141 6.13778 0.266685 6.02117 0.267607 5.90332C0.268529 5.78547 0.291806 5.66928 0.335791 5.56163C0.37977 5.45399 0.443405 5.35742 0.522401 5.27723L0.522427 5.27725L0.525374 5.27416C1.77048 3.96626 3.24813 2.92944 4.87357 2.22229C6.49897 1.51515 8.24068 1.15137 9.9993 1.15137C11.7579 1.15137 13.4996 1.51515 15.125 2.22229C16.7505 2.92944 18.2281 3.96626 19.4732 5.27416L19.4731 5.27427L19.4795 5.28048C19.5607 5.35995 19.6265 5.45647 19.6724 5.56463C19.7183 5.67281 19.7432 5.79002 19.7452 5.9092C19.7472 6.02837 19.7263 6.1465 19.684 6.25642C19.6417 6.36632 19.5791 6.46536 19.5005 6.54792C19.4219 6.63046 19.3289 6.69482 19.2275 6.73781C19.1262 6.78079 19.0181 6.80172 18.9096 6.79971C18.8011 6.7977 18.6937 6.77277 18.5938 6.72601C18.4938 6.67923 18.4029 6.61138 18.327 6.52584ZM8.49872 11.5947L8.35002 11.6606V11.6657C7.92131 11.8774 7.53277 12.1693 7.2026 12.5246C7.04925 12.6896 6.84243 12.7814 6.62851 12.7842C6.41461 12.7869 6.20589 12.7005 6.04893 12.5397C5.89156 12.3784 5.79955 12.1556 5.7968 11.9197C5.79405 11.6837 5.88084 11.4584 6.03458 11.293L6.03475 11.2928C6.55704 10.7296 7.18079 10.2828 7.86882 9.97792C8.55682 9.67307 9.29552 9.5162 10.0414 9.5162C10.7874 9.5162 11.5261 9.67307 12.2141 9.97792C12.9021 10.2828 13.5259 10.7296 14.0481 11.2928L14.0482 11.2928C14.2018 11.4584 14.2883 11.6837 14.2854 11.9197C14.2824 12.1557 14.1902 12.3784 14.0327 12.5395C13.8756 12.7002 13.6668 12.7864 13.4529 12.7834C13.239 12.7805 13.0322 12.6884 12.879 12.5233C12.3247 11.9257 11.6101 11.516 10.8277 11.3498C10.0453 11.1836 9.23337 11.2691 8.49872 11.5947ZM7.97573 16.5693C7.97573 15.9984 8.19182 15.4532 8.57289 15.0531C8.95356 14.6534 9.46719 14.4313 10 14.4313C10.5328 14.4313 11.0465 14.6534 11.4271 15.0531C11.8082 15.4532 12.0243 15.9984 12.0243 16.5693C12.0243 17.1401 11.8082 17.6853 11.4271 18.0854C11.0465 18.4851 10.5328 18.7073 10 18.7073C9.46719 18.7073 8.95356 18.4851 8.57289 18.0854C8.19182 17.6853 7.97573 17.1401 7.97573 16.5693Z" fill="#484039" stroke="#D6CFC6" stroke-width="0.5"/>
</svg>
