<svg width="23" height="21" viewBox="0 0 23 21" fill="none" xmlns="http://www.w3.org/2000/svg">
<path d="M17.1071 9.03158L20.1796 5.98711L20.1885 5.97878C20.7081 5.43183 21 4.69001 21 3.9165C21 3.143 20.7081 2.40117 20.1885 1.85422C19.6688 1.30727 18.9641 1 18.2292 1C17.4944 1 16.7896 1.30727 16.27 1.85422L16.2621 1.8636L13.3698 5.09763L4.90652 1.85839C4.83568 1.83119 4.75893 1.82585 4.6853 1.84301C4.61168 1.86017 4.54424 1.89911 4.49093 1.95525L2.11611 4.45499C2.07465 4.49858 2.04289 4.55132 2.02315 4.6094C2.0034 4.66748 1.99615 4.72945 2.00193 4.79083C2.0077 4.85222 2.02636 4.91149 2.05654 4.96437C2.08673 5.01724 2.12769 5.0624 2.17647 5.09658L8.90512 9.81378L6.98251 11.8334H4.77096C4.7189 11.8335 4.66736 11.8444 4.61931 11.8654C4.57126 11.8865 4.52763 11.9174 4.49093 11.9563L2.11611 14.456C2.06984 14.5047 2.03578 14.5648 2.01697 14.6308C1.99816 14.6968 1.99519 14.7666 2.00832 14.8341C2.02146 14.9016 2.0503 14.9646 2.09225 15.0175C2.1342 15.0704 2.18796 15.1115 2.24871 15.1372L6.05039 16.737L7.5683 20.7334V20.7428C7.59351 20.8069 7.63351 20.8633 7.68469 20.907C7.73586 20.9507 7.79658 20.9802 7.86135 20.9929C7.92611 21.0057 7.99287 21.0012 8.05556 20.9799C8.11826 20.9585 8.17491 20.9211 8.22038 20.8709L10.5883 18.3785C10.6258 18.34 10.6558 18.294 10.6763 18.2432C10.6969 18.1925 10.7077 18.1379 10.708 18.0827V15.7548L12.6257 13.7363L17.1071 20.8136C17.1396 20.865 17.1825 20.9081 17.2327 20.9399C17.283 20.9717 17.3393 20.9913 17.3976 20.9974C17.4559 21.0035 17.5148 20.9958 17.57 20.975C17.6252 20.9543 17.6753 20.9208 17.7167 20.8772L20.0915 18.3774C20.1448 18.3213 20.1818 18.2503 20.1981 18.1728C20.2144 18.0954 20.2094 18.0146 20.1835 17.94L17.1071 9.03158ZM17.5029 19.9283L13.0215 12.852C12.9887 12.7998 12.9452 12.756 12.8941 12.7239C12.8431 12.6918 12.7858 12.6722 12.7266 12.6666H12.688C12.6359 12.6667 12.5844 12.6776 12.5364 12.6987C12.4883 12.7198 12.4447 12.7506 12.408 12.7895L10.0332 15.2892C9.95883 15.367 9.91684 15.4726 9.91639 15.583V17.9098L8.08284 19.8408L6.72227 16.261C6.70236 16.2086 6.67253 16.1609 6.6346 16.121C6.59667 16.0811 6.55142 16.0497 6.50161 16.0287L3.10067 14.5966L4.93522 12.6666H7.14578C7.19777 12.6666 7.24926 12.6559 7.29731 12.635C7.34536 12.6141 7.38902 12.5834 7.42581 12.5447L9.80062 10.045C9.84209 10.0014 9.87384 9.94868 9.89359 9.8906C9.91334 9.83252 9.92058 9.77055 9.91481 9.70916C9.90903 9.64778 9.89038 9.5885 9.8602 9.53563C9.83001 9.48275 9.78905 9.43759 9.74026 9.40341L3.01755 4.68517L4.86991 2.73225L13.3411 5.97461C13.4136 6.00267 13.4924 6.00776 13.5676 5.98925C13.6429 5.97074 13.7114 5.92945 13.7646 5.87046L16.8321 2.44062C17.203 2.0496 17.7063 1.82972 18.2313 1.82933C18.4912 1.82913 18.7487 1.88283 18.9889 1.98736C19.2291 2.09189 19.4474 2.2452 19.6314 2.43854C19.8153 2.63187 19.9613 2.86145 20.0609 3.11416C20.1606 3.36687 20.2119 3.63777 20.2121 3.91138C20.2123 4.185 20.1613 4.45597 20.062 4.70883C19.9627 4.96169 19.817 5.19148 19.6334 5.38509L16.3749 8.61391C16.3189 8.66993 16.2796 8.742 16.262 8.82122C16.2445 8.90044 16.2493 8.98334 16.276 9.0597L19.3543 17.9785L17.5029 19.9283Z" fill="#484039"/>
</svg>
