<svg width="19" height="17" viewBox="0 0 19 17" fill="none" xmlns="http://www.w3.org/2000/svg">
<path fill-rule="evenodd" clip-rule="evenodd" d="M9.125 1.13333C7.02758 1.13333 5.01606 1.90946 3.53296 3.29098C2.04986 4.6725 1.21667 6.54624 1.21667 8.5C1.21667 10.4538 2.04986 12.3275 3.53296 13.709C5.01606 15.0905 7.02758 15.8667 9.125 15.8667C11.2224 15.8667 13.2339 15.0905 14.717 13.709C16.2001 12.3275 17.0333 10.4538 17.0333 8.5C17.0333 6.54624 16.2001 4.6725 14.717 3.29098C13.2339 1.90946 11.2224 1.13333 9.125 1.13333ZM0 8.5C0 6.24566 0.961381 4.08365 2.67265 2.48959C4.38392 0.895533 6.7049 0 9.125 0C11.5451 0 13.8661 0.895533 15.5773 2.48959C17.2886 4.08365 18.25 6.24566 18.25 8.5C18.25 10.7543 17.2886 12.9163 15.5773 14.5104C13.8661 16.1045 11.5451 17 9.125 17C6.7049 17 4.38392 16.1045 2.67265 14.5104C0.961381 12.9163 0 10.7543 0 8.5Z" fill="#484039"/>
<path fill-rule="evenodd" clip-rule="evenodd" d="M15.5792 2.49013C15.6932 2.5964 15.7573 2.7405 15.7573 2.89076C15.7573 3.04102 15.6932 3.18513 15.5792 3.2914L3.53418 14.5114C3.47806 14.5655 3.41094 14.6087 3.33672 14.6384C3.2625 14.6681 3.18267 14.6837 3.1019 14.6844C3.02113 14.685 2.94102 14.6707 2.86626 14.6422C2.7915 14.6137 2.72358 14.5716 2.66646 14.5184C2.60934 14.4652 2.56417 14.4019 2.53358 14.3323C2.50299 14.2627 2.4876 14.188 2.4883 14.1128C2.48901 14.0376 2.50579 13.9632 2.53767 13.8941C2.56955 13.8249 2.6159 13.7624 2.674 13.7101L14.719 2.49013C14.8331 2.3839 14.9878 2.32422 15.1491 2.32422C15.3104 2.32422 15.4651 2.3839 15.5792 2.49013Z" fill="#484039"/>
</svg>
