<svg width="24" height="21" viewBox="0 0 24 21" fill="none" xmlns="http://www.w3.org/2000/svg">
<path d="M16.6296 8.47826C17.1485 8.47826 17.6557 8.31762 18.0871 8.01664C18.5186 7.71566 18.8548 7.28786 19.0534 6.78735C19.2519 6.28684 19.3039 5.73609 19.2027 5.20475C19.1014 4.67342 18.8516 4.18535 18.4847 3.80227C18.1178 3.4192 17.6503 3.15832 17.1414 3.05263C16.6325 2.94694 16.105 3.00119 15.6256 3.20851C15.1462 3.41582 14.7365 3.7669 14.4482 4.21735C14.16 4.6678 14.0061 5.19738 14.0061 5.73913C14.0061 6.4656 14.2825 7.1623 14.7745 7.67599C15.2665 8.18968 15.9338 8.47826 16.6296 8.47826ZM16.6296 4.56522C16.852 4.56522 17.0693 4.63407 17.2542 4.76306C17.4391 4.89205 17.5833 5.07539 17.6684 5.2899C17.7535 5.5044 17.7757 5.74043 17.7323 5.96815C17.689 6.19587 17.5819 6.40504 17.4246 6.56921C17.2674 6.73339 17.067 6.84519 16.8489 6.89049C16.6308 6.93579 16.4048 6.91254 16.1993 6.82369C15.9939 6.73484 15.8183 6.58437 15.6947 6.39132C15.5712 6.19827 15.5052 5.97131 15.5052 5.73913C15.5052 5.42779 15.6237 5.1292 15.8345 4.90905C16.0454 4.6889 16.3314 4.56522 16.6296 4.56522ZM3.54211 7.47652C3.56967 7.37786 3.61558 7.28583 3.6772 7.20569C3.73883 7.12555 3.81497 7.05887 3.90128 7.00945C3.98759 6.96004 4.08237 6.92885 4.18023 6.91768C4.27808 6.90651 4.37708 6.91557 4.47158 6.94435L11.0078 8.93511L11.9748 7.92457C12.0444 7.8518 12.127 7.79408 12.218 7.75469C12.309 7.71531 12.4066 7.69504 12.5051 7.69504C12.6036 7.69504 12.7011 7.71531 12.7921 7.75469C12.8831 7.79408 12.9658 7.8518 13.0354 7.92457L15.8154 10.8261H19.2531C19.4519 10.8261 19.6425 10.9085 19.7831 11.0553C19.9237 11.2021 20.0026 11.4011 20.0026 11.6087C20.0026 11.8163 19.9237 12.0153 19.7831 12.1621C19.6425 12.3089 19.4519 12.3913 19.2531 12.3913H15.5052C15.4068 12.3914 15.3093 12.3712 15.2183 12.3319C15.1273 12.2927 15.0446 12.235 14.9749 12.1624L14.4493 11.6087L4.04901 8.44305C3.85953 8.38427 3.69995 8.24973 3.60502 8.06872C3.51008 7.8877 3.48747 7.67486 3.54211 7.47652ZM22.6674 19.8496C21.8725 20.4041 20.9708 20.7699 20.0259 20.9211C19.081 21.0724 18.1158 21.0055 17.1983 20.7251L2.55362 16.2721C2.45747 16.2449 2.36747 16.198 2.28889 16.134C2.21031 16.0701 2.14472 15.9905 2.09596 15.8998C2.04719 15.8091 2.01623 15.7092 2.00488 15.6058C1.99353 15.5025 2.00202 15.3979 2.02986 15.298C2.05769 15.1981 2.10431 15.1051 2.16699 15.0242C2.22967 14.9434 2.30716 14.8764 2.39492 14.8272C2.48267 14.778 2.57895 14.7475 2.67811 14.7376C2.77727 14.7277 2.87733 14.7385 2.97244 14.7695L10.0933 16.9344L12.5754 14.3478L8.55298 13.1436C8.4583 13.1153 8.36987 13.0679 8.29276 13.0039C8.21564 12.94 8.15134 12.8608 8.10354 12.7709C8.00698 12.5894 7.98345 12.3752 8.03812 12.1756C8.06519 12.0767 8.11064 11.9844 8.17188 11.9039C8.23313 11.8234 8.30896 11.7563 8.39505 11.7063C8.56892 11.6055 8.77402 11.581 8.96524 11.638L14.2122 13.2033C14.3378 13.2407 14.4517 13.3117 14.5429 13.4092C14.6341 13.5068 14.6993 13.6275 14.732 13.7595C14.7648 13.8914 14.764 14.03 14.7297 14.1615C14.6953 14.293 14.6287 14.4129 14.5364 14.5092L11.7349 17.4342L17.6181 19.2225C18.3254 19.4388 19.0695 19.4904 19.798 19.3738C20.5265 19.2572 21.2217 18.9751 21.8344 18.5475C21.9163 18.4905 22.0081 18.4508 22.1047 18.4308C22.2013 18.4109 22.3006 18.4109 22.3972 18.4311C22.4937 18.4512 22.5855 18.491 22.6673 18.5481C22.7491 18.6053 22.8193 18.6787 22.874 18.7642C22.9286 18.8497 22.9666 18.9456 22.9857 19.0464C23.0048 19.1472 23.0048 19.251 22.9855 19.3518C22.9662 19.4525 22.9281 19.5484 22.8734 19.6338C22.8186 19.7192 22.7483 19.7925 22.6664 19.8496H22.6674Z" fill="#484039"/>
</svg>
