<svg width="20" height="21" viewBox="0 0 20 21" fill="none" xmlns="http://www.w3.org/2000/svg">
<path d="M3.06297 9.44468L3.06297 9.44468C2.90783 9.6085 2.81904 9.8328 2.81967 10.0688C2.82031 10.3048 2.91031 10.5285 3.06628 10.6914C3.22185 10.8538 3.42983 10.9423 3.64374 10.9416C3.85764 10.941 4.06518 10.8513 4.21993 10.6879C4.97621 9.88911 5.87611 9.25453 6.8682 8.82127C7.86032 8.38799 8.92471 8.16476 10 8.16478C11.0753 8.16476 12.1397 8.38799 13.1318 8.82127C14.1239 9.25453 15.0238 9.88911 15.7801 10.6879L3.06297 9.44468ZM3.06297 9.44468C3.97325 8.48342 5.05485 7.72128 6.24524 7.20146C7.4356 6.68165 8.71161 6.41424 10 6.41424C11.2884 6.41424 12.5644 6.68165 13.7548 7.20146C14.9452 7.72128 16.0268 8.48342 16.9371 9.44468L17.1186 9.27278M3.06297 9.44468L17.1186 9.27278M17.1186 9.27278L16.9371 9.44468C17.0922 9.6085 17.181 9.8328 17.1804 10.0688M17.1186 9.27278L17.1804 10.0688M17.1804 10.0688C17.1797 10.3048 17.0897 10.5285 16.9338 10.6914M17.1804 10.0688L16.9338 10.6914M16.9338 10.6914C16.7782 10.8538 16.5702 10.9423 16.3563 10.9416M16.9338 10.6914L16.3563 10.9416M16.3563 10.9416C16.1424 10.941 15.9349 10.8513 15.7801 10.6879L16.3563 10.9416ZM18.327 7.52584L18.3271 7.52574L18.3211 7.51941C16.6773 5.79263 14.581 4.61518 12.2969 4.13809C10.0127 3.66097 7.64523 3.90616 5.49455 4.84204C4.06678 5.46312 2.77034 6.3731 1.67896 7.51939L1.67893 7.51937L1.67594 7.52262C1.59955 7.60574 1.50884 7.67134 1.40945 7.71622C1.3101 7.76109 1.20372 7.78454 1.09641 7.78557C0.989109 7.7866 0.882377 7.76521 0.782325 7.72228C0.682238 7.67934 0.590464 7.61555 0.512703 7.53398L0.33175 7.70648L0.512703 7.53398C0.434916 7.45238 0.372764 7.35466 0.330456 7.24623C0.288141 7.13778 0.266685 7.02117 0.267607 6.90332C0.268529 6.78547 0.291806 6.66928 0.335791 6.56163C0.37977 6.45399 0.443405 6.35742 0.522401 6.27723L0.522427 6.27725L0.525374 6.27416C1.77048 4.96626 3.24813 3.92944 4.87357 3.22229C6.49897 2.51515 8.24068 2.15137 9.9993 2.15137C11.7579 2.15137 13.4996 2.51515 15.125 3.22229C16.7505 3.92944 18.2281 4.96626 19.4732 6.27416L19.4731 6.27427L19.4795 6.28048C19.5607 6.35995 19.6265 6.45647 19.6724 6.56463C19.7183 6.67281 19.7432 6.79002 19.7452 6.9092C19.7472 7.02837 19.7263 7.1465 19.684 7.25642C19.6417 7.36632 19.5791 7.46536 19.5005 7.54792C19.4219 7.63046 19.3289 7.69482 19.2275 7.73781C19.1262 7.78079 19.0181 7.80172 18.9096 7.79971C18.8011 7.7977 18.6937 7.77277 18.5938 7.72601C18.4938 7.67923 18.4029 7.61138 18.327 7.52584ZM8.49872 12.5947L8.35002 12.6606V12.6657C7.92131 12.8774 7.53277 13.1693 7.2026 13.5246C7.04925 13.6896 6.84243 13.7814 6.62851 13.7842C6.41461 13.7869 6.20589 13.7005 6.04893 13.5397C5.89156 13.3784 5.79955 13.1556 5.7968 12.9197C5.79405 12.6837 5.88084 12.4584 6.03458 12.293L6.03475 12.2928C6.55704 11.7296 7.18079 11.2828 7.86882 10.9779C8.55682 10.6731 9.29552 10.5162 10.0414 10.5162C10.7874 10.5162 11.5261 10.6731 12.2141 10.9779C12.9021 11.2828 13.5259 11.7296 14.0481 12.2928L14.0482 12.2928C14.2018 12.4584 14.2883 12.6837 14.2854 12.9197C14.2824 13.1557 14.1902 13.3784 14.0327 13.5395C13.8756 13.7002 13.6668 13.7864 13.4529 13.7834C13.239 13.7805 13.0322 13.6884 12.879 13.5233C12.3247 12.9257 11.6101 12.516 10.8277 12.3498C10.0453 12.1836 9.23337 12.2691 8.49872 12.5947ZM7.97573 17.5693C7.97573 16.9984 8.19182 16.4532 8.57289 16.0531C8.95356 15.6534 9.46719 15.4313 10 15.4313C10.5328 15.4313 11.0465 15.6534 11.4271 16.0531C11.8082 16.4532 12.0243 16.9984 12.0243 17.5693C12.0243 18.1401 11.8082 18.6853 11.4271 19.0854C11.0465 19.4851 10.5328 19.7073 10 19.7073C9.46719 19.7073 8.95356 19.4851 8.57289 19.0854C8.19182 18.6853 7.97573 18.1401 7.97573 17.5693Z" fill="#484039" stroke="#D6CFC6" stroke-width="0.5"/>
</svg>
