<svg width="24" height="21" viewBox="0 0 24 21" fill="none" xmlns="http://www.w3.org/2000/svg">
<g clip-path="url(#clip0_131_18345)">
<path d="M14.1765 22V3.39583H14.5588C15.4715 3.39583 16.3468 3.77117 16.9921 4.43927C17.6374 5.10736 18 6.0135 18 6.95833V14.4792H17.6176C17.1106 14.4792 16.6244 14.6877 16.2658 15.0589C15.9073 15.43 15.7059 15.9334 15.7059 16.4583M7.67647 22V10.5208M7.67647 10.5208C8.38631 10.5208 9.06709 10.2289 9.56902 9.70928C10.071 9.18964 10.3529 8.48487 10.3529 7.75V3M7.67647 10.5208C6.96663 10.5208 6.28586 10.2289 5.78392 9.70928C5.28198 9.18964 5 8.48487 5 7.75V3M7.67647 3V8.9375" stroke="#484039"/>
</g>
<defs>
<clipPath id="clip0_131_18345">
<rect width="24" height="21" fill="white"/>
</clipPath>
</defs>
</svg>
