<svg width="22" height="21" viewBox="0 0 22 21" fill="none" xmlns="http://www.w3.org/2000/svg">
<g clip-path="url(#clip0_122_18235)">
<path d="M6.4165 15.1563C4.73992 15.5032 3.6665 16.0352 3.6665 16.633C3.6665 17.6769 6.95 18.5238 10.9998 18.5238C15.0497 18.5238 18.3332 17.6769 18.3332 16.633C18.3332 16.0352 17.2598 15.5032 15.5832 15.1563M13.2915 7.57932C13.2915 8.13753 13.0501 8.67287 12.6203 9.06758C12.1905 9.46229 11.6076 9.68404 10.9998 9.68404C10.392 9.68404 9.80916 9.46229 9.37938 9.06758C8.94961 8.67287 8.70817 8.13753 8.70817 7.57932C8.70817 7.02112 8.94961 6.48578 9.37938 6.09107C9.80916 5.69636 10.392 5.47461 10.9998 5.47461C11.6076 5.47461 12.1905 5.69636 12.6203 6.09107C13.0501 6.48578 13.2915 7.02112 13.2915 7.57932Z" stroke="#484039" stroke-width="1.5" stroke-linecap="round" stroke-linejoin="round"/>
<path d="M12.1519 14.7302C11.8423 15.0038 11.4293 15.1566 10.9996 15.1566C10.57 15.1566 10.157 15.0038 9.84738 14.7302C7.01579 12.2105 3.22171 9.39603 5.07154 5.30951C6.07346 3.09956 8.47513 1.68604 10.9996 1.68604C13.5241 1.68604 15.9267 3.1004 16.9277 5.30951C18.7757 9.39013 14.9908 12.2189 12.1519 14.7302Z" stroke="#484039" stroke-width="1.5" stroke-linecap="round" stroke-linejoin="round"/>
</g>
<defs>
<clipPath id="clip0_122_18235">
<rect width="22" height="20.2053" fill="white" transform="translate(0 0.00244141)"/>
</clipPath>
</defs>
</svg>
