<svg width="20" height="21" viewBox="0 0 20 21" fill="none" xmlns="http://www.w3.org/2000/svg">
<path d="M18.75 17.0627H17.5V11.1565L17.6828 11.3484C17.8003 11.4716 17.9596 11.5406 18.1256 11.5405C18.2916 11.5403 18.4507 11.471 18.568 11.3476C18.6852 11.2242 18.751 11.057 18.7509 10.8827C18.7508 10.7084 18.6847 10.5413 18.5672 10.4182L10.8836 2.35287C10.6492 2.10691 10.3314 1.96875 10 1.96875C9.66862 1.96875 9.3508 2.10691 9.11641 2.35287L1.43281 10.4182C1.31564 10.5413 1.24986 10.7083 1.24993 10.8824C1.25 11.0564 1.31593 11.2233 1.4332 11.3464C1.55048 11.4694 1.7095 11.5385 1.87528 11.5384C2.04106 11.5383 2.20002 11.4691 2.31719 11.346L2.5 11.1565V17.0627H1.25C1.08424 17.0627 0.925268 17.1319 0.808058 17.2549C0.690848 17.378 0.625 17.5449 0.625 17.719C0.625 17.893 0.690848 18.0599 0.808058 18.183C0.925268 18.3061 1.08424 18.3752 1.25 18.3752H18.75C18.9158 18.3752 19.0747 18.3061 19.1919 18.183C19.3092 18.0599 19.375 17.893 19.375 17.719C19.375 17.5449 19.3092 17.378 19.1919 17.2549C19.0747 17.1319 18.9158 17.0627 18.75 17.0627ZM11.875 17.0627H8.125V13.1252C8.125 13.0382 8.15792 12.9547 8.21653 12.8932C8.27513 12.8317 8.35462 12.7971 8.4375 12.7971H11.5625C11.6454 12.7971 11.7249 12.8317 11.7835 12.8932C11.8421 12.9547 11.875 13.0382 11.875 13.1252V17.0627Z" fill="#484039"/>
</svg>
