<svg width="24" height="21" viewBox="0 0 24 21" fill="none" xmlns="http://www.w3.org/2000/svg">
<g clip-path="url(#clip0_138_18418)">
<path d="M21.6545 0.902344C16.0655 4.10091 9.1118 5.55298 0.84375 5.36152V6.09997C9.73781 6.30176 17.2256 4.62345 23.1461 0.902344H21.6545ZM22.8669 2.35606L18.9234 4.25275L23.0628 6.75499L22.867 2.35606H22.8669ZM17.7337 4.71364L13.4195 5.83328L16.8562 9.04842L17.7337 4.71368V4.71364ZM11.7104 6.16932L7.25883 6.74588L10.1435 10.3527L11.7104 6.16932ZM5.46 6.84059L0.962063 6.96027L3.34777 10.8361L5.46 6.84059ZM0.84375 11.4623V12.2277C11.6963 14.823 18.1348 15.5629 23.1562 15.711V14.9728C18.1671 14.8252 11.7677 14.0862 0.84375 11.4622V11.4623ZM2.87714 13.5641L4.00462 17.8544L7.25072 14.491L2.87714 13.5641ZM9.95761 15.1017L11.3612 19.3292L14.3841 15.8102L9.95761 15.1017ZM17.1336 16.1044L19.0374 20.1794L21.6207 16.4018L17.1336 16.1044Z" fill="#484039"/>
</g>
<defs>
<clipPath id="clip0_138_18418">
<rect width="24" height="21" fill="white"/>
</clipPath>
</defs>
</svg>
